<?xml version="1.0" encoding="UTF-8" standalone="no"?>
<!DOCTYPE svg PUBLIC "-//W3C//DTD SVG 1.1//EN"
 "http://www.w3.org/Graphics/SVG/1.1/DTD/svg11.dtd">
<!-- Generated by graphviz version 9.0.0 (20230911.1827)
 -->
<!-- Title: dBgS_Chk Pages: 1 -->
<!--zoomable 693 -->

<svg id="main" version="1.1" xmlns="http://www.w3.org/2000/svg" xmlns:xlink="http://www.w3.org/1999/xlink" xml:space="preserve" onload="init(evt)">
<style type="text/css"><![CDATA[
.node, .edge {opacity: 0.7;}
.node.selected, .edge.selected {opacity: 1;}
.edge:hover path { stroke: red; }
.edge:hover polygon { stroke: red; fill: red; }
]]></style>

<defs>
  <circle id="rim" cx="0" cy="0" r="7"/>
  <circle id="rim2" cx="0" cy="0" r="3.5"/>
  <g id="zoomPlus">
    <use xlink:href="#rim" fill="#404040"><set attributeName="fill" to="#808080" begin="zoomplus.mouseover" end="zoomplus.mouseout"/></use>
    <path d="M-4,0h8M0,-4v8" fill="none" stroke="white" stroke-width="1.5" pointer-events="none"/>
  </g>
  <g id="zoomMin">
    <use xlink:href="#rim" fill="#404040"><set attributeName="fill" to="#808080" begin="zoomminus.mouseover" end="zoomminus.mouseout"/></use>
    <path d="M-4,0h8" fill="none" stroke="white" stroke-width="1.5" pointer-events="none"/>
  </g>
  <g id="arrowUp" transform="translate(30 24)">
    <use xlink:href="#rim"/>
    <path pointer-events="none" fill="none" stroke="white" stroke-width="1.5" d="M0,-3.0v7 M-2.5,-0.5L0,-3.0L2.5,-0.5"/>
  </g>
  <g id="arrowRight" transform="rotate(90) translate(36 -43)">
    <use xlink:href="#rim"/>
    <path pointer-events="none" fill="none" stroke="white" stroke-width="1.5" d="M0,-3.0v7 M-2.5,-0.5L0,-3.0L2.5,-0.5"/>
  </g>
  <g id="arrowDown" transform="rotate(180) translate(-30 -48)">
    <use xlink:href="#rim"/>
    <path pointer-events="none" fill="none" stroke="white" stroke-width="1.5" d="M0,-3.0v7 M-2.5,-0.5L0,-3.0L2.5,-0.5"/>
  </g>
  <g id="arrowLeft" transform="rotate(270) translate(-36 17)">
    <use xlink:href="#rim"/>
    <path pointer-events="none" fill="none" stroke="white" stroke-width="1.5" d="M0,-3.0v7 M-2.5,-0.5L0,-3.0L2.5,-0.5"/>
  </g>
  <g id="resetDef">
    <use xlink:href="#rim2" fill="#404040"><set attributeName="fill" to="#808080" begin="reset.mouseover" end="reset.mouseout"/></use>
  </g>
</defs>
<script type="application/ecmascript">
var viewWidth = 808;
var viewHeight = 693;
var sectionId = 'dynsection-0';
</script>
<script type="application/ecmascript" xlink:href="svg.min.js"/>
<svg id="graph" class="graph">
<g id="viewport">
<title>dBgS_Chk</title>
<!-- Node1 -->
<g id="Node000001" class="node">
<title>Node1</title>
<g id="a_Node000001"><a xlink:title=" ">
<polygon fill="#999999" stroke="#666666" points="342,-296.25 279.5,-296.25 279.5,-277 342,-277 342,-296.25"/>
<text text-anchor="middle" x="310.75" y="-282.75" font-family="Helvetica,sans-Serif" font-size="10.00">dBgS_Chk</text>
</a>
</g>
</g>
<!-- Node6 -->
<g id="Node000006" class="node">
<title>Node6</title>
<g id="a_Node000006"><a xlink:href="structdBgS__Acch.html" target="_top" xlink:title=" ">
<polygon fill="white" stroke="#666666" points="458.12,-611.25 390.38,-611.25 390.38,-592 458.12,-592 458.12,-611.25"/>
<text text-anchor="middle" x="424.25" y="-597.75" font-family="Helvetica,sans-Serif" font-size="10.00">dBgS_Acch</text>
</a>
</g>
</g>
<!-- Node1&#45;&gt;Node6 -->
<g id="edge5_Node000001_Node000006" class="edge">
<title>Node1&#45;&gt;Node6</title>
<g id="a_edge5_Node000001_Node000006"><a xlink:title=" ">
<path fill="none" stroke="#63b8ff" d="M316.71,-307.54C326.46,-347.51 349.66,-437.18 378,-509.62 390.06,-540.46 408.48,-575.05 417.66,-591.67"/>
<polygon fill="#63b8ff" stroke="#63b8ff" points="320.17,-306.98 314.43,-298.08 313.37,-308.62 320.17,-306.98"/>
</a>
</g>
</g>
<!-- Node11 -->
<g id="Node000011" class="node">
<title>Node11</title>
<g id="a_Node000011"><a xlink:href="structdBgS__CaptPoly.html" target="_top" xlink:title=" ">
<polygon fill="white" stroke="#666666" points="466.38,-500.25 382.12,-500.25 382.12,-481 466.38,-481 466.38,-500.25"/>
<text text-anchor="middle" x="424.25" y="-486.75" font-family="Helvetica,sans-Serif" font-size="10.00">dBgS_CaptPoly</text>
</a>
</g>
</g>
<!-- Node1&#45;&gt;Node11 -->
<g id="edge10_Node000001_Node000011" class="edge">
<title>Node1&#45;&gt;Node11</title>
<g id="a_edge10_Node000001_Node000011"><a xlink:title=" ">
<path fill="none" stroke="#63b8ff" d="M313.64,-307.71C318.12,-345.6 332.68,-425.62 378,-472.62 381.05,-475.79 384.73,-478.41 388.66,-480.58"/>
<polygon fill="#63b8ff" stroke="#63b8ff" points="317.16,-307.67 312.64,-298.09 310.2,-308.4 317.16,-307.67"/>
</a>
</g>
</g>
<!-- Node12 -->
<g id="Node000012" class="node">
<title>Node12</title>
<g id="a_Node000012"><a xlink:href="structdBgS__GndChk.html" target="_top" xlink:title=" ">
<polygon fill="white" stroke="#666666" points="464.5,-463.25 384,-463.25 384,-444 464.5,-444 464.5,-463.25"/>
<text text-anchor="middle" x="424.25" y="-449.75" font-family="Helvetica,sans-Serif" font-size="10.00">dBgS_GndChk</text>
</a>
</g>
</g>
<!-- Node1&#45;&gt;Node12 -->
<g id="edge11_Node000001_Node000012" class="edge">
<title>Node1&#45;&gt;Node12</title>
<g id="a_edge11_Node000001_Node000012"><a xlink:title=" ">
<path fill="none" stroke="#63b8ff" d="M324.6,-305.88C348.36,-341.46 398.37,-416.36 416.5,-443.52"/>
<polygon fill="#63b8ff" stroke="#63b8ff" points="327.69,-304.2 319.23,-297.83 321.87,-308.09 327.69,-304.2"/>
</a>
</g>
</g>
<!-- Node20 -->
<g id="Node000020" class="node">
<title>Node20</title>
<g id="a_Node000020"><a xlink:href="structdBgS__LinChk.html" target="_top" xlink:title=" ">
<polygon fill="white" stroke="#666666" points="462.25,-296.25 386.25,-296.25 386.25,-277 462.25,-277 462.25,-296.25"/>
<text text-anchor="middle" x="424.25" y="-282.75" font-family="Helvetica,sans-Serif" font-size="10.00">dBgS_LinChk</text>
</a>
</g>
</g>
<!-- Node1&#45;&gt;Node20 -->
<g id="edge19_Node000001_Node000020" class="edge">
<title>Node1&#45;&gt;Node20</title>
<g id="a_edge19_Node000001_Node000020"><a xlink:title=" ">
<path fill="none" stroke="#63b8ff" d="M353.46,-286.62C364.16,-286.62 375.61,-286.62 386.06,-286.62"/>
<polygon fill="#63b8ff" stroke="#63b8ff" points="353.73,-283.13 343.73,-286.63 353.73,-290.13 353.73,-283.13"/>
</a>
</g>
</g>
<!-- Node30 -->
<g id="Node000030" class="node">
<title>Node30</title>
<g id="a_Node000030"><a xlink:href="classdBgS__RoofChk.html" target="_top" xlink:title=" ">
<polygon fill="white" stroke="#666666" points="465.62,-130.25 382.88,-130.25 382.88,-111 465.62,-111 465.62,-130.25"/>
<text text-anchor="middle" x="424.25" y="-116.75" font-family="Helvetica,sans-Serif" font-size="10.00">dBgS_RoofChk</text>
</a>
</g>
</g>
<!-- Node1&#45;&gt;Node30 -->
<g id="edge29_Node000001_Node000030" class="edge">
<title>Node1&#45;&gt;Node30</title>
<g id="a_edge29_Node000001_Node000030"><a xlink:title=" ">
<path fill="none" stroke="#63b8ff" d="M324.6,-267.49C348.36,-232.12 398.37,-157.66 416.5,-130.67"/>
<polygon fill="#63b8ff" stroke="#63b8ff" points="321.91,-265.23 319.23,-275.48 327.72,-269.13 321.91,-265.23"/>
</a>
</g>
</g>
<!-- Node33 -->
<g id="Node000033" class="node">
<title>Node33</title>
<g id="a_Node000033"><a xlink:href="classdBgS__SphChk.html" target="_top" xlink:title=" ">
<polygon fill="white" stroke="#666666" points="464.12,-84.25 384.38,-84.25 384.38,-65 464.12,-65 464.12,-84.25"/>
<text text-anchor="middle" x="424.25" y="-70.75" font-family="Helvetica,sans-Serif" font-size="10.00">dBgS_SphChk</text>
</a>
</g>
</g>
<!-- Node1&#45;&gt;Node33 -->
<g id="edge32_Node000001_Node000033" class="edge">
<title>Node1&#45;&gt;Node33</title>
<g id="a_edge32_Node000001_Node000033"><a xlink:title=" ">
<path fill="none" stroke="#63b8ff" d="M314.6,-265.33C320.49,-228.32 337.09,-151.35 378,-101.62 383.81,-94.56 391.99,-88.89 399.79,-84.61"/>
<polygon fill="#63b8ff" stroke="#63b8ff" points="311.14,-264.74 313.15,-275.14 318.07,-265.76 311.14,-264.74"/>
</a>
</g>
</g>
<!-- Node35 -->
<g id="Node000035" class="node">
<title>Node35</title>
<g id="a_Node000035"><a xlink:href="classdBgS__SplGrpChk.html" target="_top" xlink:title=" ">
<polygon fill="white" stroke="#666666" points="470.5,-37.25 378,-37.25 378,-18 470.5,-18 470.5,-37.25"/>
<text text-anchor="middle" x="424.25" y="-23.75" font-family="Helvetica,sans-Serif" font-size="10.00">dBgS_SplGrpChk</text>
</a>
</g>
</g>
<!-- Node1&#45;&gt;Node35 -->
<g id="edge34_Node000001_Node000035" class="edge">
<title>Node1&#45;&gt;Node35</title>
<g id="a_edge34_Node000001_Node000035"><a xlink:title=" ">
<path fill="none" stroke="#63b8ff" d="M312.82,-265.36C316.01,-221.77 328.6,-120.88 378,-55.62 383.69,-48.11 392.03,-42.14 400,-37.68"/>
<polygon fill="#63b8ff" stroke="#63b8ff" points="309.33,-265.02 312.21,-275.22 316.32,-265.46 309.33,-265.02"/>
</a>
</g>
</g>
<!-- Node2 -->
<g id="Node000002" class="node">
<title>Node2</title>
<g id="a_Node000002"><a xlink:href="structdBgS__PolyPassChk.html" target="_top" xlink:title=" ">
<polygon fill="white" stroke="#666666" points="243.5,-315.25 139.75,-315.25 139.75,-296 243.5,-296 243.5,-315.25"/>
<text text-anchor="middle" x="191.62" y="-301.75" font-family="Helvetica,sans-Serif" font-size="10.00">dBgS_PolyPassChk</text>
</a>
</g>
</g>
<!-- Node2&#45;&gt;Node1 -->
<g id="edge1_Node000001_Node000002" class="edge">
<title>Node2&#45;&gt;Node1</title>
<g id="a_edge1_Node000001_Node000002"><a xlink:title=" ">
<path fill="none" stroke="#63b8ff" d="M255.35,-295.45C263.67,-294.1 271.88,-292.77 279.29,-291.57"/>
<polygon fill="#63b8ff" stroke="#63b8ff" points="254.8,-291.99 245.49,-297.05 255.92,-298.9 254.8,-291.99"/>
</a>
</g>
</g>
<!-- Node3 -->
<g id="Node000003" class="node">
<title>Node3</title>
<g id="a_Node000003"><a xlink:href="classcBgS__PolyPassChk.html" target="_top" xlink:title=" ">
<polygon fill="white" stroke="#666666" points="103.75,-315.25 0,-315.25 0,-296 103.75,-296 103.75,-315.25"/>
<text text-anchor="middle" x="51.88" y="-301.75" font-family="Helvetica,sans-Serif" font-size="10.00">cBgS_PolyPassChk</text>
</a>
</g>
</g>
<!-- Node3&#45;&gt;Node2 -->
<g id="edge2_Node000002_Node000003" class="edge">
<title>Node3&#45;&gt;Node2</title>
<g id="a_edge2_Node000002_Node000003"><a xlink:title=" ">
<path fill="none" stroke="#63b8ff" d="M115.64,-305.62C123.55,-305.62 131.58,-305.62 139.29,-305.62"/>
<polygon fill="#63b8ff" stroke="#63b8ff" points="115.68,-302.13 105.68,-305.63 115.68,-309.13 115.68,-302.13"/>
</a>
</g>
</g>
<!-- Node4 -->
<g id="Node000004" class="node">
<title>Node4</title>
<g id="a_Node000004"><a xlink:href="classdBgS__GrpPassChk.html" target="_top" xlink:title=" ">
<polygon fill="white" stroke="#666666" points="242,-278.25 141.25,-278.25 141.25,-259 242,-259 242,-278.25"/>
<text text-anchor="middle" x="191.62" y="-264.75" font-family="Helvetica,sans-Serif" font-size="10.00">dBgS_GrpPassChk</text>
</a>
</g>
</g>
<!-- Node4&#45;&gt;Node1 -->
<g id="edge3_Node000001_Node000004" class="edge">
<title>Node4&#45;&gt;Node1</title>
<g id="a_edge3_Node000001_Node000004"><a xlink:title=" ">
<path fill="none" stroke="#63b8ff" d="M253.49,-277.98C262.34,-279.34 271.12,-280.69 279.02,-281.9"/>
<polygon fill="#63b8ff" stroke="#63b8ff" points="254.21,-274.55 243.79,-276.49 253.14,-281.47 254.21,-274.55"/>
</a>
</g>
</g>
<!-- Node5 -->
<g id="Node000005" class="node">
<title>Node5</title>
<g id="a_Node000005"><a xlink:href="classcBgS__GrpPassChk.html" target="_top" xlink:title=" ">
<polygon fill="white" stroke="#666666" points="102.25,-278.25 1.5,-278.25 1.5,-259 102.25,-259 102.25,-278.25"/>
<text text-anchor="middle" x="51.88" y="-264.75" font-family="Helvetica,sans-Serif" font-size="10.00">cBgS_GrpPassChk</text>
</a>
</g>
</g>
<!-- Node5&#45;&gt;Node4 -->
<g id="edge4_Node000004_Node000005" class="edge">
<title>Node5&#45;&gt;Node4</title>
<g id="a_edge4_Node000004_Node000005"><a xlink:title=" ">
<path fill="none" stroke="#63b8ff" d="M113.92,-268.62C122.96,-268.62 132.19,-268.62 140.97,-268.62"/>
<polygon fill="#63b8ff" stroke="#63b8ff" points="114.12,-265.13 104.12,-268.63 114.12,-272.13 114.12,-265.13"/>
</a>
</g>
</g>
<!-- Node7 -->
<g id="Node000007" class="node">
<title>Node7</title>
<g id="a_Node000007"><a xlink:href="classdBgS__BombAcch.html" target="_top" xlink:title=" ">
<polygon fill="white" stroke="#666666" points="615.88,-685.25 522.62,-685.25 522.62,-666 615.88,-666 615.88,-685.25"/>
<text text-anchor="middle" x="569.25" y="-671.75" font-family="Helvetica,sans-Serif" font-size="10.00">dBgS_BombAcch</text>
</a>
</g>
</g>
<!-- Node6&#45;&gt;Node7 -->
<g id="edge6_Node000006_Node000007" class="edge">
<title>Node6&#45;&gt;Node7</title>
<g id="a_edge6_Node000006_Node000007"><a xlink:title=" ">
<path fill="none" stroke="#63b8ff" d="M446.02,-618.73C461.79,-631 484.46,-647.15 506.5,-657.62 512.85,-660.64 519.82,-663.27 526.71,-665.51"/>
<polygon fill="#63b8ff" stroke="#63b8ff" points="448.34,-616.1 438.34,-612.61 443.99,-621.58 448.34,-616.1"/>
</a>
</g>
</g>
<!-- Node8 -->
<g id="Node000008" class="node">
<title>Node8</title>
<g id="a_Node000008"><a xlink:href="classdBgS__LinkAcch.html" target="_top" xlink:title=" ">
<polygon fill="white" stroke="#666666" points="612.5,-648.25 526,-648.25 526,-629 612.5,-629 612.5,-648.25"/>
<text text-anchor="middle" x="569.25" y="-634.75" font-family="Helvetica,sans-Serif" font-size="10.00">dBgS_LinkAcch</text>
</a>
</g>
</g>
<!-- Node6&#45;&gt;Node8 -->
<g id="edge7_Node000006_Node000008" class="edge">
<title>Node6&#45;&gt;Node8</title>
<g id="a_edge7_Node000006_Node000008"><a xlink:title=" ">
<path fill="none" stroke="#63b8ff" d="M469.54,-613.08C488.61,-618.02 510.72,-623.74 529.17,-628.51"/>
<polygon fill="#63b8ff" stroke="#63b8ff" points="470.44,-609.7 459.88,-610.59 468.69,-616.48 470.44,-609.7"/>
</a>
</g>
</g>
<!-- Node9 -->
<g id="Node000009" class="node">
<title>Node9</title>
<g id="a_Node000009"><a xlink:href="structdBgS__ObjAcch.html" target="_top" xlink:title=" ">
<polygon fill="white" stroke="#666666" points="610.62,-611.25 527.88,-611.25 527.88,-592 610.62,-592 610.62,-611.25"/>
<text text-anchor="middle" x="569.25" y="-597.75" font-family="Helvetica,sans-Serif" font-size="10.00">dBgS_ObjAcch</text>
</a>
</g>
</g>
<!-- Node6&#45;&gt;Node9 -->
<g id="edge8_Node000006_Node000009" class="edge">
<title>Node6&#45;&gt;Node9</title>
<g id="a_edge8_Node000006_Node000009"><a xlink:title=" ">
<path fill="none" stroke="#63b8ff" d="M469.8,-601.62C488.27,-601.62 509.56,-601.62 527.61,-601.62"/>
<polygon fill="#63b8ff" stroke="#63b8ff" points="469.93,-598.13 459.93,-601.63 469.93,-605.13 469.93,-598.13"/>
</a>
</g>
</g>
<!-- Node10 -->
<g id="Node000010" class="node">
<title>Node10</title>
<g id="a_Node000010"><a xlink:href="classdBgS__StatueAcch.html" target="_top" xlink:title=" ">
<polygon fill="white" stroke="#666666" points="617.38,-574.25 521.12,-574.25 521.12,-555 617.38,-555 617.38,-574.25"/>
<text text-anchor="middle" x="569.25" y="-560.75" font-family="Helvetica,sans-Serif" font-size="10.00">dBgS_StatueAcch</text>
</a>
</g>
</g>
<!-- Node6&#45;&gt;Node10 -->
<g id="edge9_Node000006_Node000010" class="edge">
<title>Node6&#45;&gt;Node10</title>
<g id="a_edge9_Node000006_Node000010"><a xlink:title=" ">
<path fill="none" stroke="#63b8ff" d="M469.54,-590.17C488.61,-585.23 510.72,-579.51 529.17,-574.74"/>
<polygon fill="#63b8ff" stroke="#63b8ff" points="468.69,-586.77 459.88,-592.66 470.44,-593.55 468.69,-586.77"/>
</a>
</g>
</g>
<!-- Node13 -->
<g id="Node000013" class="node">
<title>Node13</title>
<g id="a_Node000013"><a xlink:href="classdBgS__CamGndChk.html" target="_top" xlink:title=" ">
<polygon fill="white" stroke="#666666" points="619.62,-537.25 518.88,-537.25 518.88,-518 619.62,-518 619.62,-537.25"/>
<text text-anchor="middle" x="569.25" y="-523.75" font-family="Helvetica,sans-Serif" font-size="10.00">dBgS_CamGndChk</text>
</a>
</g>
</g>
<!-- Node12&#45;&gt;Node13 -->
<g id="edge12_Node000012_Node000013" class="edge">
<title>Node12&#45;&gt;Node13</title>
<g id="a_edge12_Node000012_Node000013"><a xlink:title=" ">
<path fill="none" stroke="#63b8ff" d="M465.7,-468.63C467.35,-469.58 468.96,-470.58 470.5,-471.62 489.76,-484.67 486.64,-497.5 506.5,-509.62 511.65,-512.77 517.37,-515.38 523.2,-517.56"/>
<polygon fill="#63b8ff" stroke="#63b8ff" points="467.73,-465.74 457.22,-464.37 464.58,-471.99 467.73,-465.74"/>
</a>
</g>
</g>
<!-- Node15 -->
<g id="Node000015" class="node">
<title>Node15</title>
<g id="a_Node000015"><a xlink:href="classdBgS__LinkGndChk.html" target="_top" xlink:title=" ">
<polygon fill="white" stroke="#666666" points="618.88,-500.25 519.62,-500.25 519.62,-481 618.88,-481 618.88,-500.25"/>
<text text-anchor="middle" x="569.25" y="-486.75" font-family="Helvetica,sans-Serif" font-size="10.00">dBgS_LinkGndChk</text>
</a>
</g>
</g>
<!-- Node12&#45;&gt;Node15 -->
<g id="edge14_Node000012_Node000015" class="edge">
<title>Node12&#45;&gt;Node15</title>
<g id="a_edge14_Node000012_Node000015"><a xlink:title=" ">
<path fill="none" stroke="#63b8ff" d="M475.32,-466.58C493,-471.15 512.6,-476.23 529.22,-480.53"/>
<polygon fill="#63b8ff" stroke="#63b8ff" points="476.35,-463.23 465.79,-464.11 474.6,-470.01 476.35,-463.23"/>
</a>
</g>
</g>
<!-- Node16 -->
<g id="Node000016" class="node">
<title>Node16</title>
<g id="a_Node000016"><a xlink:href="structdBgS__ObjGndChk.html" target="_top" xlink:title=" ">
<polygon fill="white" stroke="#666666" points="617,-463.25 521.5,-463.25 521.5,-444 617,-444 617,-463.25"/>
<text text-anchor="middle" x="569.25" y="-449.75" font-family="Helvetica,sans-Serif" font-size="10.00">dBgS_ObjGndChk</text>
</a>
</g>
</g>
<!-- Node12&#45;&gt;Node16 -->
<g id="edge15_Node000012_Node000016" class="edge">
<title>Node12&#45;&gt;Node16</title>
<g id="a_edge15_Node000012_Node000016"><a xlink:title=" ">
<path fill="none" stroke="#63b8ff" d="M476.12,-453.62C490.75,-453.62 506.65,-453.62 521.05,-453.62"/>
<polygon fill="#63b8ff" stroke="#63b8ff" points="476.22,-450.13 466.22,-453.63 476.22,-457.13 476.22,-450.13"/>
</a>
</g>
</g>
<!-- Node14 -->
<g id="Node000014" class="node">
<title>Node14</title>
<g id="a_Node000014"><a xlink:href="classdBgS__CamGndChk__Wtr.html" target="_top" xlink:title=" ">
<polygon fill="white" stroke="#666666" points="794.62,-537.25 673.62,-537.25 673.62,-518 794.62,-518 794.62,-537.25"/>
<text text-anchor="middle" x="734.12" y="-523.75" font-family="Helvetica,sans-Serif" font-size="10.00">dBgS_CamGndChk_Wtr</text>
</a>
</g>
</g>
<!-- Node13&#45;&gt;Node14 -->
<g id="edge13_Node000013_Node000014" class="edge">
<title>Node13&#45;&gt;Node14</title>
<g id="a_edge13_Node000013_Node000014"><a xlink:title=" ">
<path fill="none" stroke="#63b8ff" d="M631.32,-527.62C645.08,-527.62 659.66,-527.62 673.36,-527.62"/>
<polygon fill="#63b8ff" stroke="#63b8ff" points="631.52,-524.13 621.52,-527.63 631.52,-531.13 631.52,-524.13"/>
</a>
</g>
</g>
<!-- Node17 -->
<g id="Node000017" class="node">
<title>Node17</title>
<g id="a_Node000017"><a xlink:href="classdBgS__ObjGndChk__All.html" target="_top" xlink:title=" ">
<polygon fill="white" stroke="#666666" points="790.12,-500.25 678.12,-500.25 678.12,-481 790.12,-481 790.12,-500.25"/>
<text text-anchor="middle" x="734.12" y="-486.75" font-family="Helvetica,sans-Serif" font-size="10.00">dBgS_ObjGndChk_All</text>
</a>
</g>
</g>
<!-- Node16&#45;&gt;Node17 -->
<g id="edge16_Node000016_Node000017" class="edge">
<title>Node16&#45;&gt;Node17</title>
<g id="a_edge16_Node000016_Node000017"><a xlink:title=" ">
<path fill="none" stroke="#63b8ff" d="M625.86,-466.26C646.35,-470.91 669.29,-476.12 688.67,-480.53"/>
<polygon fill="#63b8ff" stroke="#63b8ff" points="626.76,-462.87 616.23,-464.07 625.21,-469.7 626.76,-462.87"/>
</a>
</g>
</g>
<!-- Node18 -->
<g id="Node000018" class="node">
<title>Node18</title>
<g id="a_Node000018"><a xlink:href="structdBgS__ObjGndChk__Spl.html" target="_top" xlink:title=" ">
<polygon fill="white" stroke="#666666" points="791.62,-463.25 676.62,-463.25 676.62,-444 791.62,-444 791.62,-463.25"/>
<text text-anchor="middle" x="734.12" y="-449.75" font-family="Helvetica,sans-Serif" font-size="10.00">dBgS_ObjGndChk_Spl</text>
</a>
</g>
</g>
<!-- Node16&#45;&gt;Node18 -->
<g id="edge17_Node000016_Node000018" class="edge">
<title>Node16&#45;&gt;Node18</title>
<g id="a_edge17_Node000016_Node000018"><a xlink:title=" ">
<path fill="none" stroke="#63b8ff" d="M628.44,-453.62C644.01,-453.62 660.82,-453.62 676.31,-453.62"/>
<polygon fill="#63b8ff" stroke="#63b8ff" points="628.87,-450.13 618.87,-453.63 628.87,-457.13 628.87,-450.13"/>
</a>
</g>
</g>
<!-- Node19 -->
<g id="Node000019" class="node">
<title>Node19</title>
<g id="a_Node000019"><a xlink:href="classdBgS__ObjGndChk__Wtr.html" target="_top" xlink:title=" ">
<polygon fill="white" stroke="#666666" points="792,-426.25 676.25,-426.25 676.25,-407 792,-407 792,-426.25"/>
<text text-anchor="middle" x="734.12" y="-412.75" font-family="Helvetica,sans-Serif" font-size="10.00">dBgS_ObjGndChk_Wtr</text>
</a>
</g>
</g>
<!-- Node16&#45;&gt;Node19 -->
<g id="edge18_Node000016_Node000019" class="edge">
<title>Node16&#45;&gt;Node19</title>
<g id="a_edge18_Node000016_Node000019"><a xlink:title=" ">
<path fill="none" stroke="#63b8ff" d="M625.86,-440.99C646.35,-436.34 669.29,-431.13 688.67,-426.72"/>
<polygon fill="#63b8ff" stroke="#63b8ff" points="625.21,-437.55 616.23,-443.18 626.76,-444.38 625.21,-437.55"/>
</a>
</g>
</g>
<!-- Node21 -->
<g id="Node000021" class="node">
<title>Node21</title>
<g id="a_Node000021"><a xlink:href="classdBgS__ArrowLinChk.html" target="_top" xlink:title=" ">
<polygon fill="white" stroke="#666666" points="620,-426.25 518.5,-426.25 518.5,-407 620,-407 620,-426.25"/>
<text text-anchor="middle" x="569.25" y="-412.75" font-family="Helvetica,sans-Serif" font-size="10.00">dBgS_ArrowLinChk</text>
</a>
</g>
</g>
<!-- Node20&#45;&gt;Node21 -->
<g id="edge20_Node000020_Node000021" class="edge">
<title>Node20&#45;&gt;Node21</title>
<g id="a_edge20_Node000020_Node000021"><a xlink:title=" ">
<path fill="none" stroke="#63b8ff" d="M434.71,-306.95C447.48,-332.18 472.6,-374.76 506.5,-398.62 510.97,-401.77 516,-404.38 521.2,-406.53"/>
<polygon fill="#63b8ff" stroke="#63b8ff" points="437.92,-305.54 430.39,-298.08 431.62,-308.6 437.92,-305.54"/>
</a>
</g>
</g>
<!-- Node22 -->
<g id="Node000022" class="node">
<title>Node22</title>
<g id="a_Node000022"><a xlink:href="classdBgS__BombLinChk.html" target="_top" xlink:title=" ">
<polygon fill="white" stroke="#666666" points="620,-389.25 518.5,-389.25 518.5,-370 620,-370 620,-389.25"/>
<text text-anchor="middle" x="569.25" y="-375.75" font-family="Helvetica,sans-Serif" font-size="10.00">dBgS_BombLinChk</text>
</a>
</g>
</g>
<!-- Node20&#45;&gt;Node22 -->
<g id="edge21_Node000020_Node000022" class="edge">
<title>Node20&#45;&gt;Node22</title>
<g id="a_edge21_Node000020_Node000022"><a xlink:title=" ">
<path fill="none" stroke="#63b8ff" d="M440.8,-305.24C455.93,-322.23 480.41,-346.88 506.5,-361.62 512.04,-364.76 518.18,-367.39 524.37,-369.58"/>
<polygon fill="#63b8ff" stroke="#63b8ff" points="443.58,-303.11 434.39,-297.84 438.29,-307.69 443.58,-303.11"/>
</a>
</g>
</g>
<!-- Node23 -->
<g id="Node000023" class="node">
<title>Node23</title>
<g id="a_Node000023"><a xlink:href="classdBgS__BoomerangLinChk.html" target="_top" xlink:title=" ">
<polygon fill="white" stroke="#666666" points="632,-352.25 506.5,-352.25 506.5,-333 632,-333 632,-352.25"/>
<text text-anchor="middle" x="569.25" y="-338.75" font-family="Helvetica,sans-Serif" font-size="10.00">dBgS_BoomerangLinChk</text>
</a>
</g>
</g>
<!-- Node20&#45;&gt;Node23 -->
<g id="edge22_Node000020_Node000023" class="edge">
<title>Node20&#45;&gt;Node23</title>
<g id="a_edge22_Node000020_Node000023"><a xlink:title=" ">
<path fill="none" stroke="#63b8ff" d="M454.47,-301.62C469.73,-309.12 488.86,-317.97 506.5,-324.62 514.13,-327.5 522.43,-330.2 530.39,-332.59"/>
<polygon fill="#63b8ff" stroke="#63b8ff" points="456.45,-298.7 445.94,-297.38 453.33,-304.97 456.45,-298.7"/>
</a>
</g>
</g>
<!-- Node24 -->
<g id="Node000024" class="node">
<title>Node24</title>
<g id="a_Node000024"><a xlink:href="classdBgS__CamLinChk.html" target="_top" xlink:title=" ">
<polygon fill="white" stroke="#666666" points="617.38,-315.25 521.12,-315.25 521.12,-296 617.38,-296 617.38,-315.25"/>
<text text-anchor="middle" x="569.25" y="-301.75" font-family="Helvetica,sans-Serif" font-size="10.00">dBgS_CamLinChk</text>
</a>
</g>
</g>
<!-- Node20&#45;&gt;Node24 -->
<g id="edge23_Node000020_Node000024" class="edge">
<title>Node20&#45;&gt;Node24</title>
<g id="a_edge23_Node000020_Node000024"><a xlink:title=" ">
<path fill="none" stroke="#63b8ff" d="M473.7,-293.06C488.87,-295.08 505.6,-297.3 520.71,-299.31"/>
<polygon fill="#63b8ff" stroke="#63b8ff" points="474.32,-289.61 463.95,-291.77 473.4,-296.55 474.32,-289.61"/>
</a>
</g>
</g>
<!-- Node26 -->
<g id="Node000026" class="node">
<title>Node26</title>
<g id="a_Node000026"><a xlink:href="classdBgS__HorseLinChk.html" target="_top" xlink:title=" ">
<polygon fill="white" stroke="#666666" points="620.38,-278.25 518.12,-278.25 518.12,-259 620.38,-259 620.38,-278.25"/>
<text text-anchor="middle" x="569.25" y="-264.75" font-family="Helvetica,sans-Serif" font-size="10.00">dBgS_HorseLinChk</text>
</a>
</g>
</g>
<!-- Node20&#45;&gt;Node26 -->
<g id="edge25_Node000020_Node000026" class="edge">
<title>Node20&#45;&gt;Node26</title>
<g id="a_edge25_Node000020_Node000026"><a xlink:title=" ">
<path fill="none" stroke="#63b8ff" d="M473.53,-280.55C487.77,-278.75 503.4,-276.79 517.78,-274.98"/>
<polygon fill="#63b8ff" stroke="#63b8ff" points="473.43,-277.03 463.95,-281.75 474.31,-283.98 473.43,-277.03"/>
</a>
</g>
</g>
<!-- Node27 -->
<g id="Node000027" class="node">
<title>Node27</title>
<g id="a_Node000027"><a xlink:href="classdBgS__LinkLinChk.html" target="_top" xlink:title=" ">
<polygon fill="white" stroke="#666666" points="616.62,-241.25 521.88,-241.25 521.88,-222 616.62,-222 616.62,-241.25"/>
<text text-anchor="middle" x="569.25" y="-227.75" font-family="Helvetica,sans-Serif" font-size="10.00">dBgS_LinkLinChk</text>
</a>
</g>
</g>
<!-- Node20&#45;&gt;Node27 -->
<g id="edge26_Node000020_Node000027" class="edge">
<title>Node20&#45;&gt;Node27</title>
<g id="a_edge26_Node000020_Node000027"><a xlink:title=" ">
<path fill="none" stroke="#63b8ff" d="M455.57,-271.56C470.66,-264.39 489.31,-256.01 506.5,-249.62 514.14,-246.79 522.45,-244.11 530.42,-241.72"/>
<polygon fill="#63b8ff" stroke="#63b8ff" points="454.13,-268.37 446.64,-275.87 457.17,-274.68 454.13,-268.37"/>
</a>
</g>
</g>
<!-- Node28 -->
<g id="Node000028" class="node">
<title>Node28</title>
<g id="a_Node000028"><a xlink:href="classdBgS__ObjLinChk.html" target="_top" xlink:title=" ">
<polygon fill="white" stroke="#666666" points="614.75,-204.25 523.75,-204.25 523.75,-185 614.75,-185 614.75,-204.25"/>
<text text-anchor="middle" x="569.25" y="-190.75" font-family="Helvetica,sans-Serif" font-size="10.00">dBgS_ObjLinChk</text>
</a>
</g>
</g>
<!-- Node20&#45;&gt;Node28 -->
<g id="edge27_Node000020_Node000028" class="edge">
<title>Node20&#45;&gt;Node28</title>
<g id="a_edge27_Node000020_Node000028"><a xlink:title=" ">
<path fill="none" stroke="#63b8ff" d="M440.85,-268.27C456.02,-251.51 480.53,-227.19 506.5,-212.62 512.05,-209.51 518.19,-206.89 524.38,-204.7"/>
<polygon fill="#63b8ff" stroke="#63b8ff" points="438.41,-265.74 434.43,-275.56 443.66,-270.36 438.41,-265.74"/>
</a>
</g>
</g>
<!-- Node29 -->
<g id="Node000029" class="node">
<title>Node29</title>
<g id="a_Node000029"><a xlink:href="classdBgS__RopeLinChk.html" target="_top" xlink:title=" ">
<polygon fill="white" stroke="#666666" points="618.5,-167.25 520,-167.25 520,-148 618.5,-148 618.5,-167.25"/>
<text text-anchor="middle" x="569.25" y="-153.75" font-family="Helvetica,sans-Serif" font-size="10.00">dBgS_RopeLinChk</text>
</a>
</g>
</g>
<!-- Node20&#45;&gt;Node29 -->
<g id="edge28_Node000020_Node000029" class="edge">
<title>Node20&#45;&gt;Node29</title>
<g id="a_edge28_Node000020_Node000029"><a xlink:title=" ">
<path fill="none" stroke="#63b8ff" d="M434.76,-266.48C447.58,-241.48 472.75,-199.28 506.5,-175.62 510.98,-172.48 516.01,-169.89 521.21,-167.74"/>
<polygon fill="#63b8ff" stroke="#63b8ff" points="431.71,-264.75 430.42,-275.27 437.99,-267.85 431.71,-264.75"/>
</a>
</g>
</g>
<!-- Node25 -->
<g id="Node000025" class="node">
<title>Node25</title>
<g id="a_Node000025"><a xlink:href="classdBgS__CamLinChk__NorWtr.html" target="_top" xlink:title=" ">
<polygon fill="white" stroke="#666666" points="800.25,-315.25 668,-315.25 668,-296 800.25,-296 800.25,-315.25"/>
<text text-anchor="middle" x="734.12" y="-301.75" font-family="Helvetica,sans-Serif" font-size="10.00">dBgS_CamLinChk_NorWtr</text>
</a>
</g>
</g>
<!-- Node24&#45;&gt;Node25 -->
<g id="edge24_Node000024_Node000025" class="edge">
<title>Node24&#45;&gt;Node25</title>
<g id="a_edge24_Node000024_Node000025"><a xlink:title=" ">
<path fill="none" stroke="#63b8ff" d="M629.05,-305.62C641.58,-305.62 654.9,-305.62 667.66,-305.62"/>
<polygon fill="#63b8ff" stroke="#63b8ff" points="629.31,-302.13 619.31,-305.63 629.31,-309.13 629.31,-302.13"/>
</a>
</g>
</g>
<!-- Node31 -->
<g id="Node000031" class="node">
<title>Node31</title>
<g id="a_Node000031"><a xlink:href="classdBgS__LinkRoofChk.html" target="_top" xlink:title=" ">
<polygon fill="white" stroke="#666666" points="620,-130.25 518.5,-130.25 518.5,-111 620,-111 620,-130.25"/>
<text text-anchor="middle" x="569.25" y="-116.75" font-family="Helvetica,sans-Serif" font-size="10.00">dBgS_LinkRoofChk</text>
</a>
</g>
</g>
<!-- Node30&#45;&gt;Node31 -->
<g id="edge30_Node000030_Node000031" class="edge">
<title>Node30&#45;&gt;Node31</title>
<g id="a_edge30_Node000030_Node000031"><a xlink:title=" ">
<path fill="none" stroke="#63b8ff" d="M477.26,-120.62C490.59,-120.62 504.9,-120.62 518.13,-120.62"/>
<polygon fill="#63b8ff" stroke="#63b8ff" points="477.36,-117.13 467.36,-120.63 477.36,-124.13 477.36,-117.13"/>
</a>
</g>
</g>
<!-- Node32 -->
<g id="Node000032" class="node">
<title>Node32</title>
<g id="a_Node000032"><a xlink:href="classdBgS__ObjRoofChk.html" target="_top" xlink:title=" ">
<polygon fill="white" stroke="#666666" points="618.12,-93.25 520.38,-93.25 520.38,-74 618.12,-74 618.12,-93.25"/>
<text text-anchor="middle" x="569.25" y="-79.75" font-family="Helvetica,sans-Serif" font-size="10.00">dBgS_ObjRoofChk</text>
</a>
</g>
</g>
<!-- Node30&#45;&gt;Node32 -->
<g id="edge31_Node000030_Node000032" class="edge">
<title>Node30&#45;&gt;Node32</title>
<g id="a_edge31_Node000030_Node000032"><a xlink:title=" ">
<path fill="none" stroke="#63b8ff" d="M475.32,-107.67C493,-103.1 512.6,-98.02 529.22,-93.72"/>
<polygon fill="#63b8ff" stroke="#63b8ff" points="474.6,-104.24 465.79,-110.14 476.35,-111.02 474.6,-104.24"/>
</a>
</g>
</g>
<!-- Node34 -->
<g id="Node000034" class="node">
<title>Node34</title>
<g id="a_Node000034"><a xlink:href="classdBgS__CamSphChk.html" target="_top" xlink:title=" ">
<polygon fill="white" stroke="#666666" points="619.25,-56.25 519.25,-56.25 519.25,-37 619.25,-37 619.25,-56.25"/>
<text text-anchor="middle" x="569.25" y="-42.75" font-family="Helvetica,sans-Serif" font-size="10.00">dBgS_CamSphChk</text>
</a>
</g>
</g>
<!-- Node33&#45;&gt;Node34 -->
<g id="edge33_Node000033_Node000034" class="edge">
<title>Node33&#45;&gt;Node34</title>
<g id="a_edge33_Node000033_Node000034"><a xlink:title=" ">
<path fill="none" stroke="#63b8ff" d="M475.36,-64.81C489.51,-62.04 504.89,-59.03 518.99,-56.27"/>
<polygon fill="#63b8ff" stroke="#63b8ff" points="474.95,-61.33 465.81,-66.68 476.3,-68.2 474.95,-61.33"/>
</a>
</g>
</g>
<!-- Node36 -->
<g id="Node000036" class="node">
<title>Node36</title>
<g id="a_Node000036"><a xlink:href="classdBgS__WtrChk.html" target="_top" xlink:title=" ">
<polygon fill="white" stroke="#666666" points="608,-19.25 530.5,-19.25 530.5,0 608,0 608,-19.25"/>
<text text-anchor="middle" x="569.25" y="-5.75" font-family="Helvetica,sans-Serif" font-size="10.00">dBgS_WtrChk</text>
</a>
</g>
</g>
<!-- Node35&#45;&gt;Node36 -->
<g id="edge35_Node000035_Node000036" class="edge">
<title>Node35&#45;&gt;Node36</title>
<g id="a_edge35_Node000035_Node000036"><a xlink:title=" ">
<path fill="none" stroke="#63b8ff" d="M481.91,-20.49C498.13,-18.45 515.41,-16.28 530.23,-14.41"/>
<polygon fill="#63b8ff" stroke="#63b8ff" points="481.88,-16.97 472.39,-21.69 482.75,-23.91 481.88,-16.97"/>
</a>
</g>
</g>
</g>
</svg>

<g id="navigator" transform="translate(0 0)" fill="#404254">
  <rect fill="#f2f5e9" fill-opacity="0.5" stroke="#606060" stroke-width=".5" x="0" y="0" width="60" height="60"/>
  <use id="zoomplus" xlink:href="#zoomPlus" x="17" y="9" onmousedown="handleZoom(evt,'in')"/>
  <use id="zoomminus" xlink:href="#zoomMin" x="42" y="9" onmousedown="handleZoom(evt,'out')"/>
  <use id="reset" xlink:href="#resetDef" x="30" y="36" onmousedown="handleReset()"/>
   <use id="arrowup" xlink:href="#arrowUp" x="0" y="0" onmousedown="handlePan(0,-1)"/>
  <use id="arrowright" xlink:href="#arrowRight" x="0" y="0" onmousedown="handlePan(1,0)"/>
  <use id="arrowdown" xlink:href="#arrowDown" x="0" y="0" onmousedown="handlePan(0,1)"/>
  <use id="arrowleft" xlink:href="#arrowLeft" x="0" y="0" onmousedown="handlePan(-1,0)"/>
</g>
<svg viewBox="0 0 15 15" width="100%" height="30px" preserveAspectRatio="xMaxYMin meet">
 <g id="arrow_out" transform="scale(0.3 0.3)">
  <a xlink:href="classdBgS__Chk__inherit__graph_org.svg" target="_base">
   <rect id="button" ry="5" rx="5" y="6" x="6" height="38" width="38"
        fill="#f2f5e9" fill-opacity="0.5" stroke="#606060" stroke-width="1.0"/>
   <path id="arrow"
     d="M 11.500037,31.436501 C 11.940474,20.09759 22.043105,11.32322 32.158766,21.979434 L 37.068811,17.246167 C 37.068811,17.246167 37.088388,32 37.088388,32 L 22.160133,31.978069 C 22.160133,31.978069 26.997745,27.140456 26.997745,27.140456 C 18.528582,18.264221 13.291696,25.230495 11.500037,31.436501 z"
     style="fill:#404040;"/>
  </a>
 </g>
</svg>

<style type='text/css'>
<![CDATA[
[data-mouse-over-selected='false'] { opacity: 0.7; }
[data-mouse-over-selected='true']  { opacity: 1.0; }
]]>
</style>
<script type="application/ecmascript"><![CDATA[
document.addEventListener('DOMContentLoaded', (event) => {
  highlightEdges();
  highlightAdjacentNodes();
});
]]></script>
</svg>
