<?xml version="1.0" encoding="UTF-8" standalone="no"?>
<!DOCTYPE svg PUBLIC "-//W3C//DTD SVG 1.1//EN"
 "http://www.w3.org/Graphics/SVG/1.1/DTD/svg11.dtd">
<!-- Generated by graphviz version 9.0.0 (20230911.1827)
 -->
<!-- Title: cBgS_Chk Pages: 1 -->
<!--zoomable 582 -->

<svg id="main" version="1.1" xmlns="http://www.w3.org/2000/svg" xmlns:xlink="http://www.w3.org/1999/xlink" xml:space="preserve" onload="init(evt)">
<style type="text/css"><![CDATA[
.node, .edge {opacity: 0.7;}
.node.selected, .edge.selected {opacity: 1;}
.edge:hover path { stroke: red; }
.edge:hover polygon { stroke: red; fill: red; }
]]></style>

<defs>
  <circle id="rim" cx="0" cy="0" r="7"/>
  <circle id="rim2" cx="0" cy="0" r="3.5"/>
  <g id="zoomPlus">
    <use xlink:href="#rim" fill="#404040"><set attributeName="fill" to="#808080" begin="zoomplus.mouseover" end="zoomplus.mouseout"/></use>
    <path d="M-4,0h8M0,-4v8" fill="none" stroke="white" stroke-width="1.5" pointer-events="none"/>
  </g>
  <g id="zoomMin">
    <use xlink:href="#rim" fill="#404040"><set attributeName="fill" to="#808080" begin="zoomminus.mouseover" end="zoomminus.mouseout"/></use>
    <path d="M-4,0h8" fill="none" stroke="white" stroke-width="1.5" pointer-events="none"/>
  </g>
  <g id="arrowUp" transform="translate(30 24)">
    <use xlink:href="#rim"/>
    <path pointer-events="none" fill="none" stroke="white" stroke-width="1.5" d="M0,-3.0v7 M-2.5,-0.5L0,-3.0L2.5,-0.5"/>
  </g>
  <g id="arrowRight" transform="rotate(90) translate(36 -43)">
    <use xlink:href="#rim"/>
    <path pointer-events="none" fill="none" stroke="white" stroke-width="1.5" d="M0,-3.0v7 M-2.5,-0.5L0,-3.0L2.5,-0.5"/>
  </g>
  <g id="arrowDown" transform="rotate(180) translate(-30 -48)">
    <use xlink:href="#rim"/>
    <path pointer-events="none" fill="none" stroke="white" stroke-width="1.5" d="M0,-3.0v7 M-2.5,-0.5L0,-3.0L2.5,-0.5"/>
  </g>
  <g id="arrowLeft" transform="rotate(270) translate(-36 17)">
    <use xlink:href="#rim"/>
    <path pointer-events="none" fill="none" stroke="white" stroke-width="1.5" d="M0,-3.0v7 M-2.5,-0.5L0,-3.0L2.5,-0.5"/>
  </g>
  <g id="resetDef">
    <use xlink:href="#rim2" fill="#404040"><set attributeName="fill" to="#808080" begin="reset.mouseover" end="reset.mouseout"/></use>
  </g>
</defs>
<script type="application/ecmascript">
var viewWidth = 666;
var viewHeight = 582;
var sectionId = 'dynsection-0';
</script>
<script type="application/ecmascript" xlink:href="svg.min.js"/>
<svg id="graph" class="graph">
<g id="viewport">
<title>cBgS_Chk</title>
<!-- Node1 -->
<g id="Node000001" class="node">
<title>Node1</title>
<g id="a_Node000001"><a xlink:title=" ">
<polygon fill="#999999" stroke="#666666" points="62.5,-203.25 0,-203.25 0,-184 62.5,-184 62.5,-203.25"/>
<text text-anchor="middle" x="31.25" y="-189.75" font-family="Helvetica,sans-Serif" font-size="10.00">cBgS_Chk</text>
</a>
</g>
</g>
<!-- Node2 -->
<g id="Node000002" class="node">
<title>Node2</title>
<g id="a_Node000002"><a xlink:href="structcBgS__GndChk.html" target="_top" xlink:title=" ">
<polygon fill="white" stroke="#666666" points="185,-447.25 104.5,-447.25 104.5,-428 185,-428 185,-447.25"/>
<text text-anchor="middle" x="144.75" y="-433.75" font-family="Helvetica,sans-Serif" font-size="10.00">cBgS_GndChk</text>
</a>
</g>
</g>
<!-- Node1&#45;&gt;Node2 -->
<g id="edge1_Node000001_Node000002" class="edge">
<title>Node1&#45;&gt;Node2</title>
<g id="a_edge1_Node000001_Node000002"><a xlink:title=" ">
<path fill="none" stroke="#63b8ff" d="M40.59,-214.08C52.79,-243.74 76.46,-300.32 98.5,-347.62 112.24,-377.11 129.9,-411.26 138.53,-427.73"/>
<polygon fill="#63b8ff" stroke="#63b8ff" points="43.84,-212.77 36.81,-204.84 37.36,-215.43 43.84,-212.77"/>
</a>
</g>
</g>
<!-- Node11 -->
<g id="Node000011" class="node">
<title>Node11</title>
<g id="a_Node000011"><a xlink:href="structcBgS__LinChk.html" target="_top" xlink:title=" ">
<polygon fill="white" stroke="#666666" points="182.75,-338.25 106.75,-338.25 106.75,-319 182.75,-319 182.75,-338.25"/>
<text text-anchor="middle" x="144.75" y="-324.75" font-family="Helvetica,sans-Serif" font-size="10.00">cBgS_LinChk</text>
</a>
</g>
</g>
<!-- Node1&#45;&gt;Node11 -->
<g id="edge10_Node000001_Node000011" class="edge">
<title>Node1&#45;&gt;Node11</title>
<g id="a_edge10_Node000001_Node000011"><a xlink:title=" ">
<path fill="none" stroke="#63b8ff" d="M42.18,-213.73C53.68,-235.73 74.21,-271.25 98.5,-296.62 106.75,-305.24 117.62,-313.02 126.64,-318.75"/>
<polygon fill="#63b8ff" stroke="#63b8ff" points="45.35,-212.25 37.69,-204.93 39.11,-215.43 45.35,-212.25"/>
</a>
</g>
</g>
<!-- Node22 -->
<g id="Node000022" class="node">
<title>Node22</title>
<g id="a_Node000022"><a xlink:href="classcBgS__ShdwDraw.html" target="_top" xlink:title=" ">
<polygon fill="white" stroke="#666666" points="191,-287.25 98.5,-287.25 98.5,-268 191,-268 191,-287.25"/>
<text text-anchor="middle" x="144.75" y="-273.75" font-family="Helvetica,sans-Serif" font-size="10.00">cBgS_ShdwDraw</text>
</a>
</g>
</g>
<!-- Node1&#45;&gt;Node22 -->
<g id="edge21_Node000001_Node000022" class="edge">
<title>Node1&#45;&gt;Node22</title>
<g id="a_edge21_Node000001_Node000022"><a xlink:title=" ">
<path fill="none" stroke="#63b8ff" d="M54.41,-210.32C77.15,-227.45 111.77,-253.53 130.54,-267.67"/>
<polygon fill="#63b8ff" stroke="#63b8ff" points="56.78,-207.72 46.69,-204.5 52.57,-213.31 56.78,-207.72"/>
</a>
</g>
</g>
<!-- Node24 -->
<g id="Node000024" class="node">
<title>Node24</title>
<g id="a_Node000024"><a xlink:href="structdBgS__Acch.html" target="_top" xlink:title=" ">
<polygon fill="white" stroke="#666666" points="178.62,-222.25 110.88,-222.25 110.88,-203 178.62,-203 178.62,-222.25"/>
<text text-anchor="middle" x="144.75" y="-208.75" font-family="Helvetica,sans-Serif" font-size="10.00">dBgS_Acch</text>
</a>
</g>
</g>
<!-- Node1&#45;&gt;Node24 -->
<g id="edge23_Node000001_Node000024" class="edge">
<title>Node1&#45;&gt;Node24</title>
<g id="a_edge23_Node000001_Node000024"><a xlink:title=" ">
<path fill="none" stroke="#63b8ff" d="M73.94,-200.73C86.04,-202.79 99.08,-205.01 110.58,-206.97"/>
<polygon fill="#63b8ff" stroke="#63b8ff" points="74.66,-197.3 64.21,-199.07 73.48,-204.2 74.66,-197.3"/>
</a>
</g>
</g>
<!-- Node29 -->
<g id="Node000029" class="node">
<title>Node29</title>
<g id="a_Node000029"><a xlink:href="structdBgS__CaptPoly.html" target="_top" xlink:title=" ">
<polygon fill="white" stroke="#666666" points="186.88,-185.25 102.62,-185.25 102.62,-166 186.88,-166 186.88,-185.25"/>
<text text-anchor="middle" x="144.75" y="-171.75" font-family="Helvetica,sans-Serif" font-size="10.00">dBgS_CaptPoly</text>
</a>
</g>
</g>
<!-- Node1&#45;&gt;Node29 -->
<g id="edge28_Node000001_Node000029" class="edge">
<title>Node1&#45;&gt;Node29</title>
<g id="a_edge28_Node000001_Node000029"><a xlink:title=" ">
<path fill="none" stroke="#63b8ff" d="M73.78,-186.92C83.15,-185.41 93.09,-183.8 102.45,-182.29"/>
<polygon fill="#63b8ff" stroke="#63b8ff" points="73.53,-183.42 64.21,-188.47 74.64,-190.33 73.53,-183.42"/>
</a>
</g>
</g>
<!-- Node30 -->
<g id="Node000030" class="node">
<title>Node30</title>
<g id="a_Node000030"><a xlink:href="classdBgS__RoofChk.html" target="_top" xlink:title=" ">
<polygon fill="white" stroke="#666666" points="186.12,-130.25 103.38,-130.25 103.38,-111 186.12,-111 186.12,-130.25"/>
<text text-anchor="middle" x="144.75" y="-116.75" font-family="Helvetica,sans-Serif" font-size="10.00">dBgS_RoofChk</text>
</a>
</g>
</g>
<!-- Node1&#45;&gt;Node30 -->
<g id="edge29_Node000001_Node000030" class="edge">
<title>Node1&#45;&gt;Node30</title>
<g id="a_edge29_Node000001_Node000030"><a xlink:title=" ">
<path fill="none" stroke="#63b8ff" d="M56.9,-177.48C78.82,-163.13 110.17,-142.61 128.59,-130.55"/>
<polygon fill="#63b8ff" stroke="#63b8ff" points="55,-174.55 48.55,-182.95 58.84,-180.4 55,-174.55"/>
</a>
</g>
</g>
<!-- Node33 -->
<g id="Node000033" class="node">
<title>Node33</title>
<g id="a_Node000033"><a xlink:href="classdBgS__SphChk.html" target="_top" xlink:title=" ">
<polygon fill="white" stroke="#666666" points="184.62,-75.25 104.88,-75.25 104.88,-56 184.62,-56 184.62,-75.25"/>
<text text-anchor="middle" x="144.75" y="-61.75" font-family="Helvetica,sans-Serif" font-size="10.00">dBgS_SphChk</text>
</a>
</g>
</g>
<!-- Node1&#45;&gt;Node33 -->
<g id="edge32_Node000001_Node000033" class="edge">
<title>Node1&#45;&gt;Node33</title>
<g id="a_edge32_Node000001_Node000033"><a xlink:title=" ">
<path fill="none" stroke="#63b8ff" d="M44.17,-173.94C56.46,-154.46 76.84,-124.34 98.5,-101.62 107.78,-91.89 119.74,-82.48 129.04,-75.73"/>
<polygon fill="#63b8ff" stroke="#63b8ff" points="41.3,-171.92 39.01,-182.26 47.25,-175.61 41.3,-171.92"/>
</a>
</g>
</g>
<!-- Node35 -->
<g id="Node000035" class="node">
<title>Node35</title>
<g id="a_Node000035"><a xlink:href="classdBgS__SplGrpChk.html" target="_top" xlink:title=" ">
<polygon fill="white" stroke="#666666" points="191,-29.25 98.5,-29.25 98.5,-10 191,-10 191,-29.25"/>
<text text-anchor="middle" x="144.75" y="-15.75" font-family="Helvetica,sans-Serif" font-size="10.00">dBgS_SplGrpChk</text>
</a>
</g>
</g>
<!-- Node1&#45;&gt;Node35 -->
<g id="edge34_Node000001_Node000035" class="edge">
<title>Node1&#45;&gt;Node35</title>
<g id="a_edge34_Node000001_Node000035"><a xlink:title=" ">
<path fill="none" stroke="#63b8ff" d="M37.41,-172.48C45.8,-141.74 64.94,-84.27 98.5,-46.62 104.71,-39.66 113.15,-33.96 121.07,-29.62"/>
<polygon fill="#63b8ff" stroke="#63b8ff" points="34.04,-171.52 34.92,-182.08 40.82,-173.28 34.04,-171.52"/>
</a>
</g>
</g>
<!-- Node3 -->
<g id="Node000003" class="node">
<title>Node3</title>
<g id="a_Node000003"><a xlink:href="structdBgS__GndChk.html" target="_top" xlink:title=" ">
<polygon fill="white" stroke="#666666" points="318,-519.25 237.5,-519.25 237.5,-500 318,-500 318,-519.25"/>
<text text-anchor="middle" x="277.75" y="-505.75" font-family="Helvetica,sans-Serif" font-size="10.00">dBgS_GndChk</text>
</a>
</g>
</g>
<!-- Node2&#45;&gt;Node3 -->
<g id="edge2_Node000002_Node000003" class="edge">
<title>Node2&#45;&gt;Node3</title>
<g id="a_edge2_Node000002_Node000003"><a xlink:title=" ">
<path fill="none" stroke="#63b8ff" d="M173.85,-453.07C199.54,-467.19 236.76,-487.65 258.69,-499.7"/>
<polygon fill="#63b8ff" stroke="#63b8ff" points="175.74,-450.11 165.29,-448.37 172.37,-456.25 175.74,-450.11"/>
</a>
</g>
</g>
<!-- Node4 -->
<g id="Node000004" class="node">
<title>Node4</title>
<g id="a_Node000004"><a xlink:href="classdBgS__CamGndChk.html" target="_top" xlink:title=" ">
<polygon fill="white" stroke="#666666" points="477.62,-574.25 376.88,-574.25 376.88,-555 477.62,-555 477.62,-574.25"/>
<text text-anchor="middle" x="427.25" y="-560.75" font-family="Helvetica,sans-Serif" font-size="10.00">dBgS_CamGndChk</text>
</a>
</g>
</g>
<!-- Node3&#45;&gt;Node4 -->
<g id="edge3_Node000003_Node000004" class="edge">
<title>Node3&#45;&gt;Node4</title>
<g id="a_edge3_Node000003_Node000004"><a xlink:title=" ">
<path fill="none" stroke="#63b8ff" d="M310.37,-524.38C326.39,-531.57 346.28,-540.07 364.5,-546.62 372.28,-549.42 380.71,-552.11 388.79,-554.51"/>
<polygon fill="#63b8ff" stroke="#63b8ff" points="311.88,-521.22 301.33,-520.27 308.99,-527.6 311.88,-521.22"/>
</a>
</g>
</g>
<!-- Node6 -->
<g id="Node000006" class="node">
<title>Node6</title>
<g id="a_Node000006"><a xlink:href="classdBgS__LinkGndChk.html" target="_top" xlink:title=" ">
<polygon fill="white" stroke="#666666" points="476.88,-537.25 377.62,-537.25 377.62,-518 476.88,-518 476.88,-537.25"/>
<text text-anchor="middle" x="427.25" y="-523.75" font-family="Helvetica,sans-Serif" font-size="10.00">dBgS_LinkGndChk</text>
</a>
</g>
</g>
<!-- Node3&#45;&gt;Node6 -->
<g id="edge5_Node000003_Node000006" class="edge">
<title>Node3&#45;&gt;Node6</title>
<g id="a_edge5_Node000003_Node000006"><a xlink:title=" ">
<path fill="none" stroke="#63b8ff" d="M329.29,-515.79C344.85,-517.69 361.94,-519.78 377.39,-521.66"/>
<polygon fill="#63b8ff" stroke="#63b8ff" points="330.13,-512.37 319.78,-514.63 329.28,-519.32 330.13,-512.37"/>
</a>
</g>
</g>
<!-- Node7 -->
<g id="Node000007" class="node">
<title>Node7</title>
<g id="a_Node000007"><a xlink:href="structdBgS__ObjGndChk.html" target="_top" xlink:title=" ">
<polygon fill="white" stroke="#666666" points="475,-500.25 379.5,-500.25 379.5,-481 475,-481 475,-500.25"/>
<text text-anchor="middle" x="427.25" y="-486.75" font-family="Helvetica,sans-Serif" font-size="10.00">dBgS_ObjGndChk</text>
</a>
</g>
</g>
<!-- Node3&#45;&gt;Node7 -->
<g id="edge6_Node000003_Node000007" class="edge">
<title>Node3&#45;&gt;Node7</title>
<g id="a_edge6_Node000003_Node000007"><a xlink:title=" ">
<path fill="none" stroke="#63b8ff" d="M329.61,-503.07C345.63,-501.01 363.25,-498.74 379,-496.71"/>
<polygon fill="#63b8ff" stroke="#63b8ff" points="329.25,-499.59 319.78,-504.34 330.14,-506.53 329.25,-499.59"/>
</a>
</g>
</g>
<!-- Node5 -->
<g id="Node000005" class="node">
<title>Node5</title>
<g id="a_Node000005"><a xlink:href="classdBgS__CamGndChk__Wtr.html" target="_top" xlink:title=" ">
<polygon fill="white" stroke="#666666" points="652.62,-574.25 531.62,-574.25 531.62,-555 652.62,-555 652.62,-574.25"/>
<text text-anchor="middle" x="592.12" y="-560.75" font-family="Helvetica,sans-Serif" font-size="10.00">dBgS_CamGndChk_Wtr</text>
</a>
</g>
</g>
<!-- Node4&#45;&gt;Node5 -->
<g id="edge4_Node000004_Node000005" class="edge">
<title>Node4&#45;&gt;Node5</title>
<g id="a_edge4_Node000004_Node000005"><a xlink:title=" ">
<path fill="none" stroke="#63b8ff" d="M489.32,-564.62C503.08,-564.62 517.66,-564.62 531.36,-564.62"/>
<polygon fill="#63b8ff" stroke="#63b8ff" points="489.52,-561.13 479.52,-564.63 489.52,-568.13 489.52,-561.13"/>
</a>
</g>
</g>
<!-- Node8 -->
<g id="Node000008" class="node">
<title>Node8</title>
<g id="a_Node000008"><a xlink:href="classdBgS__ObjGndChk__All.html" target="_top" xlink:title=" ">
<polygon fill="white" stroke="#666666" points="648.12,-537.25 536.12,-537.25 536.12,-518 648.12,-518 648.12,-537.25"/>
<text text-anchor="middle" x="592.12" y="-523.75" font-family="Helvetica,sans-Serif" font-size="10.00">dBgS_ObjGndChk_All</text>
</a>
</g>
</g>
<!-- Node7&#45;&gt;Node8 -->
<g id="edge7_Node000007_Node000008" class="edge">
<title>Node7&#45;&gt;Node8</title>
<g id="a_edge7_Node000007_Node000008"><a xlink:title=" ">
<path fill="none" stroke="#63b8ff" d="M483.86,-503.26C504.35,-507.91 527.29,-513.12 546.67,-517.53"/>
<polygon fill="#63b8ff" stroke="#63b8ff" points="484.76,-499.87 474.23,-501.07 483.21,-506.7 484.76,-499.87"/>
</a>
</g>
</g>
<!-- Node9 -->
<g id="Node000009" class="node">
<title>Node9</title>
<g id="a_Node000009"><a xlink:href="structdBgS__ObjGndChk__Spl.html" target="_top" xlink:title=" ">
<polygon fill="white" stroke="#666666" points="649.62,-500.25 534.62,-500.25 534.62,-481 649.62,-481 649.62,-500.25"/>
<text text-anchor="middle" x="592.12" y="-486.75" font-family="Helvetica,sans-Serif" font-size="10.00">dBgS_ObjGndChk_Spl</text>
</a>
</g>
</g>
<!-- Node7&#45;&gt;Node9 -->
<g id="edge8_Node000007_Node000009" class="edge">
<title>Node7&#45;&gt;Node9</title>
<g id="a_edge8_Node000007_Node000009"><a xlink:title=" ">
<path fill="none" stroke="#63b8ff" d="M486.44,-490.62C502.01,-490.62 518.82,-490.62 534.31,-490.62"/>
<polygon fill="#63b8ff" stroke="#63b8ff" points="486.87,-487.13 476.87,-490.63 486.87,-494.13 486.87,-487.13"/>
</a>
</g>
</g>
<!-- Node10 -->
<g id="Node000010" class="node">
<title>Node10</title>
<g id="a_Node000010"><a xlink:href="classdBgS__ObjGndChk__Wtr.html" target="_top" xlink:title=" ">
<polygon fill="white" stroke="#666666" points="650,-463.25 534.25,-463.25 534.25,-444 650,-444 650,-463.25"/>
<text text-anchor="middle" x="592.12" y="-449.75" font-family="Helvetica,sans-Serif" font-size="10.00">dBgS_ObjGndChk_Wtr</text>
</a>
</g>
</g>
<!-- Node7&#45;&gt;Node10 -->
<g id="edge9_Node000007_Node000010" class="edge">
<title>Node7&#45;&gt;Node10</title>
<g id="a_edge9_Node000007_Node000010"><a xlink:title=" ">
<path fill="none" stroke="#63b8ff" d="M483.86,-477.99C504.35,-473.34 527.29,-468.13 546.67,-463.72"/>
<polygon fill="#63b8ff" stroke="#63b8ff" points="483.21,-474.55 474.23,-480.18 484.76,-481.38 483.21,-474.55"/>
</a>
</g>
</g>
<!-- Node12 -->
<g id="Node000012" class="node">
<title>Node12</title>
<g id="a_Node000012"><a xlink:href="structdBgS__LinChk.html" target="_top" xlink:title=" ">
<polygon fill="white" stroke="#666666" points="315.75,-352.25 239.75,-352.25 239.75,-333 315.75,-333 315.75,-352.25"/>
<text text-anchor="middle" x="277.75" y="-338.75" font-family="Helvetica,sans-Serif" font-size="10.00">dBgS_LinChk</text>
</a>
</g>
</g>
<!-- Node11&#45;&gt;Node12 -->
<g id="edge11_Node000011_Node000012" class="edge">
<title>Node11&#45;&gt;Node12</title>
<g id="a_edge11_Node000011_Node000012"><a xlink:title=" ">
<path fill="none" stroke="#63b8ff" d="M194.09,-333.79C209.08,-335.39 225.35,-337.13 239.47,-338.64"/>
<polygon fill="#63b8ff" stroke="#63b8ff" points="194.76,-330.34 184.44,-332.76 194.02,-337.3 194.76,-330.34"/>
</a>
</g>
</g>
<!-- Node13 -->
<g id="Node000013" class="node">
<title>Node13</title>
<g id="a_Node000013"><a xlink:href="classdBgS__ArrowLinChk.html" target="_top" xlink:title=" ">
<polygon fill="white" stroke="#666666" points="478,-463.25 376.5,-463.25 376.5,-444 478,-444 478,-463.25"/>
<text text-anchor="middle" x="427.25" y="-449.75" font-family="Helvetica,sans-Serif" font-size="10.00">dBgS_ArrowLinChk</text>
</a>
</g>
</g>
<!-- Node12&#45;&gt;Node13 -->
<g id="edge12_Node000012_Node000013" class="edge">
<title>Node12&#45;&gt;Node13</title>
<g id="a_edge12_Node000012_Node000013"><a xlink:title=" ">
<path fill="none" stroke="#63b8ff" d="M291.64,-361.96C306.7,-383.08 333.54,-416.44 364.5,-435.62 369.53,-438.74 375.13,-441.34 380.83,-443.5"/>
<polygon fill="#63b8ff" stroke="#63b8ff" points="294.66,-360.17 286.09,-353.94 288.9,-364.15 294.66,-360.17"/>
</a>
</g>
</g>
<!-- Node14 -->
<g id="Node000014" class="node">
<title>Node14</title>
<g id="a_Node000014"><a xlink:href="classdBgS__BombLinChk.html" target="_top" xlink:title=" ">
<polygon fill="white" stroke="#666666" points="478,-426.25 376.5,-426.25 376.5,-407 478,-407 478,-426.25"/>
<text text-anchor="middle" x="427.25" y="-412.75" font-family="Helvetica,sans-Serif" font-size="10.00">dBgS_BombLinChk</text>
</a>
</g>
</g>
<!-- Node12&#45;&gt;Node14 -->
<g id="edge13_Node000012_Node000014" class="edge">
<title>Node12&#45;&gt;Node14</title>
<g id="a_edge13_Node000012_Node000014"><a xlink:title=" ">
<path fill="none" stroke="#63b8ff" d="M300.35,-359.31C317.09,-371.59 341.27,-387.94 364.5,-398.62 371.09,-401.66 378.32,-404.31 385.43,-406.58"/>
<polygon fill="#63b8ff" stroke="#63b8ff" points="302.73,-356.73 292.63,-353.54 298.53,-362.33 302.73,-356.73"/>
</a>
</g>
</g>
<!-- Node15 -->
<g id="Node000015" class="node">
<title>Node15</title>
<g id="a_Node000015"><a xlink:href="classdBgS__BoomerangLinChk.html" target="_top" xlink:title=" ">
<polygon fill="white" stroke="#666666" points="490,-389.25 364.5,-389.25 364.5,-370 490,-370 490,-389.25"/>
<text text-anchor="middle" x="427.25" y="-375.75" font-family="Helvetica,sans-Serif" font-size="10.00">dBgS_BoomerangLinChk</text>
</a>
</g>
</g>
<!-- Node12&#45;&gt;Node15 -->
<g id="edge14_Node000012_Node000015" class="edge">
<title>Node12&#45;&gt;Node15</title>
<g id="a_edge14_Node000012_Node000015"><a xlink:title=" ">
<path fill="none" stroke="#63b8ff" d="M327.13,-354.76C346.17,-359.54 367.77,-364.95 385.93,-369.51"/>
<polygon fill="#63b8ff" stroke="#63b8ff" points="327.99,-351.37 317.44,-352.33 326.29,-358.16 327.99,-351.37"/>
</a>
</g>
</g>
<!-- Node16 -->
<g id="Node000016" class="node">
<title>Node16</title>
<g id="a_Node000016"><a xlink:href="classdBgS__CamLinChk.html" target="_top" xlink:title=" ">
<polygon fill="white" stroke="#666666" points="475.38,-352.25 379.12,-352.25 379.12,-333 475.38,-333 475.38,-352.25"/>
<text text-anchor="middle" x="427.25" y="-338.75" font-family="Helvetica,sans-Serif" font-size="10.00">dBgS_CamLinChk</text>
</a>
</g>
</g>
<!-- Node12&#45;&gt;Node16 -->
<g id="edge15_Node000012_Node000016" class="edge">
<title>Node12&#45;&gt;Node16</title>
<g id="a_edge15_Node000012_Node000016"><a xlink:title=" ">
<path fill="none" stroke="#63b8ff" d="M327.08,-342.62C343.66,-342.62 362.19,-342.62 378.7,-342.62"/>
<polygon fill="#63b8ff" stroke="#63b8ff" points="327.48,-339.13 317.48,-342.63 327.48,-346.13 327.48,-339.13"/>
</a>
</g>
</g>
<!-- Node18 -->
<g id="Node000018" class="node">
<title>Node18</title>
<g id="a_Node000018"><a xlink:href="classdBgS__HorseLinChk.html" target="_top" xlink:title=" ">
<polygon fill="white" stroke="#666666" points="478.38,-315.25 376.12,-315.25 376.12,-296 478.38,-296 478.38,-315.25"/>
<text text-anchor="middle" x="427.25" y="-301.75" font-family="Helvetica,sans-Serif" font-size="10.00">dBgS_HorseLinChk</text>
</a>
</g>
</g>
<!-- Node12&#45;&gt;Node18 -->
<g id="edge17_Node000012_Node000018" class="edge">
<title>Node12&#45;&gt;Node18</title>
<g id="a_edge17_Node000012_Node000018"><a xlink:title=" ">
<path fill="none" stroke="#63b8ff" d="M327.13,-330.49C346.17,-325.71 367.77,-320.3 385.93,-315.74"/>
<polygon fill="#63b8ff" stroke="#63b8ff" points="326.29,-327.09 317.44,-332.92 327.99,-333.88 326.29,-327.09"/>
</a>
</g>
</g>
<!-- Node19 -->
<g id="Node000019" class="node">
<title>Node19</title>
<g id="a_Node000019"><a xlink:href="classdBgS__LinkLinChk.html" target="_top" xlink:title=" ">
<polygon fill="white" stroke="#666666" points="474.62,-278.25 379.88,-278.25 379.88,-259 474.62,-259 474.62,-278.25"/>
<text text-anchor="middle" x="427.25" y="-264.75" font-family="Helvetica,sans-Serif" font-size="10.00">dBgS_LinkLinChk</text>
</a>
</g>
</g>
<!-- Node12&#45;&gt;Node19 -->
<g id="edge18_Node000012_Node000019" class="edge">
<title>Node12&#45;&gt;Node19</title>
<g id="a_edge18_Node000012_Node000019"><a xlink:title=" ">
<path fill="none" stroke="#63b8ff" d="M323.48,-327.64C325.21,-326.68 326.89,-325.68 328.5,-324.62 347.96,-311.88 344.64,-298.75 364.5,-286.62 369.65,-283.48 375.37,-280.87 381.2,-278.69"/>
<polygon fill="#63b8ff" stroke="#63b8ff" points="322.09,-324.42 314.58,-331.89 325.11,-330.74 322.09,-324.42"/>
</a>
</g>
</g>
<!-- Node20 -->
<g id="Node000020" class="node">
<title>Node20</title>
<g id="a_Node000020"><a xlink:href="classdBgS__ObjLinChk.html" target="_top" xlink:title=" ">
<polygon fill="white" stroke="#666666" points="472.75,-241.25 381.75,-241.25 381.75,-222 472.75,-222 472.75,-241.25"/>
<text text-anchor="middle" x="427.25" y="-227.75" font-family="Helvetica,sans-Serif" font-size="10.00">dBgS_ObjLinChk</text>
</a>
</g>
</g>
<!-- Node12&#45;&gt;Node20 -->
<g id="edge19_Node000012_Node000020" class="edge">
<title>Node12&#45;&gt;Node20</title>
<g id="a_edge19_Node000012_Node000020"><a xlink:title=" ">
<path fill="none" stroke="#63b8ff" d="M325.68,-326.97C326.65,-326.22 327.6,-325.44 328.5,-324.62 355.92,-299.82 336.3,-273.54 364.5,-249.62 369.44,-245.44 375.31,-242.22 381.44,-239.75"/>
<polygon fill="#63b8ff" stroke="#63b8ff" points="324.17,-323.79 317.47,-331.99 327.82,-329.76 324.17,-323.79"/>
</a>
</g>
</g>
<!-- Node21 -->
<g id="Node000021" class="node">
<title>Node21</title>
<g id="a_Node000021"><a xlink:href="classdBgS__RopeLinChk.html" target="_top" xlink:title=" ">
<polygon fill="white" stroke="#666666" points="476.5,-204.25 378,-204.25 378,-185 476.5,-185 476.5,-204.25"/>
<text text-anchor="middle" x="427.25" y="-190.75" font-family="Helvetica,sans-Serif" font-size="10.00">dBgS_RopeLinChk</text>
</a>
</g>
</g>
<!-- Node12&#45;&gt;Node21 -->
<g id="edge20_Node000012_Node000021" class="edge">
<title>Node12&#45;&gt;Node21</title>
<g id="a_edge20_Node000012_Node000021"><a xlink:title=" ">
<path fill="none" stroke="#63b8ff" d="M325.3,-327.57C326.43,-326.65 327.5,-325.67 328.5,-324.62 364.8,-286.99 327.03,-249.09 364.5,-212.62 368.26,-208.96 372.72,-206.04 377.5,-203.71"/>
<polygon fill="#63b8ff" stroke="#63b8ff" points="323.68,-324.46 317.14,-332.8 327.45,-330.36 323.68,-324.46"/>
</a>
</g>
</g>
<!-- Node17 -->
<g id="Node000017" class="node">
<title>Node17</title>
<g id="a_Node000017"><a xlink:href="classdBgS__CamLinChk__NorWtr.html" target="_top" xlink:title=" ">
<polygon fill="white" stroke="#666666" points="658.25,-352.25 526,-352.25 526,-333 658.25,-333 658.25,-352.25"/>
<text text-anchor="middle" x="592.12" y="-338.75" font-family="Helvetica,sans-Serif" font-size="10.00">dBgS_CamLinChk_NorWtr</text>
</a>
</g>
</g>
<!-- Node16&#45;&gt;Node17 -->
<g id="edge16_Node000016_Node000017" class="edge">
<title>Node16&#45;&gt;Node17</title>
<g id="a_edge16_Node000016_Node000017"><a xlink:title=" ">
<path fill="none" stroke="#63b8ff" d="M487.05,-342.62C499.58,-342.62 512.9,-342.62 525.66,-342.62"/>
<polygon fill="#63b8ff" stroke="#63b8ff" points="487.31,-339.13 477.31,-342.63 487.31,-346.13 487.31,-339.13"/>
</a>
</g>
</g>
<!-- Node23 -->
<g id="Node000023" class="node">
<title>Node23</title>
<g id="a_Node000023"><a xlink:href="classShdwDrawPoly__c.html" target="_top" xlink:title=" ">
<polygon fill="white" stroke="#666666" points="324,-315.25 231.5,-315.25 231.5,-296 324,-296 324,-315.25"/>
<text text-anchor="middle" x="277.75" y="-301.75" font-family="Helvetica,sans-Serif" font-size="10.00">ShdwDrawPoly_c</text>
</a>
</g>
</g>
<!-- Node22&#45;&gt;Node23 -->
<g id="edge22_Node000022_Node000023" class="edge">
<title>Node22&#45;&gt;Node23</title>
<g id="a_edge22_Node000022_Node000023"><a xlink:title=" ">
<path fill="none" stroke="#63b8ff" d="M202.4,-289.73C212.09,-291.8 222.04,-293.93 231.38,-295.93"/>
<polygon fill="#63b8ff" stroke="#63b8ff" points="203.19,-286.32 192.68,-287.66 201.73,-293.17 203.19,-286.32"/>
</a>
</g>
</g>
<!-- Node25 -->
<g id="Node000025" class="node">
<title>Node25</title>
<g id="a_Node000025"><a xlink:href="classdBgS__BombAcch.html" target="_top" xlink:title=" ">
<polygon fill="white" stroke="#666666" points="324.38,-278.25 231.12,-278.25 231.12,-259 324.38,-259 324.38,-278.25"/>
<text text-anchor="middle" x="277.75" y="-264.75" font-family="Helvetica,sans-Serif" font-size="10.00">dBgS_BombAcch</text>
</a>
</g>
</g>
<!-- Node24&#45;&gt;Node25 -->
<g id="edge24_Node000024_Node000025" class="edge">
<title>Node24&#45;&gt;Node25</title>
<g id="a_edge24_Node000024_Node000025"><a xlink:title=" ">
<path fill="none" stroke="#63b8ff" d="M176.21,-227.67C191.34,-234.93 209.98,-243.58 227,-250.62 233.62,-253.36 240.82,-256.11 247.64,-258.59"/>
<polygon fill="#63b8ff" stroke="#63b8ff" points="177.78,-224.54 167.25,-223.33 174.73,-230.84 177.78,-224.54"/>
</a>
</g>
</g>
<!-- Node26 -->
<g id="Node000026" class="node">
<title>Node26</title>
<g id="a_Node000026"><a xlink:href="classdBgS__LinkAcch.html" target="_top" xlink:title=" ">
<polygon fill="white" stroke="#666666" points="321,-241.25 234.5,-241.25 234.5,-222 321,-222 321,-241.25"/>
<text text-anchor="middle" x="277.75" y="-227.75" font-family="Helvetica,sans-Serif" font-size="10.00">dBgS_LinkAcch</text>
</a>
</g>
</g>
<!-- Node24&#45;&gt;Node26 -->
<g id="edge25_Node000024_Node000026" class="edge">
<title>Node24&#45;&gt;Node26</title>
<g id="a_edge25_Node000024_Node000026"><a xlink:title=" ">
<path fill="none" stroke="#63b8ff" d="M189.9,-219.03C204.23,-221.11 220.08,-223.41 234.27,-225.46"/>
<polygon fill="#63b8ff" stroke="#63b8ff" points="190.7,-215.61 180.3,-217.64 189.7,-222.54 190.7,-215.61"/>
</a>
</g>
</g>
<!-- Node27 -->
<g id="Node000027" class="node">
<title>Node27</title>
<g id="a_Node000027"><a xlink:href="structdBgS__ObjAcch.html" target="_top" xlink:title=" ">
<polygon fill="white" stroke="#666666" points="319.12,-204.25 236.38,-204.25 236.38,-185 319.12,-185 319.12,-204.25"/>
<text text-anchor="middle" x="277.75" y="-190.75" font-family="Helvetica,sans-Serif" font-size="10.00">dBgS_ObjAcch</text>
</a>
</g>
</g>
<!-- Node24&#45;&gt;Node27 -->
<g id="edge26_Node000024_Node000027" class="edge">
<title>Node24&#45;&gt;Node27</title>
<g id="a_edge26_Node000024_Node000027"><a xlink:title=" ">
<path fill="none" stroke="#63b8ff" d="M189.88,-206.56C204.86,-204.5 221.52,-202.21 236.21,-200.2"/>
<polygon fill="#63b8ff" stroke="#63b8ff" points="189.74,-203.05 180.31,-207.88 190.69,-209.98 189.74,-203.05"/>
</a>
</g>
</g>
<!-- Node28 -->
<g id="Node000028" class="node">
<title>Node28</title>
<g id="a_Node000028"><a xlink:href="classdBgS__StatueAcch.html" target="_top" xlink:title=" ">
<polygon fill="white" stroke="#666666" points="325.88,-167.25 229.62,-167.25 229.62,-148 325.88,-148 325.88,-167.25"/>
<text text-anchor="middle" x="277.75" y="-153.75" font-family="Helvetica,sans-Serif" font-size="10.00">dBgS_StatueAcch</text>
</a>
</g>
</g>
<!-- Node24&#45;&gt;Node28 -->
<g id="edge27_Node000024_Node000028" class="edge">
<title>Node24&#45;&gt;Node28</title>
<g id="a_edge27_Node000024_Node000028"><a xlink:title=" ">
<path fill="none" stroke="#63b8ff" d="M182.9,-198.22C185.65,-197.04 188.38,-195.83 191,-194.62 207.43,-187.05 210.45,-182.94 227,-175.62 233.3,-172.84 240.18,-170.14 246.76,-167.72"/>
<polygon fill="#63b8ff" stroke="#63b8ff" points="181.57,-194.98 173.67,-202.05 184.25,-201.45 181.57,-194.98"/>
</a>
</g>
</g>
<!-- Node31 -->
<g id="Node000031" class="node">
<title>Node31</title>
<g id="a_Node000031"><a xlink:href="classdBgS__LinkRoofChk.html" target="_top" xlink:title=" ">
<polygon fill="white" stroke="#666666" points="328.5,-130.25 227,-130.25 227,-111 328.5,-111 328.5,-130.25"/>
<text text-anchor="middle" x="277.75" y="-116.75" font-family="Helvetica,sans-Serif" font-size="10.00">dBgS_LinkRoofChk</text>
</a>
</g>
</g>
<!-- Node30&#45;&gt;Node31 -->
<g id="edge30_Node000030_Node000031" class="edge">
<title>Node30&#45;&gt;Node31</title>
<g id="a_edge30_Node000030_Node000031"><a xlink:title=" ">
<path fill="none" stroke="#63b8ff" d="M197.87,-120.62C207.41,-120.62 217.34,-120.62 226.82,-120.62"/>
<polygon fill="#63b8ff" stroke="#63b8ff" points="197.99,-117.13 187.99,-120.63 197.99,-124.13 197.99,-117.13"/>
</a>
</g>
</g>
<!-- Node32 -->
<g id="Node000032" class="node">
<title>Node32</title>
<g id="a_Node000032"><a xlink:href="classdBgS__ObjRoofChk.html" target="_top" xlink:title=" ">
<polygon fill="white" stroke="#666666" points="326.62,-93.25 228.88,-93.25 228.88,-74 326.62,-74 326.62,-93.25"/>
<text text-anchor="middle" x="277.75" y="-79.75" font-family="Helvetica,sans-Serif" font-size="10.00">dBgS_ObjRoofChk</text>
</a>
</g>
</g>
<!-- Node30&#45;&gt;Node32 -->
<g id="edge31_Node000030_Node000032" class="edge">
<title>Node30&#45;&gt;Node32</title>
<g id="a_edge31_Node000030_Node000032"><a xlink:title=" ">
<path fill="none" stroke="#63b8ff" d="M192.31,-107.47C208.32,-102.95 225.98,-97.96 241,-93.72"/>
<polygon fill="#63b8ff" stroke="#63b8ff" points="191.68,-104.02 183,-110.1 193.58,-110.75 191.68,-104.02"/>
</a>
</g>
</g>
<!-- Node34 -->
<g id="Node000034" class="node">
<title>Node34</title>
<g id="a_Node000034"><a xlink:href="classdBgS__CamSphChk.html" target="_top" xlink:title=" ">
<polygon fill="white" stroke="#666666" points="327.75,-56.25 227.75,-56.25 227.75,-37 327.75,-37 327.75,-56.25"/>
<text text-anchor="middle" x="277.75" y="-42.75" font-family="Helvetica,sans-Serif" font-size="10.00">dBgS_CamSphChk</text>
</a>
</g>
</g>
<!-- Node33&#45;&gt;Node34 -->
<g id="edge33_Node000033_Node000034" class="edge">
<title>Node33&#45;&gt;Node34</title>
<g id="a_edge33_Node000033_Node000034"><a xlink:title=" ">
<path fill="none" stroke="#63b8ff" d="M196.39,-58.28C206.68,-56.79 217.49,-55.22 227.72,-53.74"/>
<polygon fill="#63b8ff" stroke="#63b8ff" points="195.95,-54.81 186.55,-59.71 196.95,-61.74 195.95,-54.81"/>
</a>
</g>
</g>
<!-- Node36 -->
<g id="Node000036" class="node">
<title>Node36</title>
<g id="a_Node000036"><a xlink:href="classdBgS__WtrChk.html" target="_top" xlink:title=" ">
<polygon fill="white" stroke="#666666" points="316.5,-19.25 239,-19.25 239,0 316.5,0 316.5,-19.25"/>
<text text-anchor="middle" x="277.75" y="-5.75" font-family="Helvetica,sans-Serif" font-size="10.00">dBgS_WtrChk</text>
</a>
</g>
</g>
<!-- Node35&#45;&gt;Node36 -->
<g id="edge35_Node000035_Node000036" class="edge">
<title>Node35&#45;&gt;Node36</title>
<g id="a_edge35_Node000035_Node000036"><a xlink:title=" ">
<path fill="none" stroke="#63b8ff" d="M202.33,-15.31C214.64,-14.37 227.38,-13.39 238.77,-12.52"/>
<polygon fill="#63b8ff" stroke="#63b8ff" points="202.41,-11.79 192.71,-16.04 202.95,-18.77 202.41,-11.79"/>
</a>
</g>
</g>
</g>
</svg>

<g id="navigator" transform="translate(0 0)" fill="#404254">
  <rect fill="#f2f5e9" fill-opacity="0.5" stroke="#606060" stroke-width=".5" x="0" y="0" width="60" height="60"/>
  <use id="zoomplus" xlink:href="#zoomPlus" x="17" y="9" onmousedown="handleZoom(evt,'in')"/>
  <use id="zoomminus" xlink:href="#zoomMin" x="42" y="9" onmousedown="handleZoom(evt,'out')"/>
  <use id="reset" xlink:href="#resetDef" x="30" y="36" onmousedown="handleReset()"/>
   <use id="arrowup" xlink:href="#arrowUp" x="0" y="0" onmousedown="handlePan(0,-1)"/>
  <use id="arrowright" xlink:href="#arrowRight" x="0" y="0" onmousedown="handlePan(1,0)"/>
  <use id="arrowdown" xlink:href="#arrowDown" x="0" y="0" onmousedown="handlePan(0,1)"/>
  <use id="arrowleft" xlink:href="#arrowLeft" x="0" y="0" onmousedown="handlePan(-1,0)"/>
</g>
<svg viewBox="0 0 15 15" width="100%" height="30px" preserveAspectRatio="xMaxYMin meet">
 <g id="arrow_out" transform="scale(0.3 0.3)">
  <a xlink:href="classcBgS__Chk__inherit__graph_org.svg" target="_base">
   <rect id="button" ry="5" rx="5" y="6" x="6" height="38" width="38"
        fill="#f2f5e9" fill-opacity="0.5" stroke="#606060" stroke-width="1.0"/>
   <path id="arrow"
     d="M 11.500037,31.436501 C 11.940474,20.09759 22.043105,11.32322 32.158766,21.979434 L 37.068811,17.246167 C 37.068811,17.246167 37.088388,32 37.088388,32 L 22.160133,31.978069 C 22.160133,31.978069 26.997745,27.140456 26.997745,27.140456 C 18.528582,18.264221 13.291696,25.230495 11.500037,31.436501 z"
     style="fill:#404040;"/>
  </a>
 </g>
</svg>

<style type='text/css'>
<![CDATA[
[data-mouse-over-selected='false'] { opacity: 0.7; }
[data-mouse-over-selected='true']  { opacity: 1.0; }
]]>
</style>
<script type="application/ecmascript"><![CDATA[
document.addEventListener('DOMContentLoaded', (event) => {
  highlightEdges();
  highlightAdjacentNodes();
});
]]></script>
</svg>
