<?xml version="1.0" encoding="UTF-8" standalone="no"?>
<!DOCTYPE svg PUBLIC "-//W3C//DTD SVG 1.1//EN"
 "http://www.w3.org/Graphics/SVG/1.1/DTD/svg11.dtd">
<!-- Generated by graphviz version 9.0.0 (20230911.1827)
 -->
<!-- Title: fopEn_enemy_c Pages: 1 -->
<!--zoomable 1322 -->

<svg id="main" version="1.1" xmlns="http://www.w3.org/2000/svg" xmlns:xlink="http://www.w3.org/1999/xlink" xml:space="preserve" onload="init(evt)">
<style type="text/css"><![CDATA[
.node, .edge {opacity: 0.7;}
.node.selected, .edge.selected {opacity: 1;}
.edge:hover path { stroke: red; }
.edge:hover polygon { stroke: red; fill: red; }
]]></style>

<defs>
  <circle id="rim" cx="0" cy="0" r="7"/>
  <circle id="rim2" cx="0" cy="0" r="3.5"/>
  <g id="zoomPlus">
    <use xlink:href="#rim" fill="#404040"><set attributeName="fill" to="#808080" begin="zoomplus.mouseover" end="zoomplus.mouseout"/></use>
    <path d="M-4,0h8M0,-4v8" fill="none" stroke="white" stroke-width="1.5" pointer-events="none"/>
  </g>
  <g id="zoomMin">
    <use xlink:href="#rim" fill="#404040"><set attributeName="fill" to="#808080" begin="zoomminus.mouseover" end="zoomminus.mouseout"/></use>
    <path d="M-4,0h8" fill="none" stroke="white" stroke-width="1.5" pointer-events="none"/>
  </g>
  <g id="arrowUp" transform="translate(30 24)">
    <use xlink:href="#rim"/>
    <path pointer-events="none" fill="none" stroke="white" stroke-width="1.5" d="M0,-3.0v7 M-2.5,-0.5L0,-3.0L2.5,-0.5"/>
  </g>
  <g id="arrowRight" transform="rotate(90) translate(36 -43)">
    <use xlink:href="#rim"/>
    <path pointer-events="none" fill="none" stroke="white" stroke-width="1.5" d="M0,-3.0v7 M-2.5,-0.5L0,-3.0L2.5,-0.5"/>
  </g>
  <g id="arrowDown" transform="rotate(180) translate(-30 -48)">
    <use xlink:href="#rim"/>
    <path pointer-events="none" fill="none" stroke="white" stroke-width="1.5" d="M0,-3.0v7 M-2.5,-0.5L0,-3.0L2.5,-0.5"/>
  </g>
  <g id="arrowLeft" transform="rotate(270) translate(-36 17)">
    <use xlink:href="#rim"/>
    <path pointer-events="none" fill="none" stroke="white" stroke-width="1.5" d="M0,-3.0v7 M-2.5,-0.5L0,-3.0L2.5,-0.5"/>
  </g>
  <g id="resetDef">
    <use xlink:href="#rim2" fill="#404040"><set attributeName="fill" to="#808080" begin="reset.mouseover" end="reset.mouseout"/></use>
  </g>
</defs>
<script type="application/ecmascript">
var viewWidth = 437;
var viewHeight = 1322;
var sectionId = 'dynsection-0';
</script>
<script type="application/ecmascript" xlink:href="svg.min.js"/>
<svg id="graph" class="graph">
<g id="viewport">
<title>fopEn_enemy_c</title>
<!-- Node1 -->
<g id="Node000001" class="node">
<title>Node1</title>
<g id="a_Node000001"><a xlink:title=" ">
<polygon fill="#999999" stroke="#666666" points="306,-685.25 221,-685.25 221,-666 306,-666 306,-685.25"/>
<text text-anchor="middle" x="263.5" y="-671.75" font-family="Helvetica,sans-Serif" font-size="10.00">fopEn_enemy_c</text>
</a>
</g>
</g>
<!-- Node4 -->
<g id="Node000004" class="node">
<title>Node4</title>
<g id="a_Node000004"><a xlink:href="classb__bq__class.html" target="_top" xlink:title=" ">
<polygon fill="white" stroke="#666666" points="418,-1314.25 352.5,-1314.25 352.5,-1295 418,-1295 418,-1314.25"/>
<text text-anchor="middle" x="385.25" y="-1300.75" font-family="Helvetica,sans-Serif" font-size="10.00">b_bq_class</text>
</a>
</g>
</g>
<!-- Node1&#45;&gt;Node4 -->
<g id="edge3_Node000001_Node000004" class="edge">
<title>Node1&#45;&gt;Node4</title>
<g id="a_edge3_Node000001_Node000004"><a xlink:title=" ">
<path fill="none" stroke="#63b8ff" d="M264.45,-696.59C264.7,-792 270.35,-1182.81 342,-1277.62 348.54,-1286.28 360.05,-1290.82 369.41,-1294.52"/>
<polygon fill="#63b8ff" stroke="#63b8ff" points="267.95,-696.87 264.45,-686.87 260.95,-696.88 267.95,-696.87"/>
</a>
</g>
</g>
<!-- Node1&#45;&gt;Node4 -->
<g id="edge4_Node000001_Node000004" class="edge">
<title>Node1&#45;&gt;Node4</title>
<g id="a_edge4_Node000001_Node000004"><a xlink:title=" ">
<path fill="none" stroke="#63b8ff" d="M264.44,-696.9C264.5,-794.76 268.97,-1198.98 342,-1295.62 344.69,-1299.19 348.23,-1302.05 352.11,-1304.26"/>
<polygon fill="#63b8ff" stroke="#63b8ff" points="267.94,-696.93 264.45,-686.92 260.94,-696.92 267.94,-696.93"/>
</a>
</g>
</g>
<!-- Node5 -->
<g id="Node000005" class="node">
<title>Node5</title>
<g id="a_Node000005"><a xlink:href="classb__gnd__class.html" target="_top" xlink:title="Ganondorf.">
<polygon fill="white" stroke="#666666" points="420.62,-1277.25 349.88,-1277.25 349.88,-1258 420.62,-1258 420.62,-1277.25"/>
<text text-anchor="middle" x="385.25" y="-1263.75" font-family="Helvetica,sans-Serif" font-size="10.00">b_gnd_class</text>
</a>
</g>
</g>
<!-- Node1&#45;&gt;Node5 -->
<g id="edge5_Node000001_Node000005" class="edge">
<title>Node1&#45;&gt;Node5</title>
<g id="a_edge5_Node000001_Node000005"><a xlink:title=" ">
<path fill="none" stroke="#63b8ff" d="M264.64,-697.01C265.65,-790.22 273.97,-1160.34 342,-1249.62 344.42,-1252.8 347.5,-1255.41 350.9,-1257.58"/>
<polygon fill="#63b8ff" stroke="#63b8ff" points="268.14,-697.02 264.55,-687.05 261.14,-697.08 268.14,-697.02"/>
</a>
</g>
</g>
<!-- Node6 -->
<g id="Node000006" class="node">
<title>Node6</title>
<g id="a_Node000006"><a xlink:href="classb__go__class.html" target="_top" xlink:title="Goron Golem.">
<polygon fill="white" stroke="#666666" points="418,-1240.25 352.5,-1240.25 352.5,-1221 418,-1221 418,-1240.25"/>
<text text-anchor="middle" x="385.25" y="-1226.75" font-family="Helvetica,sans-Serif" font-size="10.00">b_go_class</text>
</a>
</g>
</g>
<!-- Node1&#45;&gt;Node6 -->
<g id="edge6_Node000001_Node000006" class="edge">
<title>Node1&#45;&gt;Node6</title>
<g id="a_edge6_Node000001_Node000006"><a xlink:title=" ">
<path fill="none" stroke="#63b8ff" d="M264.86,-697.05C266.78,-786.54 278.23,-1129.72 342,-1212.62 344.72,-1216.16 348.28,-1219.02 352.17,-1221.31"/>
<polygon fill="#63b8ff" stroke="#63b8ff" points="268.37,-697.19 264.67,-687.26 261.37,-697.32 268.37,-697.19"/>
</a>
</g>
</g>
<!-- Node7 -->
<g id="Node000007" class="node">
<title>Node7</title>
<g id="a_Node000007"><a xlink:href="classb__gos__class.html" target="_top" xlink:title="Goron Golem (small)">
<polygon fill="white" stroke="#666666" points="420.62,-1203.25 349.88,-1203.25 349.88,-1184 420.62,-1184 420.62,-1203.25"/>
<text text-anchor="middle" x="385.25" y="-1189.75" font-family="Helvetica,sans-Serif" font-size="10.00">b_gos_class</text>
</a>
</g>
</g>
<!-- Node1&#45;&gt;Node7 -->
<g id="edge7_Node000001_Node000007" class="edge">
<title>Node1&#45;&gt;Node7</title>
<g id="a_edge7_Node000001_Node000007"><a xlink:title=" ">
<path fill="none" stroke="#63b8ff" d="M265.11,-696.9C267.96,-782.27 282.44,-1099.03 342,-1175.62 344.45,-1178.77 347.55,-1181.38 350.96,-1183.53"/>
<polygon fill="#63b8ff" stroke="#63b8ff" points="268.61,-696.85 264.8,-686.97 261.62,-697.07 268.61,-696.85"/>
</a>
</g>
</g>
<!-- Node8 -->
<g id="Node000008" class="node">
<title>Node8</title>
<g id="a_Node000008"><a xlink:href="classb__ob__class.html" target="_top" xlink:title="Morpheel (body)">
<polygon fill="white" stroke="#666666" points="418,-1166.25 352.5,-1166.25 352.5,-1147 418,-1147 418,-1166.25"/>
<text text-anchor="middle" x="385.25" y="-1152.75" font-family="Helvetica,sans-Serif" font-size="10.00">b_ob_class</text>
</a>
</g>
</g>
<!-- Node1&#45;&gt;Node8 -->
<g id="edge8_Node000001_Node000008" class="edge">
<title>Node1&#45;&gt;Node8</title>
<g id="a_edge8_Node000001_Node000008"><a xlink:title=" ">
<path fill="none" stroke="#63b8ff" d="M265.4,-696.87C269.24,-778.15 286.66,-1068.34 342,-1138.62 344.76,-1142.13 348.34,-1144.97 352.24,-1147.26"/>
<polygon fill="#63b8ff" stroke="#63b8ff" points="268.9,-696.84 264.96,-687.01 261.91,-697.16 268.9,-696.84"/>
</a>
</g>
</g>
<!-- Node9 -->
<g id="Node000009" class="node">
<title>Node9</title>
<g id="a_Node000009"><a xlink:href="classb__oh2__class.html" target="_top" xlink:title="Morpheel (tentacle)">
<polygon fill="white" stroke="#666666" points="420.62,-1129.25 349.88,-1129.25 349.88,-1110 420.62,-1110 420.62,-1129.25"/>
<text text-anchor="middle" x="385.25" y="-1115.75" font-family="Helvetica,sans-Serif" font-size="10.00">b_oh2_class</text>
</a>
</g>
</g>
<!-- Node1&#45;&gt;Node9 -->
<g id="edge9_Node000001_Node000009" class="edge">
<title>Node1&#45;&gt;Node9</title>
<g id="a_edge9_Node000001_Node000009"><a xlink:title=" ">
<path fill="none" stroke="#63b8ff" d="M265.74,-696.88C270.64,-773.96 290.89,-1037.64 342,-1101.62 344.59,-1104.86 347.87,-1107.53 351.45,-1109.72"/>
<polygon fill="#63b8ff" stroke="#63b8ff" points="269.24,-696.73 265.14,-686.96 262.25,-697.15 269.24,-696.73"/>
</a>
</g>
</g>
<!-- Node10 -->
<g id="Node000010" class="node">
<title>Node10</title>
<g id="a_Node000010"><a xlink:href="classb__oh__class.html" target="_top" xlink:title="Morpheel (head)">
<polygon fill="white" stroke="#666666" points="418,-1092.25 352.5,-1092.25 352.5,-1073 418,-1073 418,-1092.25"/>
<text text-anchor="middle" x="385.25" y="-1078.75" font-family="Helvetica,sans-Serif" font-size="10.00">b_oh_class</text>
</a>
</g>
</g>
<!-- Node1&#45;&gt;Node10 -->
<g id="edge10_Node000001_Node000010" class="edge">
<title>Node1&#45;&gt;Node10</title>
<g id="a_edge10_Node000001_Node000010"><a xlink:title=" ">
<path fill="none" stroke="#63b8ff" d="M266.15,-696.89C272.16,-769.59 295.09,-1006.9 342,-1064.62 344.82,-1068.09 348.42,-1070.9 352.34,-1073.18"/>
<polygon fill="#63b8ff" stroke="#63b8ff" points="269.66,-696.85 265.37,-687.16 262.68,-697.41 269.66,-696.85"/>
</a>
</g>
</g>
<!-- Node11 -->
<g id="Node000011" class="node">
<title>Node11</title>
<g id="a_Node000011"><a xlink:href="classdaB__DR__c.html" target="_top" xlink:title="Argorok.">
<polygon fill="white" stroke="#666666" points="416.5,-1055.25 354,-1055.25 354,-1036 416.5,-1036 416.5,-1055.25"/>
<text text-anchor="middle" x="385.25" y="-1041.75" font-family="Helvetica,sans-Serif" font-size="10.00">daB_DR_c</text>
</a>
</g>
</g>
<!-- Node1&#45;&gt;Node11 -->
<g id="edge11_Node000001_Node000011" class="edge">
<title>Node1&#45;&gt;Node11</title>
<g id="a_edge11_Node000001_Node000011"><a xlink:title=" ">
<path fill="none" stroke="#63b8ff" d="M266.65,-697.04C273.88,-765.28 299.31,-976.15 342,-1027.62 345.16,-1031.43 349.26,-1034.45 353.67,-1036.84"/>
<polygon fill="#63b8ff" stroke="#63b8ff" points="270.14,-696.8 265.63,-687.21 263.18,-697.52 270.14,-696.8"/>
</a>
</g>
</g>
<!-- Node12 -->
<g id="Node000012" class="node">
<title>Node12</title>
<g id="a_Node000012"><a xlink:href="classdaB__DS__c.html" target="_top" xlink:title="Stallord.">
<polygon fill="white" stroke="#666666" points="416.5,-1018.25 354,-1018.25 354,-999 416.5,-999 416.5,-1018.25"/>
<text text-anchor="middle" x="385.25" y="-1004.75" font-family="Helvetica,sans-Serif" font-size="10.00">daB_DS_c</text>
</a>
</g>
</g>
<!-- Node1&#45;&gt;Node12 -->
<g id="edge12_Node000001_Node000012" class="edge">
<title>Node1&#45;&gt;Node12</title>
<g id="a_edge12_Node000001_Node000012"><a xlink:title=" ">
<path fill="none" stroke="#63b8ff" d="M267.22,-696.82C275.71,-759.96 303.43,-945.27 342,-990.62 345.2,-994.39 349.33,-997.39 353.75,-999.77"/>
<polygon fill="#63b8ff" stroke="#63b8ff" points="270.72,-696.55 265.94,-687.09 263.78,-697.46 270.72,-696.55"/>
</a>
</g>
</g>
<!-- Node13 -->
<g id="Node000013" class="node">
<title>Node13</title>
<g id="a_Node000013"><a xlink:href="classdaB__YO__c.html" target="_top" xlink:title="Blizzeta.">
<polygon fill="white" stroke="#666666" points="416.88,-981.25 353.62,-981.25 353.62,-962 416.88,-962 416.88,-981.25"/>
<text text-anchor="middle" x="385.25" y="-967.75" font-family="Helvetica,sans-Serif" font-size="10.00">daB_YO_c</text>
</a>
</g>
</g>
<!-- Node1&#45;&gt;Node13 -->
<g id="edge13_Node000001_Node000013" class="edge">
<title>Node1&#45;&gt;Node13</title>
<g id="a_edge13_Node000001_Node000013"><a xlink:title=" ">
<path fill="none" stroke="#63b8ff" d="M264.48,-697.07C265.56,-747.95 275.14,-877.39 342,-953.62 345.15,-957.22 349.15,-960.12 353.42,-962.45"/>
<polygon fill="#63b8ff" stroke="#63b8ff" points="267.98,-697.13 264.37,-687.17 260.98,-697.2 267.98,-697.13"/>
</a>
</g>
</g>
<!-- Node14 -->
<g id="Node000014" class="node">
<title>Node14</title>
<g id="a_Node000014"><a xlink:href="classdaE__FZ__c.html" target="_top" xlink:title="Mini Freezard.">
<polygon fill="white" stroke="#666666" points="415.38,-944.25 355.12,-944.25 355.12,-925 415.38,-925 415.38,-944.25"/>
<text text-anchor="middle" x="385.25" y="-930.75" font-family="Helvetica,sans-Serif" font-size="10.00">daE_FZ_c</text>
</a>
</g>
</g>
<!-- Node1&#45;&gt;Node14 -->
<g id="edge14_Node000001_Node000014" class="edge">
<title>Node1&#45;&gt;Node14</title>
<g id="a_edge14_Node000001_Node000014"><a xlink:title=" ">
<path fill="none" stroke="#63b8ff" d="M265.56,-696.65C268.94,-742.4 283.1,-852.07 342,-916.62 345.55,-920.51 350.07,-923.59 354.84,-926.02"/>
<polygon fill="#63b8ff" stroke="#63b8ff" points="269.06,-696.57 264.94,-686.81 262.07,-697.01 269.06,-696.57"/>
</a>
</g>
</g>
<!-- Node15 -->
<g id="Node000015" class="node">
<title>Node15</title>
<g id="a_Node000015"><a xlink:href="classdaE__GE__c.html" target="_top" xlink:title="Guay.">
<polygon fill="white" stroke="#666666" points="416.12,-907.25 354.38,-907.25 354.38,-888 416.12,-888 416.12,-907.25"/>
<text text-anchor="middle" x="385.25" y="-893.75" font-family="Helvetica,sans-Serif" font-size="10.00">daE_GE_c</text>
</a>
</g>
</g>
<!-- Node1&#45;&gt;Node15 -->
<g id="edge15_Node000001_Node000015" class="edge">
<title>Node1&#45;&gt;Node15</title>
<g id="a_edge15_Node000001_Node000015"><a xlink:title=" ">
<path fill="none" stroke="#63b8ff" d="M267.06,-696.97C272.99,-737.63 291.31,-826.88 342,-879.62 345.43,-883.19 349.67,-886.08 354.14,-888.42"/>
<polygon fill="#63b8ff" stroke="#63b8ff" points="270.53,-696.53 265.74,-687.08 263.59,-697.45 270.53,-696.53"/>
</a>
</g>
</g>
<!-- Node16 -->
<g id="Node000016" class="node">
<title>Node16</title>
<g id="a_Node000016"><a xlink:href="structdaE__OctBg__c.html" target="_top" xlink:title="Morpheel Bomb Fish.">
<polygon fill="white" stroke="#666666" points="423.25,-870.25 347.25,-870.25 347.25,-851 423.25,-851 423.25,-870.25"/>
<text text-anchor="middle" x="385.25" y="-856.75" font-family="Helvetica,sans-Serif" font-size="10.00">daE_OctBg_c</text>
</a>
</g>
</g>
<!-- Node1&#45;&gt;Node16 -->
<g id="edge16_Node000001_Node000016" class="edge">
<title>Node1&#45;&gt;Node16</title>
<g id="a_edge16_Node000001_Node000016"><a xlink:title=" ">
<path fill="none" stroke="#63b8ff" d="M269.12,-696.9C277.7,-731.74 299.27,-801.23 342,-842.62 345.21,-845.73 349.03,-848.34 353.05,-850.52"/>
<polygon fill="#63b8ff" stroke="#63b8ff" points="272.54,-696.17 266.87,-687.22 265.72,-697.75 272.54,-696.17"/>
</a>
</g>
</g>
<!-- Node17 -->
<g id="Node000017" class="node">
<title>Node17</title>
<g id="a_Node000017"><a xlink:href="classdaE__PH__c.html" target="_top" xlink:title="Peahat.">
<polygon fill="white" stroke="#666666" points="416.5,-833.25 354,-833.25 354,-814 416.5,-814 416.5,-833.25"/>
<text text-anchor="middle" x="385.25" y="-819.75" font-family="Helvetica,sans-Serif" font-size="10.00">daE_PH_c</text>
</a>
</g>
</g>
<!-- Node1&#45;&gt;Node17 -->
<g id="edge17_Node000001_Node000017" class="edge">
<title>Node1&#45;&gt;Node17</title>
<g id="a_edge17_Node000001_Node000017"><a xlink:title=" ">
<path fill="none" stroke="#63b8ff" d="M271.96,-696.09C283.17,-724.24 306.85,-774.92 342,-805.62 345.6,-808.77 349.84,-811.43 354.21,-813.66"/>
<polygon fill="#63b8ff" stroke="#63b8ff" points="275.3,-695.03 268.46,-686.94 268.76,-697.53 275.3,-695.03"/>
</a>
</g>
</g>
<!-- Node18 -->
<g id="Node000018" class="node">
<title>Node18</title>
<g id="a_Node000018"><a xlink:href="classdaE__PM__c.html" target="_top" xlink:title="Skull Kid.">
<polygon fill="white" stroke="#666666" points="416.88,-796.25 353.62,-796.25 353.62,-777 416.88,-777 416.88,-796.25"/>
<text text-anchor="middle" x="385.25" y="-782.75" font-family="Helvetica,sans-Serif" font-size="10.00">daE_PM_c</text>
</a>
</g>
</g>
<!-- Node1&#45;&gt;Node18 -->
<g id="edge18_Node000001_Node000018" class="edge">
<title>Node1&#45;&gt;Node18</title>
<g id="a_edge18_Node000001_Node000018"><a xlink:title=" ">
<path fill="none" stroke="#63b8ff" d="M276.74,-695.24C290.46,-715.87 314.43,-748.12 342,-768.62 346.09,-771.67 350.78,-774.32 355.51,-776.58"/>
<polygon fill="#63b8ff" stroke="#63b8ff" points="279.73,-693.41 271.36,-686.91 273.85,-697.21 279.73,-693.41"/>
</a>
</g>
</g>
<!-- Node19 -->
<g id="Node000019" class="node">
<title>Node19</title>
<g id="a_Node000019"><a xlink:href="classdaE__YM__c.html" target="_top" xlink:title="Shadow Insect.">
<polygon fill="white" stroke="#666666" points="416.88,-759.25 353.62,-759.25 353.62,-740 416.88,-740 416.88,-759.25"/>
<text text-anchor="middle" x="385.25" y="-745.75" font-family="Helvetica,sans-Serif" font-size="10.00">daE_YM_c</text>
</a>
</g>
</g>
<!-- Node1&#45;&gt;Node19 -->
<g id="edge19_Node000001_Node000019" class="edge">
<title>Node1&#45;&gt;Node19</title>
<g id="a_edge19_Node000001_Node000019"><a xlink:title=" ">
<path fill="none" stroke="#63b8ff" d="M285.53,-692.8C300.65,-704.64 321.84,-720.24 342,-731.62 347.14,-734.53 352.83,-737.26 358.34,-739.67"/>
<polygon fill="#63b8ff" stroke="#63b8ff" points="287.73,-690.07 277.73,-686.58 283.37,-695.55 287.73,-690.07"/>
</a>
</g>
</g>
<!-- Node20 -->
<g id="Node000020" class="node">
<title>Node20</title>
<g id="a_Node000020"><a xlink:href="classdo__class.html" target="_top" xlink:title=" ">
<polygon fill="white" stroke="#666666" points="412.75,-722.25 357.75,-722.25 357.75,-703 412.75,-703 412.75,-722.25"/>
<text text-anchor="middle" x="385.25" y="-708.75" font-family="Helvetica,sans-Serif" font-size="10.00">do_class</text>
</a>
</g>
</g>
<!-- Node1&#45;&gt;Node20 -->
<g id="edge20_Node000001_Node000020" class="edge">
<title>Node1&#45;&gt;Node20</title>
<g id="a_edge20_Node000001_Node000020"><a xlink:title=" ">
<path fill="none" stroke="#63b8ff" d="M307.84,-689.02C324.49,-694.16 342.99,-699.88 357.62,-704.4"/>
<polygon fill="#63b8ff" stroke="#63b8ff" points="309.26,-685.79 298.67,-686.18 307.19,-692.48 309.26,-685.79"/>
</a>
</g>
</g>
<!-- Node21 -->
<g id="Node000021" class="node">
<title>Node21</title>
<g id="a_Node000021"><a xlink:href="classe__arrow__class.html" target="_top" xlink:title="Enemy arrow.">
<polygon fill="white" stroke="#666666" points="424.75,-685.25 345.75,-685.25 345.75,-666 424.75,-666 424.75,-685.25"/>
<text text-anchor="middle" x="385.25" y="-671.75" font-family="Helvetica,sans-Serif" font-size="10.00">e_arrow_class</text>
</a>
</g>
</g>
<!-- Node1&#45;&gt;Node21 -->
<g id="edge21_Node000001_Node000021" class="edge">
<title>Node1&#45;&gt;Node21</title>
<g id="a_edge21_Node000001_Node000021"><a xlink:title=" ">
<path fill="none" stroke="#63b8ff" d="M317.61,-675.62C326.96,-675.62 336.53,-675.62 345.4,-675.62"/>
<polygon fill="#63b8ff" stroke="#63b8ff" points="317.9,-672.13 307.9,-675.63 317.9,-679.13 317.9,-672.13"/>
</a>
</g>
</g>
<!-- Node22 -->
<g id="Node000022" class="node">
<title>Node22</title>
<g id="a_Node000022"><a xlink:href="classe__ba__class.html" target="_top" xlink:title=" ">
<polygon fill="white" stroke="#666666" points="418,-648.25 352.5,-648.25 352.5,-629 418,-629 418,-648.25"/>
<text text-anchor="middle" x="385.25" y="-634.75" font-family="Helvetica,sans-Serif" font-size="10.00">e_ba_class</text>
</a>
</g>
</g>
<!-- Node1&#45;&gt;Node22 -->
<g id="edge22_Node000001_Node000022" class="edge">
<title>Node1&#45;&gt;Node22</title>
<g id="a_edge22_Node000001_Node000022"><a xlink:title=" ">
<path fill="none" stroke="#63b8ff" d="M308.09,-662.16C322.75,-657.63 338.81,-652.66 352.4,-648.47"/>
<polygon fill="#63b8ff" stroke="#63b8ff" points="307.19,-658.77 298.67,-665.07 309.26,-665.46 307.19,-658.77"/>
</a>
</g>
</g>
<!-- Node23 -->
<g id="Node000023" class="node">
<title>Node23</title>
<g id="a_Node000023"><a xlink:href="classe__bi__leaf__class.html" target="_top" xlink:title="Bombling Leaf.">
<polygon fill="white" stroke="#666666" points="427,-611.25 343.5,-611.25 343.5,-592 427,-592 427,-611.25"/>
<text text-anchor="middle" x="385.25" y="-597.75" font-family="Helvetica,sans-Serif" font-size="10.00">e_bi_leaf_class</text>
</a>
</g>
</g>
<!-- Node1&#45;&gt;Node23 -->
<g id="edge23_Node000001_Node000023" class="edge">
<title>Node1&#45;&gt;Node23</title>
<g id="a_edge23_Node000001_Node000023"><a xlink:title=" ">
<path fill="none" stroke="#63b8ff" d="M285.53,-658.45C300.65,-646.61 321.84,-631.01 342,-619.62 347.14,-616.72 352.83,-613.99 358.34,-611.58"/>
<polygon fill="#63b8ff" stroke="#63b8ff" points="283.37,-655.7 277.73,-664.67 287.73,-661.18 283.37,-655.7"/>
</a>
</g>
</g>
<!-- Node24 -->
<g id="Node000024" class="node">
<title>Node24</title>
<g id="a_Node000024"><a xlink:href="classe__db__leaf__class.html" target="_top" xlink:title="Deku Baba Leaf.">
<polygon fill="white" stroke="#666666" points="428.5,-574.25 342,-574.25 342,-555 428.5,-555 428.5,-574.25"/>
<text text-anchor="middle" x="385.25" y="-560.75" font-family="Helvetica,sans-Serif" font-size="10.00">e_db_leaf_class</text>
</a>
</g>
</g>
<!-- Node1&#45;&gt;Node24 -->
<g id="edge24_Node000001_Node000024" class="edge">
<title>Node1&#45;&gt;Node24</title>
<g id="a_edge24_Node000001_Node000024"><a xlink:title=" ">
<path fill="none" stroke="#63b8ff" d="M276.74,-656.01C290.46,-635.38 314.43,-603.13 342,-582.62 346.09,-579.58 350.78,-576.93 355.51,-574.67"/>
<polygon fill="#63b8ff" stroke="#63b8ff" points="273.85,-654.04 271.36,-664.34 279.73,-657.84 273.85,-654.04"/>
</a>
</g>
</g>
<!-- Node25 -->
<g id="Node000025" class="node">
<title>Node25</title>
<g id="a_Node000025"><a xlink:href="classe__hb__leaf__class.html" target="_top" xlink:title="Snake Baba Leaf.">
<polygon fill="white" stroke="#666666" points="428.5,-537.25 342,-537.25 342,-518 428.5,-518 428.5,-537.25"/>
<text text-anchor="middle" x="385.25" y="-523.75" font-family="Helvetica,sans-Serif" font-size="10.00">e_hb_leaf_class</text>
</a>
</g>
</g>
<!-- Node1&#45;&gt;Node25 -->
<g id="edge25_Node000001_Node000025" class="edge">
<title>Node1&#45;&gt;Node25</title>
<g id="a_edge25_Node000001_Node000025"><a xlink:title=" ">
<path fill="none" stroke="#63b8ff" d="M271.96,-655.16C283.17,-627.01 306.85,-576.33 342,-545.62 345.6,-542.48 349.84,-539.82 354.21,-537.59"/>
<polygon fill="#63b8ff" stroke="#63b8ff" points="268.76,-653.72 268.46,-664.31 275.3,-656.22 268.76,-653.72"/>
</a>
</g>
</g>
<!-- Node26 -->
<g id="Node000026" class="node">
<title>Node26</title>
<g id="a_Node000026"><a xlink:href="classe__mb__class.html" target="_top" xlink:title=" ">
<polygon fill="white" stroke="#666666" points="419.5,-500.25 351,-500.25 351,-481 419.5,-481 419.5,-500.25"/>
<text text-anchor="middle" x="385.25" y="-486.75" font-family="Helvetica,sans-Serif" font-size="10.00">e_mb_class</text>
</a>
</g>
</g>
<!-- Node1&#45;&gt;Node26 -->
<g id="edge26_Node000001_Node000026" class="edge">
<title>Node1&#45;&gt;Node26</title>
<g id="a_edge26_Node000001_Node000026"><a xlink:title=" ">
<path fill="none" stroke="#63b8ff" d="M269.12,-654.35C277.7,-619.51 299.27,-550.02 342,-508.62 345.21,-505.52 349.03,-502.91 353.05,-500.73"/>
<polygon fill="#63b8ff" stroke="#63b8ff" points="265.72,-653.5 266.87,-664.03 272.54,-655.08 265.72,-653.5"/>
</a>
</g>
</g>
<!-- Node27 -->
<g id="Node000027" class="node">
<title>Node27</title>
<g id="a_Node000027"><a xlink:href="classe__rdy__class.html" target="_top" xlink:title=" ">
<polygon fill="white" stroke="#666666" points="419.12,-463.25 351.38,-463.25 351.38,-444 419.12,-444 419.12,-463.25"/>
<text text-anchor="middle" x="385.25" y="-449.75" font-family="Helvetica,sans-Serif" font-size="10.00">e_rdy_class</text>
</a>
</g>
</g>
<!-- Node1&#45;&gt;Node27 -->
<g id="edge27_Node000001_Node000027" class="edge">
<title>Node1&#45;&gt;Node27</title>
<g id="a_edge27_Node000001_Node000027"><a xlink:title=" ">
<path fill="none" stroke="#63b8ff" d="M267.06,-654.28C272.99,-613.62 291.31,-524.37 342,-471.62 345.09,-468.41 348.86,-465.73 352.85,-463.52"/>
<polygon fill="#63b8ff" stroke="#63b8ff" points="263.59,-653.8 265.74,-664.17 270.53,-654.72 263.59,-653.8"/>
</a>
</g>
</g>
<!-- Node28 -->
<g id="Node000028" class="node">
<title>Node28</title>
<g id="a_Node000028"><a xlink:href="classe__sm2__class.html" target="_top" xlink:title="Chuchu 2.">
<polygon fill="white" stroke="#666666" points="422.12,-426.25 348.38,-426.25 348.38,-407 422.12,-407 422.12,-426.25"/>
<text text-anchor="middle" x="385.25" y="-412.75" font-family="Helvetica,sans-Serif" font-size="10.00">e_sm2_class</text>
</a>
</g>
</g>
<!-- Node1&#45;&gt;Node28 -->
<g id="edge28_Node000001_Node000028" class="edge">
<title>Node1&#45;&gt;Node28</title>
<g id="a_edge28_Node000001_Node000028"><a xlink:title=" ">
<path fill="none" stroke="#63b8ff" d="M265.56,-654.6C268.94,-608.85 283.1,-499.18 342,-434.62 344.9,-431.44 348.46,-428.8 352.27,-426.62"/>
<polygon fill="#63b8ff" stroke="#63b8ff" points="262.07,-654.24 264.94,-664.44 269.06,-654.68 262.07,-654.24"/>
</a>
</g>
</g>
<!-- Node29 -->
<g id="Node000029" class="node">
<title>Node29</title>
<g id="a_Node000029"><a xlink:href="classe__st__line__class.html" target="_top" xlink:title="Skulltula.">
<polygon fill="white" stroke="#666666" points="427,-389.25 343.5,-389.25 343.5,-370 427,-370 427,-389.25"/>
<text text-anchor="middle" x="385.25" y="-375.75" font-family="Helvetica,sans-Serif" font-size="10.00">e_st_line_class</text>
</a>
</g>
</g>
<!-- Node1&#45;&gt;Node29 -->
<g id="edge29_Node000001_Node000029" class="edge">
<title>Node1&#45;&gt;Node29</title>
<g id="a_edge29_Node000001_Node000029"><a xlink:title=" ">
<path fill="none" stroke="#63b8ff" d="M264.48,-654.18C265.56,-603.3 275.14,-473.86 342,-397.62 344.84,-394.39 348.36,-391.72 352.15,-389.51"/>
<polygon fill="#63b8ff" stroke="#63b8ff" points="260.98,-654.05 264.37,-664.08 267.98,-654.12 260.98,-654.05"/>
</a>
</g>
</g>
<!-- Node30 -->
<g id="Node000030" class="node">
<title>Node30</title>
<g id="a_Node000030"><a xlink:href="classe__wb__class.html" target="_top" xlink:title="Wild Boar.">
<polygon fill="white" stroke="#666666" points="419.12,-352.25 351.38,-352.25 351.38,-333 419.12,-333 419.12,-352.25"/>
<text text-anchor="middle" x="385.25" y="-338.75" font-family="Helvetica,sans-Serif" font-size="10.00">e_wb_class</text>
</a>
</g>
</g>
<!-- Node1&#45;&gt;Node30 -->
<g id="edge30_Node000001_Node000030" class="edge">
<title>Node1&#45;&gt;Node30</title>
<g id="a_edge30_Node000001_Node000030"><a xlink:title=" ">
<path fill="none" stroke="#63b8ff" d="M267.22,-654.43C275.71,-591.29 303.43,-405.98 342,-360.62 344.69,-357.47 348.02,-354.85 351.64,-352.68"/>
<polygon fill="#63b8ff" stroke="#63b8ff" points="263.78,-653.79 265.94,-664.16 270.72,-654.7 263.78,-653.79"/>
</a>
</g>
</g>
<!-- Node31 -->
<g id="Node000031" class="node">
<title>Node31</title>
<g id="a_Node000031"><a xlink:href="classe__yc__class.html" target="_top" xlink:title="Twilit Kargorok.">
<polygon fill="white" stroke="#666666" points="417.62,-315.25 352.88,-315.25 352.88,-296 417.62,-296 417.62,-315.25"/>
<text text-anchor="middle" x="385.25" y="-301.75" font-family="Helvetica,sans-Serif" font-size="10.00">e_yc_class</text>
</a>
</g>
</g>
<!-- Node1&#45;&gt;Node31 -->
<g id="edge31_Node000001_Node000031" class="edge">
<title>Node1&#45;&gt;Node31</title>
<g id="a_edge31_Node000001_Node000031"><a xlink:title=" ">
<path fill="none" stroke="#63b8ff" d="M266.65,-654.21C273.88,-585.97 299.31,-375.1 342,-323.62 344.85,-320.19 348.48,-317.39 352.4,-315.12"/>
<polygon fill="#63b8ff" stroke="#63b8ff" points="263.18,-653.73 265.63,-664.04 270.14,-654.45 263.18,-653.73"/>
</a>
</g>
</g>
<!-- Node32 -->
<g id="Node000032" class="node">
<title>Node32</title>
<g id="a_Node000032"><a xlink:href="classe__yd__leaf__class.html" target="_top" xlink:title="Shadow Deku Baba Leaf.">
<polygon fill="white" stroke="#666666" points="428.12,-278.25 342.38,-278.25 342.38,-259 428.12,-259 428.12,-278.25"/>
<text text-anchor="middle" x="385.25" y="-264.75" font-family="Helvetica,sans-Serif" font-size="10.00">e_yd_leaf_class</text>
</a>
</g>
</g>
<!-- Node1&#45;&gt;Node32 -->
<g id="edge32_Node000001_Node000032" class="edge">
<title>Node1&#45;&gt;Node32</title>
<g id="a_edge32_Node000001_Node000032"><a xlink:title=" ">
<path fill="none" stroke="#63b8ff" d="M266.15,-654.36C272.16,-581.66 295.09,-344.35 342,-286.62 344.61,-283.41 347.91,-280.75 351.5,-278.57"/>
<polygon fill="#63b8ff" stroke="#63b8ff" points="262.68,-653.84 265.37,-664.09 269.66,-654.4 262.68,-653.84"/>
</a>
</g>
</g>
<!-- Node33 -->
<g id="Node000033" class="node">
<title>Node33</title>
<g id="a_Node000033"><a xlink:href="classe__yk__class.html" target="_top" xlink:title="Shadow Keese.">
<polygon fill="white" stroke="#666666" points="417.62,-241.25 352.88,-241.25 352.88,-222 417.62,-222 417.62,-241.25"/>
<text text-anchor="middle" x="385.25" y="-227.75" font-family="Helvetica,sans-Serif" font-size="10.00">e_yk_class</text>
</a>
</g>
</g>
<!-- Node1&#45;&gt;Node33 -->
<g id="edge33_Node000001_Node000033" class="edge">
<title>Node1&#45;&gt;Node33</title>
<g id="a_edge33_Node000001_Node000033"><a xlink:title=" ">
<path fill="none" stroke="#63b8ff" d="M265.74,-654.37C270.64,-577.29 290.89,-313.61 342,-249.62 344.89,-246.01 348.63,-243.11 352.7,-240.79"/>
<polygon fill="#63b8ff" stroke="#63b8ff" points="262.25,-654.1 265.14,-664.29 269.24,-654.52 262.25,-654.1"/>
</a>
</g>
</g>
<!-- Node34 -->
<g id="Node000034" class="node">
<title>Node34</title>
<g id="a_Node000034"><a xlink:href="classecont__class.html" target="_top" xlink:title=" ">
<polygon fill="white" stroke="#666666" points="419.5,-204.25 351,-204.25 351,-185 419.5,-185 419.5,-204.25"/>
<text text-anchor="middle" x="385.25" y="-190.75" font-family="Helvetica,sans-Serif" font-size="10.00">econt_class</text>
</a>
</g>
</g>
<!-- Node1&#45;&gt;Node34 -->
<g id="edge34_Node000001_Node000034" class="edge">
<title>Node1&#45;&gt;Node34</title>
<g id="a_edge34_Node000001_Node000034"><a xlink:title=" ">
<path fill="none" stroke="#63b8ff" d="M265.4,-654.38C269.24,-573.1 286.66,-282.91 342,-212.62 344.47,-209.49 347.58,-206.9 351,-204.75"/>
<polygon fill="#63b8ff" stroke="#63b8ff" points="261.91,-654.09 264.96,-664.24 268.9,-654.41 261.91,-654.09"/>
</a>
</g>
</g>
<!-- Node35 -->
<g id="Node000035" class="node">
<title>Node35</title>
<g id="a_Node000035"><a xlink:href="classmg__fish__class.html" target="_top" xlink:title=" ">
<polygon fill="white" stroke="#666666" points="424.38,-167.25 346.12,-167.25 346.12,-148 424.38,-148 424.38,-167.25"/>
<text text-anchor="middle" x="385.25" y="-153.75" font-family="Helvetica,sans-Serif" font-size="10.00">mg_fish_class</text>
</a>
</g>
</g>
<!-- Node1&#45;&gt;Node35 -->
<g id="edge35_Node000001_Node000035" class="edge">
<title>Node1&#45;&gt;Node35</title>
<g id="a_edge35_Node000001_Node000035"><a xlink:title=" ">
<path fill="none" stroke="#63b8ff" d="M265.11,-654.35C267.96,-568.98 282.44,-252.22 342,-175.62 344.45,-172.48 347.55,-169.87 350.96,-167.72"/>
<polygon fill="#63b8ff" stroke="#63b8ff" points="261.62,-654.18 264.8,-664.28 268.61,-654.4 261.62,-654.18"/>
</a>
</g>
</g>
<!-- Node36 -->
<g id="Node000036" class="node">
<title>Node36</title>
<g id="a_Node000036"><a xlink:href="structni__class.html" target="_top" xlink:title=" ">
<polygon fill="white" stroke="#666666" points="411.25,-130.25 359.25,-130.25 359.25,-111 411.25,-111 411.25,-130.25"/>
<text text-anchor="middle" x="385.25" y="-116.75" font-family="Helvetica,sans-Serif" font-size="10.00">ni_class</text>
</a>
</g>
</g>
<!-- Node1&#45;&gt;Node36 -->
<g id="edge36_Node000001_Node000036" class="edge">
<title>Node1&#45;&gt;Node36</title>
<g id="a_edge36_Node000001_Node000036"><a xlink:title=" ">
<path fill="none" stroke="#63b8ff" d="M264.86,-654.2C266.78,-564.71 278.23,-221.53 342,-138.62 346.28,-133.06 352.61,-129.2 359.07,-126.52"/>
<polygon fill="#63b8ff" stroke="#63b8ff" points="261.37,-653.93 264.67,-663.99 268.37,-654.06 261.37,-653.93"/>
</a>
</g>
</g>
<!-- Node37 -->
<g id="Node000037" class="node">
<title>Node37</title>
<g id="a_Node000037"><a xlink:href="classnpc__ne__class.html" target="_top" xlink:title=" ">
<polygon fill="white" stroke="#666666" points="423.25,-93.25 347.25,-93.25 347.25,-74 423.25,-74 423.25,-93.25"/>
<text text-anchor="middle" x="385.25" y="-79.75" font-family="Helvetica,sans-Serif" font-size="10.00">npc_ne_class</text>
</a>
</g>
</g>
<!-- Node1&#45;&gt;Node37 -->
<g id="edge37_Node000001_Node000037" class="edge">
<title>Node1&#45;&gt;Node37</title>
<g id="a_edge37_Node000001_Node000037"><a xlink:title=" ">
<path fill="none" stroke="#63b8ff" d="M264.64,-654.24C265.65,-561.03 273.97,-190.91 342,-101.62 344.42,-98.45 347.5,-95.84 350.9,-93.67"/>
<polygon fill="#63b8ff" stroke="#63b8ff" points="261.14,-654.17 264.55,-664.2 268.14,-654.23 261.14,-654.17"/>
</a>
</g>
</g>
<!-- Node38 -->
<g id="Node000038" class="node">
<title>Node38</title>
<g id="a_Node000038"><a xlink:href="classnpc__sq__class.html" target="_top" xlink:title=" ">
<polygon fill="white" stroke="#666666" points="423.25,-56.25 347.25,-56.25 347.25,-37 423.25,-37 423.25,-56.25"/>
<text text-anchor="middle" x="385.25" y="-42.75" font-family="Helvetica,sans-Serif" font-size="10.00">npc_sq_class</text>
</a>
</g>
</g>
<!-- Node1&#45;&gt;Node38 -->
<g id="edge38_Node000001_Node000038" class="edge">
<title>Node1&#45;&gt;Node38</title>
<g id="a_edge38_Node000001_Node000038"><a xlink:title=" ">
<path fill="none" stroke="#63b8ff" d="M264.45,-654.1C264.61,-557 269.74,-160.25 342,-64.62 344.4,-61.44 347.48,-58.82 350.87,-56.65"/>
<polygon fill="#63b8ff" stroke="#63b8ff" points="260.95,-654.02 264.45,-664.02 267.95,-654.02 260.95,-654.02"/>
</a>
</g>
</g>
<!-- Node39 -->
<g id="Node000039" class="node">
<title>Node39</title>
<g id="a_Node000039"><a xlink:href="classsq__class.html" target="_top" xlink:title=" ">
<polygon fill="white" stroke="#666666" points="412.75,-19.25 357.75,-19.25 357.75,0 412.75,0 412.75,-19.25"/>
<text text-anchor="middle" x="385.25" y="-5.75" font-family="Helvetica,sans-Serif" font-size="10.00">sq_class</text>
</a>
</g>
</g>
<!-- Node1&#45;&gt;Node39 -->
<g id="edge39_Node000001_Node000039" class="edge">
<title>Node1&#45;&gt;Node39</title>
<g id="a_edge39_Node000001_Node000039"><a xlink:title=" ">
<path fill="none" stroke="#63b8ff" d="M264.27,-654.42C263.6,-554.32 265.39,-129.77 342,-27.62 345.92,-22.39 351.67,-18.67 357.66,-16.02"/>
<polygon fill="#63b8ff" stroke="#63b8ff" points="260.77,-654.39 264.36,-664.36 267.77,-654.33 260.77,-654.39"/>
</a>
</g>
</g>
<!-- Node2 -->
<g id="Node000002" class="node">
<title>Node2</title>
<g id="a_Node000002"><a xlink:href="structfopAc__ac__c.html" target="_top" xlink:title=" ">
<polygon fill="white" stroke="#666666" points="185,-685.25 117.25,-685.25 117.25,-666 185,-666 185,-685.25"/>
<text text-anchor="middle" x="151.12" y="-671.75" font-family="Helvetica,sans-Serif" font-size="10.00">fopAc_ac_c</text>
</a>
</g>
</g>
<!-- Node2&#45;&gt;Node1 -->
<g id="edge1_Node000001_Node000002" class="edge">
<title>Node2&#45;&gt;Node1</title>
<g id="a_edge1_Node000001_Node000002"><a xlink:title=" ">
<path fill="none" stroke="#63b8ff" d="M196.63,-675.62C204.61,-675.62 212.9,-675.62 220.79,-675.62"/>
<polygon fill="#63b8ff" stroke="#63b8ff" points="196.75,-672.13 186.75,-675.63 196.75,-679.13 196.75,-672.13"/>
</a>
</g>
</g>
<!-- Node3 -->
<g id="Node000003" class="node">
<title>Node3</title>
<g id="a_Node000003"><a xlink:href="structleafdraw__class.html" target="_top" xlink:title=" ">
<polygon fill="white" stroke="#666666" points="81.25,-685.25 0,-685.25 0,-666 81.25,-666 81.25,-685.25"/>
<text text-anchor="middle" x="40.62" y="-671.75" font-family="Helvetica,sans-Serif" font-size="10.00">leafdraw_class</text>
</a>
</g>
</g>
<!-- Node3&#45;&gt;Node2 -->
<g id="edge2_Node000002_Node000003" class="edge">
<title>Node3&#45;&gt;Node2</title>
<g id="a_edge2_Node000002_Node000003"><a xlink:title=" ">
<path fill="none" stroke="#63b8ff" d="M93.06,-675.62C101.18,-675.62 109.39,-675.62 116.94,-675.62"/>
<polygon fill="#63b8ff" stroke="#63b8ff" points="93.23,-672.13 83.23,-675.63 93.23,-679.13 93.23,-672.13"/>
</a>
</g>
</g>
</g>
</svg>

<g id="navigator" transform="translate(0 0)" fill="#404254">
  <rect fill="#f2f5e9" fill-opacity="0.5" stroke="#606060" stroke-width=".5" x="0" y="0" width="60" height="60"/>
  <use id="zoomplus" xlink:href="#zoomPlus" x="17" y="9" onmousedown="handleZoom(evt,'in')"/>
  <use id="zoomminus" xlink:href="#zoomMin" x="42" y="9" onmousedown="handleZoom(evt,'out')"/>
  <use id="reset" xlink:href="#resetDef" x="30" y="36" onmousedown="handleReset()"/>
   <use id="arrowup" xlink:href="#arrowUp" x="0" y="0" onmousedown="handlePan(0,-1)"/>
  <use id="arrowright" xlink:href="#arrowRight" x="0" y="0" onmousedown="handlePan(1,0)"/>
  <use id="arrowdown" xlink:href="#arrowDown" x="0" y="0" onmousedown="handlePan(0,1)"/>
  <use id="arrowleft" xlink:href="#arrowLeft" x="0" y="0" onmousedown="handlePan(-1,0)"/>
</g>
<svg viewBox="0 0 15 15" width="100%" height="30px" preserveAspectRatio="xMaxYMin meet">
 <g id="arrow_out" transform="scale(0.3 0.3)">
  <a xlink:href="classfopEn__enemy__c__inherit__graph_org.svg" target="_base">
   <rect id="button" ry="5" rx="5" y="6" x="6" height="38" width="38"
        fill="#f2f5e9" fill-opacity="0.5" stroke="#606060" stroke-width="1.0"/>
   <path id="arrow"
     d="M 11.500037,31.436501 C 11.940474,20.09759 22.043105,11.32322 32.158766,21.979434 L 37.068811,17.246167 C 37.068811,17.246167 37.088388,32 37.088388,32 L 22.160133,31.978069 C 22.160133,31.978069 26.997745,27.140456 26.997745,27.140456 C 18.528582,18.264221 13.291696,25.230495 11.500037,31.436501 z"
     style="fill:#404040;"/>
  </a>
 </g>
</svg>

<style type='text/css'>
<![CDATA[
[data-mouse-over-selected='false'] { opacity: 0.7; }
[data-mouse-over-selected='true']  { opacity: 1.0; }
]]>
</style>
<script type="application/ecmascript"><![CDATA[
document.addEventListener('DOMContentLoaded', (event) => {
  highlightEdges();
  highlightAdjacentNodes();
});
]]></script>
</svg>
