<?xml version="1.0" encoding="UTF-8" standalone="no"?>
<!DOCTYPE svg PUBLIC "-//W3C//DTD SVG 1.1//EN"
 "http://www.w3.org/Graphics/SVG/1.1/DTD/svg11.dtd">
<!-- Generated by graphviz version 9.0.0 (20230911.1827)
 -->
<!-- Title: cBgS_GrpPassChk Pages: 1 -->
<!--zoomable 693 -->

<svg id="main" version="1.1" xmlns="http://www.w3.org/2000/svg" xmlns:xlink="http://www.w3.org/1999/xlink" xml:space="preserve" onload="init(evt)">
<style type="text/css"><![CDATA[
.node, .edge {opacity: 0.7;}
.node.selected, .edge.selected {opacity: 1;}
.edge:hover path { stroke: red; }
.edge:hover polygon { stroke: red; fill: red; }
]]></style>

<defs>
  <circle id="rim" cx="0" cy="0" r="7"/>
  <circle id="rim2" cx="0" cy="0" r="3.5"/>
  <g id="zoomPlus">
    <use xlink:href="#rim" fill="#404040"><set attributeName="fill" to="#808080" begin="zoomplus.mouseover" end="zoomplus.mouseout"/></use>
    <path d="M-4,0h8M0,-4v8" fill="none" stroke="white" stroke-width="1.5" pointer-events="none"/>
  </g>
  <g id="zoomMin">
    <use xlink:href="#rim" fill="#404040"><set attributeName="fill" to="#808080" begin="zoomminus.mouseover" end="zoomminus.mouseout"/></use>
    <path d="M-4,0h8" fill="none" stroke="white" stroke-width="1.5" pointer-events="none"/>
  </g>
  <g id="arrowUp" transform="translate(30 24)">
    <use xlink:href="#rim"/>
    <path pointer-events="none" fill="none" stroke="white" stroke-width="1.5" d="M0,-3.0v7 M-2.5,-0.5L0,-3.0L2.5,-0.5"/>
  </g>
  <g id="arrowRight" transform="rotate(90) translate(36 -43)">
    <use xlink:href="#rim"/>
    <path pointer-events="none" fill="none" stroke="white" stroke-width="1.5" d="M0,-3.0v7 M-2.5,-0.5L0,-3.0L2.5,-0.5"/>
  </g>
  <g id="arrowDown" transform="rotate(180) translate(-30 -48)">
    <use xlink:href="#rim"/>
    <path pointer-events="none" fill="none" stroke="white" stroke-width="1.5" d="M0,-3.0v7 M-2.5,-0.5L0,-3.0L2.5,-0.5"/>
  </g>
  <g id="arrowLeft" transform="rotate(270) translate(-36 17)">
    <use xlink:href="#rim"/>
    <path pointer-events="none" fill="none" stroke="white" stroke-width="1.5" d="M0,-3.0v7 M-2.5,-0.5L0,-3.0L2.5,-0.5"/>
  </g>
  <g id="resetDef">
    <use xlink:href="#rim2" fill="#404040"><set attributeName="fill" to="#808080" begin="reset.mouseover" end="reset.mouseout"/></use>
  </g>
</defs>
<script type="application/ecmascript">
var viewWidth = 802;
var viewHeight = 693;
var sectionId = 'dynsection-0';
</script>
<script type="application/ecmascript" xlink:href="svg.min.js"/>
<svg id="graph" class="graph">
<g id="viewport">
<title>cBgS_GrpPassChk</title>
<!-- Node1 -->
<g id="Node000001" class="node">
<title>Node1</title>
<g id="a_Node000001"><a xlink:title=" ">
<polygon fill="#999999" stroke="#666666" points="100.75,-296.25 0,-296.25 0,-277 100.75,-277 100.75,-296.25"/>
<text text-anchor="middle" x="50.38" y="-282.75" font-family="Helvetica,sans-Serif" font-size="10.00">cBgS_GrpPassChk</text>
</a>
</g>
</g>
<!-- Node2 -->
<g id="Node000002" class="node">
<title>Node2</title>
<g id="a_Node000002"><a xlink:href="classdBgS__GrpPassChk.html" target="_top" xlink:title=" ">
<polygon fill="white" stroke="#666666" points="237.5,-296.25 136.75,-296.25 136.75,-277 237.5,-277 237.5,-296.25"/>
<text text-anchor="middle" x="187.12" y="-282.75" font-family="Helvetica,sans-Serif" font-size="10.00">dBgS_GrpPassChk</text>
</a>
</g>
</g>
<!-- Node1&#45;&gt;Node2 -->
<g id="edge1_Node000001_Node000002" class="edge">
<title>Node1&#45;&gt;Node2</title>
<g id="a_edge1_Node000001_Node000002"><a xlink:title=" ">
<path fill="none" stroke="#63b8ff" d="M112.44,-286.62C120.51,-286.62 128.7,-286.62 136.54,-286.62"/>
<polygon fill="#63b8ff" stroke="#63b8ff" points="112.68,-283.13 102.68,-286.63 112.68,-290.13 112.68,-283.13"/>
</a>
</g>
</g>
<!-- Node3 -->
<g id="Node000003" class="node">
<title>Node3</title>
<g id="a_Node000003"><a xlink:href="classdBgS__Chk.html" target="_top" xlink:title=" ">
<polygon fill="white" stroke="#666666" points="336,-296.25 273.5,-296.25 273.5,-277 336,-277 336,-296.25"/>
<text text-anchor="middle" x="304.75" y="-282.75" font-family="Helvetica,sans-Serif" font-size="10.00">dBgS_Chk</text>
</a>
</g>
</g>
<!-- Node2&#45;&gt;Node3 -->
<g id="edge2_Node000002_Node000003" class="edge">
<title>Node2&#45;&gt;Node3</title>
<g id="a_edge2_Node000002_Node000003"><a xlink:title=" ">
<path fill="none" stroke="#63b8ff" d="M249.15,-286.62C257.46,-286.62 265.68,-286.62 273.13,-286.62"/>
<polygon fill="#63b8ff" stroke="#63b8ff" points="249.35,-283.13 239.34,-286.63 249.34,-290.13 249.35,-283.13"/>
</a>
</g>
</g>
<!-- Node4 -->
<g id="Node000004" class="node">
<title>Node4</title>
<g id="a_Node000004"><a xlink:href="structdBgS__Acch.html" target="_top" xlink:title=" ">
<polygon fill="white" stroke="#666666" points="452.12,-611.25 384.38,-611.25 384.38,-592 452.12,-592 452.12,-611.25"/>
<text text-anchor="middle" x="418.25" y="-597.75" font-family="Helvetica,sans-Serif" font-size="10.00">dBgS_Acch</text>
</a>
</g>
</g>
<!-- Node3&#45;&gt;Node4 -->
<g id="edge3_Node000003_Node000004" class="edge">
<title>Node3&#45;&gt;Node4</title>
<g id="a_edge3_Node000003_Node000004"><a xlink:title=" ">
<path fill="none" stroke="#63b8ff" d="M310.71,-307.54C320.46,-347.51 343.66,-437.18 372,-509.62 384.06,-540.46 402.48,-575.05 411.66,-591.67"/>
<polygon fill="#63b8ff" stroke="#63b8ff" points="314.17,-306.98 308.43,-298.08 307.37,-308.62 314.17,-306.98"/>
</a>
</g>
</g>
<!-- Node9 -->
<g id="Node000009" class="node">
<title>Node9</title>
<g id="a_Node000009"><a xlink:href="structdBgS__CaptPoly.html" target="_top" xlink:title=" ">
<polygon fill="white" stroke="#666666" points="460.38,-500.25 376.12,-500.25 376.12,-481 460.38,-481 460.38,-500.25"/>
<text text-anchor="middle" x="418.25" y="-486.75" font-family="Helvetica,sans-Serif" font-size="10.00">dBgS_CaptPoly</text>
</a>
</g>
</g>
<!-- Node3&#45;&gt;Node9 -->
<g id="edge8_Node000003_Node000009" class="edge">
<title>Node3&#45;&gt;Node9</title>
<g id="a_edge8_Node000003_Node000009"><a xlink:title=" ">
<path fill="none" stroke="#63b8ff" d="M307.64,-307.71C312.12,-345.6 326.68,-425.62 372,-472.62 375.05,-475.79 378.73,-478.41 382.66,-480.58"/>
<polygon fill="#63b8ff" stroke="#63b8ff" points="311.16,-307.67 306.64,-298.09 304.2,-308.4 311.16,-307.67"/>
</a>
</g>
</g>
<!-- Node10 -->
<g id="Node000010" class="node">
<title>Node10</title>
<g id="a_Node000010"><a xlink:href="structdBgS__GndChk.html" target="_top" xlink:title=" ">
<polygon fill="white" stroke="#666666" points="458.5,-463.25 378,-463.25 378,-444 458.5,-444 458.5,-463.25"/>
<text text-anchor="middle" x="418.25" y="-449.75" font-family="Helvetica,sans-Serif" font-size="10.00">dBgS_GndChk</text>
</a>
</g>
</g>
<!-- Node3&#45;&gt;Node10 -->
<g id="edge9_Node000003_Node000010" class="edge">
<title>Node3&#45;&gt;Node10</title>
<g id="a_edge9_Node000003_Node000010"><a xlink:title=" ">
<path fill="none" stroke="#63b8ff" d="M318.6,-305.88C342.36,-341.46 392.37,-416.36 410.5,-443.52"/>
<polygon fill="#63b8ff" stroke="#63b8ff" points="321.69,-304.2 313.23,-297.83 315.87,-308.09 321.69,-304.2"/>
</a>
</g>
</g>
<!-- Node18 -->
<g id="Node000018" class="node">
<title>Node18</title>
<g id="a_Node000018"><a xlink:href="structdBgS__LinChk.html" target="_top" xlink:title=" ">
<polygon fill="white" stroke="#666666" points="456.25,-296.25 380.25,-296.25 380.25,-277 456.25,-277 456.25,-296.25"/>
<text text-anchor="middle" x="418.25" y="-282.75" font-family="Helvetica,sans-Serif" font-size="10.00">dBgS_LinChk</text>
</a>
</g>
</g>
<!-- Node3&#45;&gt;Node18 -->
<g id="edge17_Node000003_Node000018" class="edge">
<title>Node3&#45;&gt;Node18</title>
<g id="a_edge17_Node000003_Node000018"><a xlink:title=" ">
<path fill="none" stroke="#63b8ff" d="M347.46,-286.62C358.16,-286.62 369.61,-286.62 380.06,-286.62"/>
<polygon fill="#63b8ff" stroke="#63b8ff" points="347.73,-283.13 337.73,-286.63 347.73,-290.13 347.73,-283.13"/>
</a>
</g>
</g>
<!-- Node28 -->
<g id="Node000028" class="node">
<title>Node28</title>
<g id="a_Node000028"><a xlink:href="classdBgS__RoofChk.html" target="_top" xlink:title=" ">
<polygon fill="white" stroke="#666666" points="459.62,-130.25 376.88,-130.25 376.88,-111 459.62,-111 459.62,-130.25"/>
<text text-anchor="middle" x="418.25" y="-116.75" font-family="Helvetica,sans-Serif" font-size="10.00">dBgS_RoofChk</text>
</a>
</g>
</g>
<!-- Node3&#45;&gt;Node28 -->
<g id="edge27_Node000003_Node000028" class="edge">
<title>Node3&#45;&gt;Node28</title>
<g id="a_edge27_Node000003_Node000028"><a xlink:title=" ">
<path fill="none" stroke="#63b8ff" d="M318.6,-267.49C342.36,-232.12 392.37,-157.66 410.5,-130.67"/>
<polygon fill="#63b8ff" stroke="#63b8ff" points="315.91,-265.23 313.23,-275.48 321.72,-269.13 315.91,-265.23"/>
</a>
</g>
</g>
<!-- Node31 -->
<g id="Node000031" class="node">
<title>Node31</title>
<g id="a_Node000031"><a xlink:href="classdBgS__SphChk.html" target="_top" xlink:title=" ">
<polygon fill="white" stroke="#666666" points="458.12,-75.25 378.38,-75.25 378.38,-56 458.12,-56 458.12,-75.25"/>
<text text-anchor="middle" x="418.25" y="-61.75" font-family="Helvetica,sans-Serif" font-size="10.00">dBgS_SphChk</text>
</a>
</g>
</g>
<!-- Node3&#45;&gt;Node31 -->
<g id="edge30_Node000003_Node000031" class="edge">
<title>Node3&#45;&gt;Node31</title>
<g id="a_edge30_Node000003_Node000031"><a xlink:title=" ">
<path fill="none" stroke="#63b8ff" d="M309.3,-265.87C316.29,-229.7 334.52,-153.98 372,-101.62 379.6,-91.01 391.15,-81.9 400.68,-75.49"/>
<polygon fill="#63b8ff" stroke="#63b8ff" points="305.91,-264.96 307.56,-275.42 312.8,-266.21 305.91,-264.96"/>
</a>
</g>
</g>
<!-- Node33 -->
<g id="Node000033" class="node">
<title>Node33</title>
<g id="a_Node000033"><a xlink:href="classdBgS__SplGrpChk.html" target="_top" xlink:title=" ">
<polygon fill="white" stroke="#666666" points="464.5,-29.25 372,-29.25 372,-10 464.5,-10 464.5,-29.25"/>
<text text-anchor="middle" x="418.25" y="-15.75" font-family="Helvetica,sans-Serif" font-size="10.00">dBgS_SplGrpChk</text>
</a>
</g>
</g>
<!-- Node3&#45;&gt;Node33 -->
<g id="edge32_Node000003_Node000033" class="edge">
<title>Node3&#45;&gt;Node33</title>
<g id="a_edge32_Node000003_Node000033"><a xlink:title=" ">
<path fill="none" stroke="#63b8ff" d="M306.44,-265.4C308.92,-220.51 320.26,-114.53 372,-46.62 377.43,-39.49 385.34,-33.87 393.03,-29.63"/>
<polygon fill="#63b8ff" stroke="#63b8ff" points="302.95,-265.15 306,-275.29 309.94,-265.46 302.95,-265.15"/>
</a>
</g>
</g>
<!-- Node5 -->
<g id="Node000005" class="node">
<title>Node5</title>
<g id="a_Node000005"><a xlink:href="classdBgS__BombAcch.html" target="_top" xlink:title=" ">
<polygon fill="white" stroke="#666666" points="609.88,-685.25 516.62,-685.25 516.62,-666 609.88,-666 609.88,-685.25"/>
<text text-anchor="middle" x="563.25" y="-671.75" font-family="Helvetica,sans-Serif" font-size="10.00">dBgS_BombAcch</text>
</a>
</g>
</g>
<!-- Node4&#45;&gt;Node5 -->
<g id="edge4_Node000004_Node000005" class="edge">
<title>Node4&#45;&gt;Node5</title>
<g id="a_edge4_Node000004_Node000005"><a xlink:title=" ">
<path fill="none" stroke="#63b8ff" d="M440.02,-618.73C455.79,-631 478.46,-647.15 500.5,-657.62 506.85,-660.64 513.82,-663.27 520.71,-665.51"/>
<polygon fill="#63b8ff" stroke="#63b8ff" points="442.34,-616.1 432.34,-612.61 437.99,-621.58 442.34,-616.1"/>
</a>
</g>
</g>
<!-- Node6 -->
<g id="Node000006" class="node">
<title>Node6</title>
<g id="a_Node000006"><a xlink:href="classdBgS__LinkAcch.html" target="_top" xlink:title=" ">
<polygon fill="white" stroke="#666666" points="606.5,-648.25 520,-648.25 520,-629 606.5,-629 606.5,-648.25"/>
<text text-anchor="middle" x="563.25" y="-634.75" font-family="Helvetica,sans-Serif" font-size="10.00">dBgS_LinkAcch</text>
</a>
</g>
</g>
<!-- Node4&#45;&gt;Node6 -->
<g id="edge5_Node000004_Node000006" class="edge">
<title>Node4&#45;&gt;Node6</title>
<g id="a_edge5_Node000004_Node000006"><a xlink:title=" ">
<path fill="none" stroke="#63b8ff" d="M463.54,-613.08C482.61,-618.02 504.72,-623.74 523.17,-628.51"/>
<polygon fill="#63b8ff" stroke="#63b8ff" points="464.44,-609.7 453.88,-610.59 462.69,-616.48 464.44,-609.7"/>
</a>
</g>
</g>
<!-- Node7 -->
<g id="Node000007" class="node">
<title>Node7</title>
<g id="a_Node000007"><a xlink:href="structdBgS__ObjAcch.html" target="_top" xlink:title=" ">
<polygon fill="white" stroke="#666666" points="604.62,-611.25 521.88,-611.25 521.88,-592 604.62,-592 604.62,-611.25"/>
<text text-anchor="middle" x="563.25" y="-597.75" font-family="Helvetica,sans-Serif" font-size="10.00">dBgS_ObjAcch</text>
</a>
</g>
</g>
<!-- Node4&#45;&gt;Node7 -->
<g id="edge6_Node000004_Node000007" class="edge">
<title>Node4&#45;&gt;Node7</title>
<g id="a_edge6_Node000004_Node000007"><a xlink:title=" ">
<path fill="none" stroke="#63b8ff" d="M463.8,-601.62C482.27,-601.62 503.56,-601.62 521.61,-601.62"/>
<polygon fill="#63b8ff" stroke="#63b8ff" points="463.93,-598.13 453.93,-601.63 463.93,-605.13 463.93,-598.13"/>
</a>
</g>
</g>
<!-- Node8 -->
<g id="Node000008" class="node">
<title>Node8</title>
<g id="a_Node000008"><a xlink:href="classdBgS__StatueAcch.html" target="_top" xlink:title=" ">
<polygon fill="white" stroke="#666666" points="611.38,-574.25 515.12,-574.25 515.12,-555 611.38,-555 611.38,-574.25"/>
<text text-anchor="middle" x="563.25" y="-560.75" font-family="Helvetica,sans-Serif" font-size="10.00">dBgS_StatueAcch</text>
</a>
</g>
</g>
<!-- Node4&#45;&gt;Node8 -->
<g id="edge7_Node000004_Node000008" class="edge">
<title>Node4&#45;&gt;Node8</title>
<g id="a_edge7_Node000004_Node000008"><a xlink:title=" ">
<path fill="none" stroke="#63b8ff" d="M463.54,-590.17C482.61,-585.23 504.72,-579.51 523.17,-574.74"/>
<polygon fill="#63b8ff" stroke="#63b8ff" points="462.69,-586.77 453.88,-592.66 464.44,-593.55 462.69,-586.77"/>
</a>
</g>
</g>
<!-- Node11 -->
<g id="Node000011" class="node">
<title>Node11</title>
<g id="a_Node000011"><a xlink:href="classdBgS__CamGndChk.html" target="_top" xlink:title=" ">
<polygon fill="white" stroke="#666666" points="613.62,-537.25 512.88,-537.25 512.88,-518 613.62,-518 613.62,-537.25"/>
<text text-anchor="middle" x="563.25" y="-523.75" font-family="Helvetica,sans-Serif" font-size="10.00">dBgS_CamGndChk</text>
</a>
</g>
</g>
<!-- Node10&#45;&gt;Node11 -->
<g id="edge10_Node000010_Node000011" class="edge">
<title>Node10&#45;&gt;Node11</title>
<g id="a_edge10_Node000010_Node000011"><a xlink:title=" ">
<path fill="none" stroke="#63b8ff" d="M459.7,-468.63C461.35,-469.58 462.96,-470.58 464.5,-471.62 483.76,-484.67 480.64,-497.5 500.5,-509.62 505.65,-512.77 511.37,-515.38 517.2,-517.56"/>
<polygon fill="#63b8ff" stroke="#63b8ff" points="461.73,-465.74 451.22,-464.37 458.58,-471.99 461.73,-465.74"/>
</a>
</g>
</g>
<!-- Node13 -->
<g id="Node000013" class="node">
<title>Node13</title>
<g id="a_Node000013"><a xlink:href="classdBgS__LinkGndChk.html" target="_top" xlink:title=" ">
<polygon fill="white" stroke="#666666" points="612.88,-500.25 513.62,-500.25 513.62,-481 612.88,-481 612.88,-500.25"/>
<text text-anchor="middle" x="563.25" y="-486.75" font-family="Helvetica,sans-Serif" font-size="10.00">dBgS_LinkGndChk</text>
</a>
</g>
</g>
<!-- Node10&#45;&gt;Node13 -->
<g id="edge12_Node000010_Node000013" class="edge">
<title>Node10&#45;&gt;Node13</title>
<g id="a_edge12_Node000010_Node000013"><a xlink:title=" ">
<path fill="none" stroke="#63b8ff" d="M469.32,-466.58C487,-471.15 506.6,-476.23 523.22,-480.53"/>
<polygon fill="#63b8ff" stroke="#63b8ff" points="470.35,-463.23 459.79,-464.11 468.6,-470.01 470.35,-463.23"/>
</a>
</g>
</g>
<!-- Node14 -->
<g id="Node000014" class="node">
<title>Node14</title>
<g id="a_Node000014"><a xlink:href="structdBgS__ObjGndChk.html" target="_top" xlink:title=" ">
<polygon fill="white" stroke="#666666" points="611,-463.25 515.5,-463.25 515.5,-444 611,-444 611,-463.25"/>
<text text-anchor="middle" x="563.25" y="-449.75" font-family="Helvetica,sans-Serif" font-size="10.00">dBgS_ObjGndChk</text>
</a>
</g>
</g>
<!-- Node10&#45;&gt;Node14 -->
<g id="edge13_Node000010_Node000014" class="edge">
<title>Node10&#45;&gt;Node14</title>
<g id="a_edge13_Node000010_Node000014"><a xlink:title=" ">
<path fill="none" stroke="#63b8ff" d="M470.12,-453.62C484.75,-453.62 500.65,-453.62 515.05,-453.62"/>
<polygon fill="#63b8ff" stroke="#63b8ff" points="470.22,-450.13 460.22,-453.63 470.22,-457.13 470.22,-450.13"/>
</a>
</g>
</g>
<!-- Node12 -->
<g id="Node000012" class="node">
<title>Node12</title>
<g id="a_Node000012"><a xlink:href="classdBgS__CamGndChk__Wtr.html" target="_top" xlink:title=" ">
<polygon fill="white" stroke="#666666" points="788.62,-537.25 667.62,-537.25 667.62,-518 788.62,-518 788.62,-537.25"/>
<text text-anchor="middle" x="728.12" y="-523.75" font-family="Helvetica,sans-Serif" font-size="10.00">dBgS_CamGndChk_Wtr</text>
</a>
</g>
</g>
<!-- Node11&#45;&gt;Node12 -->
<g id="edge11_Node000011_Node000012" class="edge">
<title>Node11&#45;&gt;Node12</title>
<g id="a_edge11_Node000011_Node000012"><a xlink:title=" ">
<path fill="none" stroke="#63b8ff" d="M625.32,-527.62C639.08,-527.62 653.66,-527.62 667.36,-527.62"/>
<polygon fill="#63b8ff" stroke="#63b8ff" points="625.52,-524.13 615.52,-527.63 625.52,-531.13 625.52,-524.13"/>
</a>
</g>
</g>
<!-- Node15 -->
<g id="Node000015" class="node">
<title>Node15</title>
<g id="a_Node000015"><a xlink:href="classdBgS__ObjGndChk__All.html" target="_top" xlink:title=" ">
<polygon fill="white" stroke="#666666" points="784.12,-500.25 672.12,-500.25 672.12,-481 784.12,-481 784.12,-500.25"/>
<text text-anchor="middle" x="728.12" y="-486.75" font-family="Helvetica,sans-Serif" font-size="10.00">dBgS_ObjGndChk_All</text>
</a>
</g>
</g>
<!-- Node14&#45;&gt;Node15 -->
<g id="edge14_Node000014_Node000015" class="edge">
<title>Node14&#45;&gt;Node15</title>
<g id="a_edge14_Node000014_Node000015"><a xlink:title=" ">
<path fill="none" stroke="#63b8ff" d="M619.86,-466.26C640.35,-470.91 663.29,-476.12 682.67,-480.53"/>
<polygon fill="#63b8ff" stroke="#63b8ff" points="620.76,-462.87 610.23,-464.07 619.21,-469.7 620.76,-462.87"/>
</a>
</g>
</g>
<!-- Node16 -->
<g id="Node000016" class="node">
<title>Node16</title>
<g id="a_Node000016"><a xlink:href="structdBgS__ObjGndChk__Spl.html" target="_top" xlink:title=" ">
<polygon fill="white" stroke="#666666" points="785.62,-463.25 670.62,-463.25 670.62,-444 785.62,-444 785.62,-463.25"/>
<text text-anchor="middle" x="728.12" y="-449.75" font-family="Helvetica,sans-Serif" font-size="10.00">dBgS_ObjGndChk_Spl</text>
</a>
</g>
</g>
<!-- Node14&#45;&gt;Node16 -->
<g id="edge15_Node000014_Node000016" class="edge">
<title>Node14&#45;&gt;Node16</title>
<g id="a_edge15_Node000014_Node000016"><a xlink:title=" ">
<path fill="none" stroke="#63b8ff" d="M622.44,-453.62C638.01,-453.62 654.82,-453.62 670.31,-453.62"/>
<polygon fill="#63b8ff" stroke="#63b8ff" points="622.87,-450.13 612.87,-453.63 622.87,-457.13 622.87,-450.13"/>
</a>
</g>
</g>
<!-- Node17 -->
<g id="Node000017" class="node">
<title>Node17</title>
<g id="a_Node000017"><a xlink:href="classdBgS__ObjGndChk__Wtr.html" target="_top" xlink:title=" ">
<polygon fill="white" stroke="#666666" points="786,-426.25 670.25,-426.25 670.25,-407 786,-407 786,-426.25"/>
<text text-anchor="middle" x="728.12" y="-412.75" font-family="Helvetica,sans-Serif" font-size="10.00">dBgS_ObjGndChk_Wtr</text>
</a>
</g>
</g>
<!-- Node14&#45;&gt;Node17 -->
<g id="edge16_Node000014_Node000017" class="edge">
<title>Node14&#45;&gt;Node17</title>
<g id="a_edge16_Node000014_Node000017"><a xlink:title=" ">
<path fill="none" stroke="#63b8ff" d="M619.86,-440.99C640.35,-436.34 663.29,-431.13 682.67,-426.72"/>
<polygon fill="#63b8ff" stroke="#63b8ff" points="619.21,-437.55 610.23,-443.18 620.76,-444.38 619.21,-437.55"/>
</a>
</g>
</g>
<!-- Node19 -->
<g id="Node000019" class="node">
<title>Node19</title>
<g id="a_Node000019"><a xlink:href="classdBgS__ArrowLinChk.html" target="_top" xlink:title=" ">
<polygon fill="white" stroke="#666666" points="614,-426.25 512.5,-426.25 512.5,-407 614,-407 614,-426.25"/>
<text text-anchor="middle" x="563.25" y="-412.75" font-family="Helvetica,sans-Serif" font-size="10.00">dBgS_ArrowLinChk</text>
</a>
</g>
</g>
<!-- Node18&#45;&gt;Node19 -->
<g id="edge18_Node000018_Node000019" class="edge">
<title>Node18&#45;&gt;Node19</title>
<g id="a_edge18_Node000018_Node000019"><a xlink:title=" ">
<path fill="none" stroke="#63b8ff" d="M428.71,-306.95C441.48,-332.18 466.6,-374.76 500.5,-398.62 504.97,-401.77 510,-404.38 515.2,-406.53"/>
<polygon fill="#63b8ff" stroke="#63b8ff" points="431.92,-305.54 424.39,-298.08 425.62,-308.6 431.92,-305.54"/>
</a>
</g>
</g>
<!-- Node20 -->
<g id="Node000020" class="node">
<title>Node20</title>
<g id="a_Node000020"><a xlink:href="classdBgS__BombLinChk.html" target="_top" xlink:title=" ">
<polygon fill="white" stroke="#666666" points="614,-389.25 512.5,-389.25 512.5,-370 614,-370 614,-389.25"/>
<text text-anchor="middle" x="563.25" y="-375.75" font-family="Helvetica,sans-Serif" font-size="10.00">dBgS_BombLinChk</text>
</a>
</g>
</g>
<!-- Node18&#45;&gt;Node20 -->
<g id="edge19_Node000018_Node000020" class="edge">
<title>Node18&#45;&gt;Node20</title>
<g id="a_edge19_Node000018_Node000020"><a xlink:title=" ">
<path fill="none" stroke="#63b8ff" d="M434.8,-305.24C449.93,-322.23 474.41,-346.88 500.5,-361.62 506.04,-364.76 512.18,-367.39 518.37,-369.58"/>
<polygon fill="#63b8ff" stroke="#63b8ff" points="437.58,-303.11 428.39,-297.84 432.29,-307.69 437.58,-303.11"/>
</a>
</g>
</g>
<!-- Node21 -->
<g id="Node000021" class="node">
<title>Node21</title>
<g id="a_Node000021"><a xlink:href="classdBgS__BoomerangLinChk.html" target="_top" xlink:title=" ">
<polygon fill="white" stroke="#666666" points="626,-352.25 500.5,-352.25 500.5,-333 626,-333 626,-352.25"/>
<text text-anchor="middle" x="563.25" y="-338.75" font-family="Helvetica,sans-Serif" font-size="10.00">dBgS_BoomerangLinChk</text>
</a>
</g>
</g>
<!-- Node18&#45;&gt;Node21 -->
<g id="edge20_Node000018_Node000021" class="edge">
<title>Node18&#45;&gt;Node21</title>
<g id="a_edge20_Node000018_Node000021"><a xlink:title=" ">
<path fill="none" stroke="#63b8ff" d="M448.47,-301.62C463.73,-309.12 482.86,-317.97 500.5,-324.62 508.13,-327.5 516.43,-330.2 524.39,-332.59"/>
<polygon fill="#63b8ff" stroke="#63b8ff" points="450.45,-298.7 439.94,-297.38 447.33,-304.97 450.45,-298.7"/>
</a>
</g>
</g>
<!-- Node22 -->
<g id="Node000022" class="node">
<title>Node22</title>
<g id="a_Node000022"><a xlink:href="classdBgS__CamLinChk.html" target="_top" xlink:title=" ">
<polygon fill="white" stroke="#666666" points="611.38,-315.25 515.12,-315.25 515.12,-296 611.38,-296 611.38,-315.25"/>
<text text-anchor="middle" x="563.25" y="-301.75" font-family="Helvetica,sans-Serif" font-size="10.00">dBgS_CamLinChk</text>
</a>
</g>
</g>
<!-- Node18&#45;&gt;Node22 -->
<g id="edge21_Node000018_Node000022" class="edge">
<title>Node18&#45;&gt;Node22</title>
<g id="a_edge21_Node000018_Node000022"><a xlink:title=" ">
<path fill="none" stroke="#63b8ff" d="M467.7,-293.06C482.87,-295.08 499.6,-297.3 514.71,-299.31"/>
<polygon fill="#63b8ff" stroke="#63b8ff" points="468.32,-289.61 457.95,-291.77 467.4,-296.55 468.32,-289.61"/>
</a>
</g>
</g>
<!-- Node24 -->
<g id="Node000024" class="node">
<title>Node24</title>
<g id="a_Node000024"><a xlink:href="classdBgS__HorseLinChk.html" target="_top" xlink:title=" ">
<polygon fill="white" stroke="#666666" points="614.38,-278.25 512.12,-278.25 512.12,-259 614.38,-259 614.38,-278.25"/>
<text text-anchor="middle" x="563.25" y="-264.75" font-family="Helvetica,sans-Serif" font-size="10.00">dBgS_HorseLinChk</text>
</a>
</g>
</g>
<!-- Node18&#45;&gt;Node24 -->
<g id="edge23_Node000018_Node000024" class="edge">
<title>Node18&#45;&gt;Node24</title>
<g id="a_edge23_Node000018_Node000024"><a xlink:title=" ">
<path fill="none" stroke="#63b8ff" d="M467.53,-280.55C481.77,-278.75 497.4,-276.79 511.78,-274.98"/>
<polygon fill="#63b8ff" stroke="#63b8ff" points="467.43,-277.03 457.95,-281.75 468.31,-283.98 467.43,-277.03"/>
</a>
</g>
</g>
<!-- Node25 -->
<g id="Node000025" class="node">
<title>Node25</title>
<g id="a_Node000025"><a xlink:href="classdBgS__LinkLinChk.html" target="_top" xlink:title=" ">
<polygon fill="white" stroke="#666666" points="610.62,-241.25 515.88,-241.25 515.88,-222 610.62,-222 610.62,-241.25"/>
<text text-anchor="middle" x="563.25" y="-227.75" font-family="Helvetica,sans-Serif" font-size="10.00">dBgS_LinkLinChk</text>
</a>
</g>
</g>
<!-- Node18&#45;&gt;Node25 -->
<g id="edge24_Node000018_Node000025" class="edge">
<title>Node18&#45;&gt;Node25</title>
<g id="a_edge24_Node000018_Node000025"><a xlink:title=" ">
<path fill="none" stroke="#63b8ff" d="M449.57,-271.56C464.66,-264.39 483.31,-256.01 500.5,-249.62 508.14,-246.79 516.45,-244.11 524.42,-241.72"/>
<polygon fill="#63b8ff" stroke="#63b8ff" points="448.13,-268.37 440.64,-275.87 451.17,-274.68 448.13,-268.37"/>
</a>
</g>
</g>
<!-- Node26 -->
<g id="Node000026" class="node">
<title>Node26</title>
<g id="a_Node000026"><a xlink:href="classdBgS__ObjLinChk.html" target="_top" xlink:title=" ">
<polygon fill="white" stroke="#666666" points="608.75,-204.25 517.75,-204.25 517.75,-185 608.75,-185 608.75,-204.25"/>
<text text-anchor="middle" x="563.25" y="-190.75" font-family="Helvetica,sans-Serif" font-size="10.00">dBgS_ObjLinChk</text>
</a>
</g>
</g>
<!-- Node18&#45;&gt;Node26 -->
<g id="edge25_Node000018_Node000026" class="edge">
<title>Node18&#45;&gt;Node26</title>
<g id="a_edge25_Node000018_Node000026"><a xlink:title=" ">
<path fill="none" stroke="#63b8ff" d="M434.85,-268.27C450.02,-251.51 474.53,-227.19 500.5,-212.62 506.05,-209.51 512.19,-206.89 518.38,-204.7"/>
<polygon fill="#63b8ff" stroke="#63b8ff" points="432.41,-265.74 428.43,-275.56 437.66,-270.36 432.41,-265.74"/>
</a>
</g>
</g>
<!-- Node27 -->
<g id="Node000027" class="node">
<title>Node27</title>
<g id="a_Node000027"><a xlink:href="classdBgS__RopeLinChk.html" target="_top" xlink:title=" ">
<polygon fill="white" stroke="#666666" points="612.5,-167.25 514,-167.25 514,-148 612.5,-148 612.5,-167.25"/>
<text text-anchor="middle" x="563.25" y="-153.75" font-family="Helvetica,sans-Serif" font-size="10.00">dBgS_RopeLinChk</text>
</a>
</g>
</g>
<!-- Node18&#45;&gt;Node27 -->
<g id="edge26_Node000018_Node000027" class="edge">
<title>Node18&#45;&gt;Node27</title>
<g id="a_edge26_Node000018_Node000027"><a xlink:title=" ">
<path fill="none" stroke="#63b8ff" d="M428.76,-266.48C441.58,-241.48 466.75,-199.28 500.5,-175.62 504.98,-172.48 510.01,-169.89 515.21,-167.74"/>
<polygon fill="#63b8ff" stroke="#63b8ff" points="425.71,-264.75 424.42,-275.27 431.99,-267.85 425.71,-264.75"/>
</a>
</g>
</g>
<!-- Node23 -->
<g id="Node000023" class="node">
<title>Node23</title>
<g id="a_Node000023"><a xlink:href="classdBgS__CamLinChk__NorWtr.html" target="_top" xlink:title=" ">
<polygon fill="white" stroke="#666666" points="794.25,-315.25 662,-315.25 662,-296 794.25,-296 794.25,-315.25"/>
<text text-anchor="middle" x="728.12" y="-301.75" font-family="Helvetica,sans-Serif" font-size="10.00">dBgS_CamLinChk_NorWtr</text>
</a>
</g>
</g>
<!-- Node22&#45;&gt;Node23 -->
<g id="edge22_Node000022_Node000023" class="edge">
<title>Node22&#45;&gt;Node23</title>
<g id="a_edge22_Node000022_Node000023"><a xlink:title=" ">
<path fill="none" stroke="#63b8ff" d="M623.05,-305.62C635.58,-305.62 648.9,-305.62 661.66,-305.62"/>
<polygon fill="#63b8ff" stroke="#63b8ff" points="623.31,-302.13 613.31,-305.63 623.31,-309.13 623.31,-302.13"/>
</a>
</g>
</g>
<!-- Node29 -->
<g id="Node000029" class="node">
<title>Node29</title>
<g id="a_Node000029"><a xlink:href="classdBgS__LinkRoofChk.html" target="_top" xlink:title=" ">
<polygon fill="white" stroke="#666666" points="614,-130.25 512.5,-130.25 512.5,-111 614,-111 614,-130.25"/>
<text text-anchor="middle" x="563.25" y="-116.75" font-family="Helvetica,sans-Serif" font-size="10.00">dBgS_LinkRoofChk</text>
</a>
</g>
</g>
<!-- Node28&#45;&gt;Node29 -->
<g id="edge28_Node000028_Node000029" class="edge">
<title>Node28&#45;&gt;Node29</title>
<g id="a_edge28_Node000028_Node000029"><a xlink:title=" ">
<path fill="none" stroke="#63b8ff" d="M471.26,-120.62C484.59,-120.62 498.9,-120.62 512.13,-120.62"/>
<polygon fill="#63b8ff" stroke="#63b8ff" points="471.36,-117.13 461.36,-120.63 471.36,-124.13 471.36,-117.13"/>
</a>
</g>
</g>
<!-- Node30 -->
<g id="Node000030" class="node">
<title>Node30</title>
<g id="a_Node000030"><a xlink:href="classdBgS__ObjRoofChk.html" target="_top" xlink:title=" ">
<polygon fill="white" stroke="#666666" points="612.12,-93.25 514.38,-93.25 514.38,-74 612.12,-74 612.12,-93.25"/>
<text text-anchor="middle" x="563.25" y="-79.75" font-family="Helvetica,sans-Serif" font-size="10.00">dBgS_ObjRoofChk</text>
</a>
</g>
</g>
<!-- Node28&#45;&gt;Node30 -->
<g id="edge29_Node000028_Node000030" class="edge">
<title>Node28&#45;&gt;Node30</title>
<g id="a_edge29_Node000028_Node000030"><a xlink:title=" ">
<path fill="none" stroke="#63b8ff" d="M469.32,-107.67C487,-103.1 506.6,-98.02 523.22,-93.72"/>
<polygon fill="#63b8ff" stroke="#63b8ff" points="468.6,-104.24 459.79,-110.14 470.35,-111.02 468.6,-104.24"/>
</a>
</g>
</g>
<!-- Node32 -->
<g id="Node000032" class="node">
<title>Node32</title>
<g id="a_Node000032"><a xlink:href="classdBgS__CamSphChk.html" target="_top" xlink:title=" ">
<polygon fill="white" stroke="#666666" points="613.25,-56.25 513.25,-56.25 513.25,-37 613.25,-37 613.25,-56.25"/>
<text text-anchor="middle" x="563.25" y="-42.75" font-family="Helvetica,sans-Serif" font-size="10.00">dBgS_CamSphChk</text>
</a>
</g>
</g>
<!-- Node31&#45;&gt;Node32 -->
<g id="edge31_Node000031_Node000032" class="edge">
<title>Node31&#45;&gt;Node32</title>
<g id="a_edge31_Node000031_Node000032"><a xlink:title=" ">
<path fill="none" stroke="#63b8ff" d="M469.36,-58.97C483.51,-57.09 498.89,-55.04 512.99,-53.17"/>
<polygon fill="#63b8ff" stroke="#63b8ff" points="469.28,-55.45 459.83,-60.23 470.2,-62.39 469.28,-55.45"/>
</a>
</g>
</g>
<!-- Node34 -->
<g id="Node000034" class="node">
<title>Node34</title>
<g id="a_Node000034"><a xlink:href="classdBgS__WtrChk.html" target="_top" xlink:title=" ">
<polygon fill="white" stroke="#666666" points="602,-19.25 524.5,-19.25 524.5,0 602,0 602,-19.25"/>
<text text-anchor="middle" x="563.25" y="-5.75" font-family="Helvetica,sans-Serif" font-size="10.00">dBgS_WtrChk</text>
</a>
</g>
</g>
<!-- Node33&#45;&gt;Node34 -->
<g id="edge33_Node000033_Node000034" class="edge">
<title>Node33&#45;&gt;Node34</title>
<g id="a_edge33_Node000033_Node000034"><a xlink:title=" ">
<path fill="none" stroke="#63b8ff" d="M476.37,-15.63C492.46,-14.51 509.56,-13.31 524.23,-12.28"/>
<polygon fill="#63b8ff" stroke="#63b8ff" points="476.13,-12.14 466.4,-16.33 476.62,-19.12 476.13,-12.14"/>
</a>
</g>
</g>
</g>
</svg>

<g id="navigator" transform="translate(0 0)" fill="#404254">
  <rect fill="#f2f5e9" fill-opacity="0.5" stroke="#606060" stroke-width=".5" x="0" y="0" width="60" height="60"/>
  <use id="zoomplus" xlink:href="#zoomPlus" x="17" y="9" onmousedown="handleZoom(evt,'in')"/>
  <use id="zoomminus" xlink:href="#zoomMin" x="42" y="9" onmousedown="handleZoom(evt,'out')"/>
  <use id="reset" xlink:href="#resetDef" x="30" y="36" onmousedown="handleReset()"/>
   <use id="arrowup" xlink:href="#arrowUp" x="0" y="0" onmousedown="handlePan(0,-1)"/>
  <use id="arrowright" xlink:href="#arrowRight" x="0" y="0" onmousedown="handlePan(1,0)"/>
  <use id="arrowdown" xlink:href="#arrowDown" x="0" y="0" onmousedown="handlePan(0,1)"/>
  <use id="arrowleft" xlink:href="#arrowLeft" x="0" y="0" onmousedown="handlePan(-1,0)"/>
</g>
<svg viewBox="0 0 15 15" width="100%" height="30px" preserveAspectRatio="xMaxYMin meet">
 <g id="arrow_out" transform="scale(0.3 0.3)">
  <a xlink:href="classcBgS__GrpPassChk__inherit__graph_org.svg" target="_base">
   <rect id="button" ry="5" rx="5" y="6" x="6" height="38" width="38"
        fill="#f2f5e9" fill-opacity="0.5" stroke="#606060" stroke-width="1.0"/>
   <path id="arrow"
     d="M 11.500037,31.436501 C 11.940474,20.09759 22.043105,11.32322 32.158766,21.979434 L 37.068811,17.246167 C 37.068811,17.246167 37.088388,32 37.088388,32 L 22.160133,31.978069 C 22.160133,31.978069 26.997745,27.140456 26.997745,27.140456 C 18.528582,18.264221 13.291696,25.230495 11.500037,31.436501 z"
     style="fill:#404040;"/>
  </a>
 </g>
</svg>

<style type='text/css'>
<![CDATA[
[data-mouse-over-selected='false'] { opacity: 0.7; }
[data-mouse-over-selected='true']  { opacity: 1.0; }
]]>
</style>
<script type="application/ecmascript"><![CDATA[
document.addEventListener('DOMContentLoaded', (event) => {
  highlightEdges();
  highlightAdjacentNodes();
});
]]></script>
</svg>
