<?xml version="1.0" encoding="UTF-8" standalone="no"?>
<!DOCTYPE svg PUBLIC "-//W3C//DTD SVG 1.1//EN"
 "http://www.w3.org/Graphics/SVG/1.1/DTD/svg11.dtd">
<!-- Generated by graphviz version 9.0.0 (20230911.1827)
 -->
<!-- Title: daAlink_blur_c Pages: 1 -->
<svg width="351pt" height="243pt"
 viewBox="0.00 0.00 350.50 243.25" xmlns="http://www.w3.org/2000/svg" xmlns:xlink="http://www.w3.org/1999/xlink">
<g id="graph0" class="graph" transform="scale(1 1) rotate(0) translate(4 239.25)">
<title>daAlink_blur_c</title>
<!-- Node1 -->
<g id="Node000001" class="node">
<title>Node1</title>
<g id="a_Node000001"><a xlink:title=" ">
<polygon fill="#999999" stroke="#666666" points="233.88,-19.25 154.12,-19.25 154.12,0 233.88,0 233.88,-19.25"/>
<text text-anchor="middle" x="194" y="-5.75" font-family="Helvetica,sans-Serif" font-size="10.00">daAlink_blur_c</text>
</a>
</g>
</g>
<!-- Node2 -->
<g id="Node000002" class="node">
<title>Node2</title>
<g id="a_Node000002"><a xlink:href="classJ3DPacket.html" target="_top" xlink:title=" ">
<polygon fill="white" stroke="#666666" points="64,-143.62 0,-143.62 0,-124.38 64,-124.38 64,-143.62"/>
<text text-anchor="middle" x="32" y="-130.12" font-family="Helvetica,sans-Serif" font-size="10.00">J3DPacket</text>
</a>
</g>
</g>
<!-- Node2&#45;&gt;Node1 -->
<g id="edge1_Node000001_Node000002" class="edge">
<title>Node2&#45;&gt;Node1</title>
<g id="a_edge1_Node000001_Node000002"><a xlink:title=" ">
<path fill="none" stroke="#63b8ff" d="M53.09,-117.07C87.54,-91.05 154.79,-40.25 182.07,-19.64"/>
<polygon fill="#63b8ff" stroke="#63b8ff" points="50.99,-114.27 45.12,-123.09 55.21,-119.85 50.99,-114.27"/>
</a>
</g>
</g>
<!-- Node2&#45;&gt;Node2 -->
<g id="edge2_Node000002_Node000002" class="edge">
<title>Node2&#45;&gt;Node2</title>
<g id="a_edge2_Node000002_Node000002"><a xlink:title=" ">
<path fill="none" stroke="#9a32cd" stroke-dasharray="5,2" d="M61.55,-145.87C72.75,-146.32 82,-142.36 82,-134 82,-122.96 65.88,-119.6 50.46,-123.91"/>
<polygon fill="#9a32cd" stroke="#9a32cd" points="62.38,-142.46 51.96,-144.33 61.27,-149.37 62.38,-142.46"/>
</a>
</g>
<text text-anchor="middle" x="114.25" y="-135.75" font-family="Helvetica,sans-Serif" font-size="10.00" fill="grey"> mpFirstChild</text>
<text text-anchor="middle" x="114.25" y="-124.5" font-family="Helvetica,sans-Serif" font-size="10.00" fill="grey">mpNextPacket</text>
</g>
<!-- Node3 -->
<g id="Node000003" class="node">
<title>Node3</title>
<g id="a_Node000003"><a xlink:href="structResTIMG.html" target="_top" xlink:title="Image data header.">
<polygon fill="white" stroke="#666666" points="223,-143.62 165,-143.62 165,-124.38 223,-124.38 223,-143.62"/>
<text text-anchor="middle" x="194" y="-130.12" font-family="Helvetica,sans-Serif" font-size="10.00">ResTIMG</text>
</a>
</g>
</g>
<!-- Node3&#45;&gt;Node1 -->
<g id="edge3_Node000001_Node000003" class="edge">
<title>Node3&#45;&gt;Node1</title>
<g id="a_edge3_Node000001_Node000003"><a xlink:title=" ">
<path fill="none" stroke="#9a32cd" stroke-dasharray="5,2" d="M194,-112.74C194,-85.77 194,-39.22 194,-19.68"/>
<polygon fill="#9a32cd" stroke="#9a32cd" points="190.5,-112.69 194,-122.69 197.5,-112.69 190.5,-112.69"/>
</a>
</g>
<text text-anchor="middle" x="217.62" y="-50.25" font-family="Helvetica,sans-Serif" font-size="10.00" fill="grey"> m_blurTex</text>
</g>
<!-- Node4 -->
<g id="Node000004" class="node">
<title>Node4</title>
<g id="a_Node000004"><a xlink:href="structcXyz.html" target="_top" xlink:title=" ">
<polygon fill="white" stroke="#666666" points="282.5,-143.62 245.5,-143.62 245.5,-124.38 282.5,-124.38 282.5,-143.62"/>
<text text-anchor="middle" x="264" y="-130.12" font-family="Helvetica,sans-Serif" font-size="10.00">cXyz</text>
</a>
</g>
</g>
<!-- Node4&#45;&gt;Node1 -->
<g id="edge4_Node000001_Node000004" class="edge">
<title>Node4&#45;&gt;Node1</title>
<g id="a_edge4_Node000001_Node000004"><a xlink:title=" ">
<path fill="none" stroke="#9a32cd" stroke-dasharray="5,2" d="M264.01,-112.8C263.03,-91.93 258.65,-59.37 242,-37.25 236.16,-29.48 227.35,-23.68 218.87,-19.51"/>
<polygon fill="#9a32cd" stroke="#9a32cd" points="260.5,-112.65 264.22,-122.58 267.5,-112.5 260.5,-112.65"/>
</a>
</g>
<text text-anchor="middle" x="281" y="-61.5" font-family="Helvetica,sans-Serif" font-size="10.00" fill="grey"> field_0x2c</text>
<text text-anchor="middle" x="281" y="-50.25" font-family="Helvetica,sans-Serif" font-size="10.00" fill="grey">field_0x308</text>
<text text-anchor="middle" x="281" y="-39" font-family="Helvetica,sans-Serif" font-size="10.00" fill="grey">field_0x38</text>
</g>
<!-- Node4&#45;&gt;Node4 -->
<g id="edge6_Node000004_Node000004" class="edge">
<title>Node4&#45;&gt;Node4</title>
<g id="a_edge6_Node000004_Node000004"><a xlink:title=" ">
<path fill="none" stroke="#9a32cd" stroke-dasharray="5,2" d="M288.77,-145.82C295.43,-145.18 300.5,-141.24 300.5,-134 300.5,-122.96 288.74,-119.6 277.48,-123.91"/>
<polygon fill="#9a32cd" stroke="#9a32cd" points="289.39,-142.37 278.97,-144.32 288.33,-149.29 289.39,-142.37"/>
</a>
</g>
<text text-anchor="middle" x="321.5" y="-169.5" font-family="Helvetica,sans-Serif" font-size="10.00" fill="grey"> BaseX</text>
<text text-anchor="middle" x="321.5" y="-158.25" font-family="Helvetica,sans-Serif" font-size="10.00" fill="grey">BaseXY</text>
<text text-anchor="middle" x="321.5" y="-147" font-family="Helvetica,sans-Serif" font-size="10.00" fill="grey">BaseXYZ</text>
<text text-anchor="middle" x="321.5" y="-135.75" font-family="Helvetica,sans-Serif" font-size="10.00" fill="grey">BaseXZ</text>
<text text-anchor="middle" x="321.5" y="-124.5" font-family="Helvetica,sans-Serif" font-size="10.00" fill="grey">BaseY</text>
<text text-anchor="middle" x="321.5" y="-113.25" font-family="Helvetica,sans-Serif" font-size="10.00" fill="grey">BaseYZ</text>
<text text-anchor="middle" x="321.5" y="-102" font-family="Helvetica,sans-Serif" font-size="10.00" fill="grey">BaseZ</text>
<text text-anchor="middle" x="321.5" y="-90.75" font-family="Helvetica,sans-Serif" font-size="10.00" fill="grey">Zero</text>
</g>
<!-- Node5 -->
<g id="Node000005" class="node">
<title>Node5</title>
<g id="a_Node000005"><a xlink:href="structVec.html" target="_top" xlink:title=" ">
<polygon fill="white" stroke="#666666" points="280.62,-235.25 247.38,-235.25 247.38,-216 280.62,-216 280.62,-235.25"/>
<text text-anchor="middle" x="264" y="-221.75" font-family="Helvetica,sans-Serif" font-size="10.00">Vec</text>
</a>
</g>
</g>
<!-- Node5&#45;&gt;Node4 -->
<g id="edge5_Node000004_Node000005" class="edge">
<title>Node5&#45;&gt;Node4</title>
<g id="a_edge5_Node000004_Node000005"><a xlink:title=" ">
<path fill="none" stroke="#63b8ff" d="M264,-204.44C264,-185.44 264,-157.89 264,-143.89"/>
<polygon fill="#63b8ff" stroke="#63b8ff" points="260.5,-204.19 264,-214.19 267.5,-204.19 260.5,-204.19"/>
</a>
</g>
</g>
</g>
</svg>
