<?xml version="1.0" encoding="UTF-8" standalone="no"?>
<!DOCTYPE svg PUBLIC "-//W3C//DTD SVG 1.1//EN"
 "http://www.w3.org/Graphics/SVG/1.1/DTD/svg11.dtd">
<!-- Generated by graphviz version 9.0.0 (20230911.1827)
 -->
<!-- Title: dBgS_SphChk Pages: 1 -->
<svg width="413pt" height="248pt"
 viewBox="0.00 0.00 412.75 248.25" xmlns="http://www.w3.org/2000/svg" xmlns:xlink="http://www.w3.org/1999/xlink">
<g id="graph0" class="graph" transform="scale(1 1) rotate(0) translate(4 244.25)">
<title>dBgS_SphChk</title>
<!-- Node1 -->
<g id="Node000001" class="node">
<title>Node1</title>
<g id="a_Node000001"><a xlink:title=" ">
<polygon fill="#999999" stroke="#666666" points="208.25,-74.5 128.5,-74.5 128.5,-55.25 208.25,-55.25 208.25,-74.5"/>
<text text-anchor="middle" x="168.38" y="-61" font-family="Helvetica,sans-Serif" font-size="10.00">dBgS_SphChk</text>
</a>
</g>
</g>
<!-- Node10 -->
<g id="Node000010" class="node">
<title>Node10</title>
<g id="a_Node000010"><a xlink:href="classdBgS__CamSphChk.html" target="_top" xlink:title=" ">
<polygon fill="white" stroke="#666666" points="218.38,-19.25 118.38,-19.25 118.38,0 218.38,0 218.38,-19.25"/>
<text text-anchor="middle" x="168.38" y="-5.75" font-family="Helvetica,sans-Serif" font-size="10.00">dBgS_CamSphChk</text>
</a>
</g>
</g>
<!-- Node1&#45;&gt;Node10 -->
<g id="edge9_Node000001_Node000010" class="edge">
<title>Node1&#45;&gt;Node10</title>
<g id="a_edge9_Node000001_Node000010"><a xlink:title=" ">
<path fill="none" stroke="#63b8ff" d="M168.38,-43.63C168.38,-35.34 168.38,-26.17 168.38,-19.61"/>
<polygon fill="#63b8ff" stroke="#63b8ff" points="164.88,-43.57 168.38,-53.57 171.88,-43.57 164.88,-43.57"/>
</a>
</g>
</g>
<!-- Node2 -->
<g id="Node000002" class="node">
<title>Node2</title>
<g id="a_Node000002"><a xlink:href="structcM3dGSph.html" target="_top" xlink:title=" ">
<polygon fill="white" stroke="#666666" points="64.75,-129.75 0,-129.75 0,-110.5 64.75,-110.5 64.75,-129.75"/>
<text text-anchor="middle" x="32.38" y="-116.25" font-family="Helvetica,sans-Serif" font-size="10.00">cM3dGSph</text>
</a>
</g>
</g>
<!-- Node2&#45;&gt;Node1 -->
<g id="edge1_Node000001_Node000002" class="edge">
<title>Node2&#45;&gt;Node1</title>
<g id="a_edge1_Node000001_Node000002"><a xlink:title=" ">
<path fill="none" stroke="#63b8ff" d="M66.12,-105.91C90.74,-96.27 123.47,-83.46 145.19,-74.95"/>
<polygon fill="#63b8ff" stroke="#63b8ff" points="64.89,-102.63 56.85,-109.54 67.44,-109.15 64.89,-102.63"/>
</a>
</g>
</g>
<!-- Node3 -->
<g id="Node000003" class="node">
<title>Node3</title>
<g id="a_Node000003"><a xlink:href="structcBgS__PolyInfo.html" target="_top" xlink:title=" ">
<polygon fill="white" stroke="#666666" points="163.62,-129.75 83.12,-129.75 83.12,-110.5 163.62,-110.5 163.62,-129.75"/>
<text text-anchor="middle" x="123.38" y="-116.25" font-family="Helvetica,sans-Serif" font-size="10.00">cBgS_PolyInfo</text>
</a>
</g>
</g>
<!-- Node3&#45;&gt;Node1 -->
<g id="edge2_Node000001_Node000003" class="edge">
<title>Node3&#45;&gt;Node1</title>
<g id="a_edge2_Node000001_Node000003"><a xlink:title=" ">
<path fill="none" stroke="#63b8ff" d="M138.05,-101.76C145.64,-92.78 154.58,-82.2 160.78,-74.86"/>
<polygon fill="#63b8ff" stroke="#63b8ff" points="135.56,-99.28 131.78,-109.18 140.91,-103.8 135.56,-99.28"/>
</a>
</g>
</g>
<!-- Node4 -->
<g id="Node000004" class="node">
<title>Node4</title>
<g id="a_Node000004"><a xlink:href="classcBgS__Chk.html" target="_top" xlink:title=" ">
<polygon fill="white" stroke="#666666" points="244.62,-129.75 182.12,-129.75 182.12,-110.5 244.62,-110.5 244.62,-129.75"/>
<text text-anchor="middle" x="213.38" y="-116.25" font-family="Helvetica,sans-Serif" font-size="10.00">cBgS_Chk</text>
</a>
</g>
</g>
<!-- Node4&#45;&gt;Node1 -->
<g id="edge3_Node000001_Node000004" class="edge">
<title>Node4&#45;&gt;Node1</title>
<g id="a_edge3_Node000001_Node000004"><a xlink:title=" ">
<path fill="none" stroke="#63b8ff" d="M198.7,-101.76C191.11,-92.78 182.17,-82.2 175.97,-74.86"/>
<polygon fill="#63b8ff" stroke="#63b8ff" points="195.84,-103.8 204.97,-109.18 201.19,-99.28 195.84,-103.8"/>
</a>
</g>
</g>
<!-- Node5 -->
<g id="Node000005" class="node">
<title>Node5</title>
<g id="a_Node000005"><a xlink:href="classdBgS__Chk.html" target="_top" xlink:title=" ">
<polygon fill="white" stroke="#666666" points="325.62,-129.75 263.12,-129.75 263.12,-110.5 325.62,-110.5 325.62,-129.75"/>
<text text-anchor="middle" x="294.38" y="-116.25" font-family="Helvetica,sans-Serif" font-size="10.00">dBgS_Chk</text>
</a>
</g>
</g>
<!-- Node5&#45;&gt;Node1 -->
<g id="edge4_Node000001_Node000005" class="edge">
<title>Node5&#45;&gt;Node1</title>
<g id="a_edge4_Node000001_Node000005"><a xlink:title=" ">
<path fill="none" stroke="#63b8ff" d="M262.49,-105.65C239.76,-96.04 209.8,-83.38 189.85,-74.95"/>
<polygon fill="#63b8ff" stroke="#63b8ff" points="261.03,-108.83 271.61,-109.5 263.76,-102.39 261.03,-108.83"/>
</a>
</g>
</g>
<!-- Node6 -->
<g id="Node000006" class="node">
<title>Node6</title>
<g id="a_Node000006"><a xlink:href="structdBgS__PolyPassChk.html" target="_top" xlink:title=" ">
<polygon fill="white" stroke="#666666" points="286.25,-185 182.5,-185 182.5,-165.75 286.25,-165.75 286.25,-185"/>
<text text-anchor="middle" x="234.38" y="-171.5" font-family="Helvetica,sans-Serif" font-size="10.00">dBgS_PolyPassChk</text>
</a>
</g>
</g>
<!-- Node6&#45;&gt;Node5 -->
<g id="edge5_Node000005_Node000006" class="edge">
<title>Node6&#45;&gt;Node5</title>
<g id="a_edge5_Node000005_Node000006"><a xlink:title=" ">
<path fill="none" stroke="#63b8ff" d="M252.95,-157.89C263.31,-148.69 275.81,-137.6 284.35,-130.02"/>
<polygon fill="#63b8ff" stroke="#63b8ff" points="250.84,-155.08 245.69,-164.34 255.49,-160.32 250.84,-155.08"/>
</a>
</g>
</g>
<!-- Node7 -->
<g id="Node000007" class="node">
<title>Node7</title>
<g id="a_Node000007"><a xlink:href="classcBgS__PolyPassChk.html" target="_top" xlink:title=" ">
<polygon fill="white" stroke="#666666" points="286.25,-240.25 182.5,-240.25 182.5,-221 286.25,-221 286.25,-240.25"/>
<text text-anchor="middle" x="234.38" y="-226.75" font-family="Helvetica,sans-Serif" font-size="10.00">cBgS_PolyPassChk</text>
</a>
</g>
</g>
<!-- Node7&#45;&gt;Node6 -->
<g id="edge6_Node000006_Node000007" class="edge">
<title>Node7&#45;&gt;Node6</title>
<g id="a_edge6_Node000006_Node000007"><a xlink:title=" ">
<path fill="none" stroke="#63b8ff" d="M234.38,-209.38C234.38,-201.09 234.38,-191.92 234.38,-185.36"/>
<polygon fill="#63b8ff" stroke="#63b8ff" points="230.88,-209.32 234.38,-219.32 237.88,-209.32 230.88,-209.32"/>
</a>
</g>
</g>
<!-- Node8 -->
<g id="Node000008" class="node">
<title>Node8</title>
<g id="a_Node000008"><a xlink:href="classdBgS__GrpPassChk.html" target="_top" xlink:title=" ">
<polygon fill="white" stroke="#666666" points="404.75,-185 304,-185 304,-165.75 404.75,-165.75 404.75,-185"/>
<text text-anchor="middle" x="354.38" y="-171.5" font-family="Helvetica,sans-Serif" font-size="10.00">dBgS_GrpPassChk</text>
</a>
</g>
</g>
<!-- Node8&#45;&gt;Node5 -->
<g id="edge7_Node000005_Node000008" class="edge">
<title>Node8&#45;&gt;Node5</title>
<g id="a_edge7_Node000005_Node000008"><a xlink:title=" ">
<path fill="none" stroke="#63b8ff" d="M335.8,-157.89C325.44,-148.69 312.94,-137.6 304.4,-130.02"/>
<polygon fill="#63b8ff" stroke="#63b8ff" points="333.26,-160.32 343.06,-164.34 337.91,-155.08 333.26,-160.32"/>
</a>
</g>
</g>
<!-- Node9 -->
<g id="Node000009" class="node">
<title>Node9</title>
<g id="a_Node000009"><a xlink:href="classcBgS__GrpPassChk.html" target="_top" xlink:title=" ">
<polygon fill="white" stroke="#666666" points="404.75,-240.25 304,-240.25 304,-221 404.75,-221 404.75,-240.25"/>
<text text-anchor="middle" x="354.38" y="-226.75" font-family="Helvetica,sans-Serif" font-size="10.00">cBgS_GrpPassChk</text>
</a>
</g>
</g>
<!-- Node9&#45;&gt;Node8 -->
<g id="edge8_Node000008_Node000009" class="edge">
<title>Node9&#45;&gt;Node8</title>
<g id="a_edge8_Node000008_Node000009"><a xlink:title=" ">
<path fill="none" stroke="#63b8ff" d="M354.38,-209.38C354.38,-201.09 354.38,-191.92 354.38,-185.36"/>
<polygon fill="#63b8ff" stroke="#63b8ff" points="350.88,-209.32 354.38,-219.32 357.88,-209.32 350.88,-209.32"/>
</a>
</g>
</g>
</g>
</svg>
