<?xml version="1.0" encoding="UTF-8" standalone="no"?>
<!DOCTYPE svg PUBLIC "-//W3C//DTD SVG 1.1//EN"
 "http://www.w3.org/Graphics/SVG/1.1/DTD/svg11.dtd">
<!-- Generated by graphviz version 9.0.0 (20230911.1827)
 -->
<!-- Title: dBgS_CamSphChk Pages: 1 -->
<svg width="455pt" height="344pt"
 viewBox="0.00 0.00 454.75 343.50" xmlns="http://www.w3.org/2000/svg" xmlns:xlink="http://www.w3.org/1999/xlink">
<g id="graph0" class="graph" transform="scale(1 1) rotate(0) translate(4 339.5)">
<title>dBgS_CamSphChk</title>
<!-- Node1 -->
<g id="Node000001" class="node">
<title>Node1</title>
<g id="a_Node000001"><a xlink:title=" ">
<polygon fill="#999999" stroke="#666666" points="207.38,-19.25 107.38,-19.25 107.38,0 207.38,0 207.38,-19.25"/>
<text text-anchor="middle" x="157.38" y="-5.75" font-family="Helvetica,sans-Serif" font-size="10.00">dBgS_CamSphChk</text>
</a>
</g>
</g>
<!-- Node2 -->
<g id="Node000002" class="node">
<title>Node2</title>
<g id="a_Node000002"><a xlink:href="classdBgS__SphChk.html" target="_top" xlink:title=" ">
<polygon fill="white" stroke="#666666" points="197.25,-75.5 117.5,-75.5 117.5,-56.25 197.25,-56.25 197.25,-75.5"/>
<text text-anchor="middle" x="157.38" y="-62" font-family="Helvetica,sans-Serif" font-size="10.00">dBgS_SphChk</text>
</a>
</g>
</g>
<!-- Node2&#45;&gt;Node1 -->
<g id="edge1_Node000001_Node000002" class="edge">
<title>Node2&#45;&gt;Node1</title>
<g id="a_edge1_Node000001_Node000002"><a xlink:title=" ">
<path fill="none" stroke="#63b8ff" d="M157.38,-44.69C157.38,-35.98 157.38,-26.24 157.38,-19.42"/>
<polygon fill="#63b8ff" stroke="#63b8ff" points="153.88,-44.4 157.38,-54.4 160.88,-44.4 153.88,-44.4"/>
</a>
</g>
</g>
<!-- Node2&#45;&gt;Node2 -->
<g id="edge15_Node000002_Node000002" class="edge">
<title>Node2&#45;&gt;Node2</title>
<g id="a_edge15_Node000002_Node000002"><a xlink:title=" ">
<path fill="none" stroke="#9a32cd" stroke-dasharray="5,2" d="M209,-69.81C212.87,-68.93 215.25,-67.62 215.25,-65.88 215.25,-62.77 207.73,-61.04 197.67,-60.67"/>
<polygon fill="#9a32cd" stroke="#9a32cd" points="208.73,-66.32 199.18,-70.91 209.51,-73.28 208.73,-66.32"/>
</a>
</g>
<text text-anchor="middle" x="239.25" y="-62" font-family="Helvetica,sans-Serif" font-size="10.00" fill="grey"> mCallback</text>
</g>
<!-- Node3 -->
<g id="Node000003" class="node">
<title>Node3</title>
<g id="a_Node000003"><a xlink:href="structcM3dGSph.html" target="_top" xlink:title=" ">
<polygon fill="white" stroke="#666666" points="64.75,-131.75 0,-131.75 0,-112.5 64.75,-112.5 64.75,-131.75"/>
<text text-anchor="middle" x="32.38" y="-118.25" font-family="Helvetica,sans-Serif" font-size="10.00">cM3dGSph</text>
</a>
</g>
</g>
<!-- Node3&#45;&gt;Node2 -->
<g id="edge2_Node000002_Node000003" class="edge">
<title>Node3&#45;&gt;Node2</title>
<g id="a_edge2_Node000002_Node000003"><a xlink:title=" ">
<path fill="none" stroke="#63b8ff" d="M63.78,-107.5C86.48,-97.64 116.53,-84.6 136.38,-75.98"/>
<polygon fill="#63b8ff" stroke="#63b8ff" points="62.47,-104.25 54.69,-111.44 65.25,-110.67 62.47,-104.25"/>
</a>
</g>
</g>
<!-- Node4 -->
<g id="Node000004" class="node">
<title>Node4</title>
<g id="a_Node000004"><a xlink:href="structcXyz.html" target="_top" xlink:title=" ">
<polygon fill="white" stroke="#666666" points="50.88,-233.62 13.88,-233.62 13.88,-214.38 50.88,-214.38 50.88,-233.62"/>
<text text-anchor="middle" x="32.38" y="-220.12" font-family="Helvetica,sans-Serif" font-size="10.00">cXyz</text>
</a>
</g>
</g>
<!-- Node4&#45;&gt;Node3 -->
<g id="edge3_Node000003_Node000004" class="edge">
<title>Node4&#45;&gt;Node3</title>
<g id="a_edge3_Node000003_Node000004"><a xlink:title=" ">
<path fill="none" stroke="#9a32cd" stroke-dasharray="5,2" d="M32.38,-202.72C32.38,-181.12 32.38,-147.93 32.38,-132.11"/>
<polygon fill="#9a32cd" stroke="#9a32cd" points="28.88,-202.62 32.38,-212.62 35.88,-202.62 28.88,-202.62"/>
</a>
</g>
<text text-anchor="middle" x="51.88" y="-151.5" font-family="Helvetica,sans-Serif" font-size="10.00" fill="grey"> mCenter</text>
</g>
<!-- Node4&#45;&gt;Node4 -->
<g id="edge5_Node000004_Node000004" class="edge">
<title>Node4&#45;&gt;Node4</title>
<g id="a_edge5_Node000004_Node000004"><a xlink:title=" ">
<path fill="none" stroke="#9a32cd" stroke-dasharray="5,2" d="M54.96,-236.87C62.67,-236.95 68.88,-232.66 68.88,-224 68.88,-211.4 55.75,-208.05 43.96,-213.96"/>
<polygon fill="#9a32cd" stroke="#9a32cd" points="55.98,-233.51 45.43,-234.42 54.24,-240.29 55.98,-233.51"/>
</a>
</g>
<text text-anchor="middle" x="89.88" y="-259.5" font-family="Helvetica,sans-Serif" font-size="10.00" fill="grey"> BaseX</text>
<text text-anchor="middle" x="89.88" y="-248.25" font-family="Helvetica,sans-Serif" font-size="10.00" fill="grey">BaseXY</text>
<text text-anchor="middle" x="89.88" y="-237" font-family="Helvetica,sans-Serif" font-size="10.00" fill="grey">BaseXYZ</text>
<text text-anchor="middle" x="89.88" y="-225.75" font-family="Helvetica,sans-Serif" font-size="10.00" fill="grey">BaseXZ</text>
<text text-anchor="middle" x="89.88" y="-214.5" font-family="Helvetica,sans-Serif" font-size="10.00" fill="grey">BaseY</text>
<text text-anchor="middle" x="89.88" y="-203.25" font-family="Helvetica,sans-Serif" font-size="10.00" fill="grey">BaseYZ</text>
<text text-anchor="middle" x="89.88" y="-192" font-family="Helvetica,sans-Serif" font-size="10.00" fill="grey">BaseZ</text>
<text text-anchor="middle" x="89.88" y="-180.75" font-family="Helvetica,sans-Serif" font-size="10.00" fill="grey">Zero</text>
</g>
<!-- Node5 -->
<g id="Node000005" class="node">
<title>Node5</title>
<g id="a_Node000005"><a xlink:href="structVec.html" target="_top" xlink:title=" ">
<polygon fill="white" stroke="#666666" points="49,-335.5 15.75,-335.5 15.75,-316.25 49,-316.25 49,-335.5"/>
<text text-anchor="middle" x="32.38" y="-322" font-family="Helvetica,sans-Serif" font-size="10.00">Vec</text>
</a>
</g>
</g>
<!-- Node5&#45;&gt;Node4 -->
<g id="edge4_Node000004_Node000005" class="edge">
<title>Node5&#45;&gt;Node4</title>
<g id="a_edge4_Node000004_Node000005"><a xlink:title=" ">
<path fill="none" stroke="#63b8ff" d="M32.38,-304.59C32.38,-283 32.38,-249.81 32.38,-233.99"/>
<polygon fill="#63b8ff" stroke="#63b8ff" points="28.88,-304.5 32.38,-314.5 35.88,-304.5 28.88,-304.5"/>
</a>
</g>
</g>
<!-- Node6 -->
<g id="Node000006" class="node">
<title>Node6</title>
<g id="a_Node000006"><a xlink:href="structcBgS__PolyInfo.html" target="_top" xlink:title=" ">
<polygon fill="white" stroke="#666666" points="163.62,-131.75 83.12,-131.75 83.12,-112.5 163.62,-112.5 163.62,-131.75"/>
<text text-anchor="middle" x="123.38" y="-118.25" font-family="Helvetica,sans-Serif" font-size="10.00">cBgS_PolyInfo</text>
</a>
</g>
</g>
<!-- Node6&#45;&gt;Node2 -->
<g id="edge6_Node000002_Node000006" class="edge">
<title>Node6&#45;&gt;Node2</title>
<g id="a_edge6_Node000002_Node000006"><a xlink:title=" ">
<path fill="none" stroke="#63b8ff" d="M135.09,-102.43C140.78,-93.36 147.34,-82.88 151.87,-75.67"/>
<polygon fill="#63b8ff" stroke="#63b8ff" points="132.14,-100.55 129.79,-110.88 138.07,-104.27 132.14,-100.55"/>
</a>
</g>
</g>
<!-- Node7 -->
<g id="Node000007" class="node">
<title>Node7</title>
<g id="a_Node000007"><a xlink:href="classcBgS__Chk.html" target="_top" xlink:title=" ">
<polygon fill="white" stroke="#666666" points="206.62,-233.62 144.12,-233.62 144.12,-214.38 206.62,-214.38 206.62,-233.62"/>
<text text-anchor="middle" x="175.38" y="-220.12" font-family="Helvetica,sans-Serif" font-size="10.00">cBgS_Chk</text>
</a>
</g>
</g>
<!-- Node7&#45;&gt;Node2 -->
<g id="edge7_Node000002_Node000007" class="edge">
<title>Node7&#45;&gt;Node2</title>
<g id="a_edge7_Node000002_Node000007"><a xlink:title=" ">
<path fill="none" stroke="#63b8ff" d="M176.57,-202.73C177.48,-180.44 177.8,-143.64 172.38,-112.5 170.09,-99.36 164.8,-84.82 161.16,-75.77"/>
<polygon fill="#63b8ff" stroke="#63b8ff" points="173.09,-202.36 176.08,-212.52 180.08,-202.71 173.09,-202.36"/>
</a>
</g>
</g>
<!-- Node8 -->
<g id="Node000008" class="node">
<title>Node8</title>
<g id="a_Node000008"><a xlink:href="classcBgS__PolyPassChk.html" target="_top" xlink:title=" ">
<polygon fill="white" stroke="#666666" points="248.25,-335.5 144.5,-335.5 144.5,-316.25 248.25,-316.25 248.25,-335.5"/>
<text text-anchor="middle" x="196.38" y="-322" font-family="Helvetica,sans-Serif" font-size="10.00">cBgS_PolyPassChk</text>
</a>
</g>
</g>
<!-- Node8&#45;&gt;Node7 -->
<g id="edge8_Node000007_Node000008" class="edge">
<title>Node8&#45;&gt;Node7</title>
<g id="a_edge8_Node000007_Node000008"><a xlink:title=" ">
<path fill="none" stroke="#9a32cd" stroke-dasharray="5,2" d="M188.58,-305.54C187.76,-303.11 187,-300.64 186.38,-298.25 180.43,-275.35 177.35,-247.53 176.08,-233.69"/>
<polygon fill="#9a32cd" stroke="#9a32cd" points="185.24,-306.61 192.03,-314.73 191.79,-304.14 185.24,-306.61"/>
</a>
</g>
<text text-anchor="middle" x="220.88" y="-288.75" font-family="Helvetica,sans-Serif" font-size="10.00" fill="grey"> mPolyPassChk</text>
</g>
<!-- Node11 -->
<g id="Node000011" class="node">
<title>Node11</title>
<g id="a_Node000011"><a xlink:href="structdBgS__PolyPassChk.html" target="_top" xlink:title=" ">
<polygon fill="white" stroke="#666666" points="328.25,-233.62 224.5,-233.62 224.5,-214.38 328.25,-214.38 328.25,-233.62"/>
<text text-anchor="middle" x="276.38" y="-220.12" font-family="Helvetica,sans-Serif" font-size="10.00">dBgS_PolyPassChk</text>
</a>
</g>
</g>
<!-- Node8&#45;&gt;Node11 -->
<g id="edge12_Node000011_Node000008" class="edge">
<title>Node8&#45;&gt;Node11</title>
<g id="a_edge12_Node000011_Node000008"><a xlink:title=" ">
<path fill="none" stroke="#63b8ff" d="M239.54,-310.85C245.46,-307.46 251,-303.31 255.38,-298.25 271.64,-279.44 275.34,-248.75 276.16,-233.78"/>
<polygon fill="#63b8ff" stroke="#63b8ff" points="238.15,-307.63 230.72,-315.19 241.24,-313.92 238.15,-307.63"/>
</a>
</g>
</g>
<!-- Node9 -->
<g id="Node000009" class="node">
<title>Node9</title>
<g id="a_Node000009"><a xlink:href="classcBgS__GrpPassChk.html" target="_top" xlink:title=" ">
<polygon fill="white" stroke="#666666" points="405.75,-335.5 305,-335.5 305,-316.25 405.75,-316.25 405.75,-335.5"/>
<text text-anchor="middle" x="355.38" y="-322" font-family="Helvetica,sans-Serif" font-size="10.00">cBgS_GrpPassChk</text>
</a>
</g>
</g>
<!-- Node9&#45;&gt;Node7 -->
<g id="edge9_Node000007_Node000009" class="edge">
<title>Node9&#45;&gt;Node7</title>
<g id="a_edge9_Node000007_Node000009"><a xlink:title=" ">
<path fill="none" stroke="#9a32cd" stroke-dasharray="5,2" d="M321.59,-311.61C280.91,-295.6 217.7,-270.61 215.38,-269 201.29,-259.23 188.65,-243.63 181.51,-233.87"/>
<polygon fill="#9a32cd" stroke="#9a32cd" points="320.15,-314.8 330.74,-315.2 322.71,-308.29 320.15,-314.8"/>
</a>
</g>
<text text-anchor="middle" x="319.38" y="-288.75" font-family="Helvetica,sans-Serif" font-size="10.00" fill="grey"> mGrpPassChk</text>
</g>
<!-- Node12 -->
<g id="Node000012" class="node">
<title>Node12</title>
<g id="a_Node000012"><a xlink:href="classdBgS__GrpPassChk.html" target="_top" xlink:title=" ">
<polygon fill="white" stroke="#666666" points="446.75,-233.62 346,-233.62 346,-214.38 446.75,-214.38 446.75,-233.62"/>
<text text-anchor="middle" x="396.38" y="-220.12" font-family="Helvetica,sans-Serif" font-size="10.00">dBgS_GrpPassChk</text>
</a>
</g>
</g>
<!-- Node9&#45;&gt;Node12 -->
<g id="edge14_Node000012_Node000009" class="edge">
<title>Node9&#45;&gt;Node12</title>
<g id="a_edge14_Node000012_Node000009"><a xlink:title=" ">
<path fill="none" stroke="#63b8ff" d="M373.23,-307.49C375.55,-304.58 377.7,-301.46 379.38,-298.25 390.48,-276.95 394.41,-248.43 395.73,-234.07"/>
<polygon fill="#63b8ff" stroke="#63b8ff" points="370.72,-305.04 366.59,-314.8 375.9,-309.75 370.72,-305.04"/>
</a>
</g>
</g>
<!-- Node10 -->
<g id="Node000010" class="node">
<title>Node10</title>
<g id="a_Node000010"><a xlink:href="classdBgS__Chk.html" target="_top" xlink:title=" ">
<polygon fill="white" stroke="#666666" points="307.62,-131.75 245.12,-131.75 245.12,-112.5 307.62,-112.5 307.62,-131.75"/>
<text text-anchor="middle" x="276.38" y="-118.25" font-family="Helvetica,sans-Serif" font-size="10.00">dBgS_Chk</text>
</a>
</g>
</g>
<!-- Node10&#45;&gt;Node2 -->
<g id="edge10_Node000002_Node000010" class="edge">
<title>Node10&#45;&gt;Node2</title>
<g id="a_edge10_Node000002_Node000010"><a xlink:title=" ">
<path fill="none" stroke="#63b8ff" d="M246.19,-107.36C224.61,-97.53 196.17,-84.56 177.36,-75.98"/>
<polygon fill="#63b8ff" stroke="#63b8ff" points="244.53,-110.45 255.08,-111.42 247.43,-104.08 244.53,-110.45"/>
</a>
</g>
</g>
<!-- Node11&#45;&gt;Node10 -->
<g id="edge11_Node000010_Node000011" class="edge">
<title>Node11&#45;&gt;Node10</title>
<g id="a_edge11_Node000010_Node000011"><a xlink:title=" ">
<path fill="none" stroke="#63b8ff" d="M276.38,-202.72C276.38,-181.12 276.38,-147.93 276.38,-132.11"/>
<polygon fill="#63b8ff" stroke="#63b8ff" points="272.88,-202.62 276.38,-212.62 279.88,-202.62 272.88,-202.62"/>
</a>
</g>
</g>
<!-- Node12&#45;&gt;Node10 -->
<g id="edge13_Node000010_Node000012" class="edge">
<title>Node12&#45;&gt;Node10</title>
<g id="a_edge13_Node000010_Node000012"><a xlink:title=" ">
<path fill="none" stroke="#63b8ff" d="M376.93,-206.81C351.39,-185.56 307.43,-148.97 287.17,-132.11"/>
<polygon fill="#63b8ff" stroke="#63b8ff" points="374.64,-209.46 384.56,-213.17 379.12,-204.08 374.64,-209.46"/>
</a>
</g>
</g>
</g>
</svg>
