<?xml version="1.0" encoding="UTF-8" standalone="no"?>
<!DOCTYPE svg PUBLIC "-//W3C//DTD SVG 1.1//EN"
 "http://www.w3.org/Graphics/SVG/1.1/DTD/svg11.dtd">
<!-- Generated by graphviz version 9.0.0 (20230911.1827)
 -->
<!-- Title: daNpcT_c Pages: 1 -->
<svg width="406pt" height="193pt"
 viewBox="0.00 0.00 405.50 193.00" xmlns="http://www.w3.org/2000/svg" xmlns:xlink="http://www.w3.org/1999/xlink">
<g id="graph0" class="graph" transform="scale(1 1) rotate(0) translate(4 189)">
<title>daNpcT_c</title>
<!-- Node1 -->
<g id="Node000001" class="node">
<title>Node1</title>
<g id="a_Node000001"><a xlink:title=" ">
<polygon fill="#999999" stroke="#666666" points="229.12,-74.5 168.12,-74.5 168.12,-55.25 229.12,-55.25 229.12,-74.5"/>
<text text-anchor="middle" x="198.62" y="-61" font-family="Helvetica,sans-Serif" font-size="10.00">daNpcT_c</text>
</a>
</g>
</g>
<!-- Node4 -->
<g id="Node000004" class="node">
<title>Node4</title>
<g id="a_Node000004"><a xlink:href="classdShopSystem__c.html" target="_top" xlink:title=" ">
<polygon fill="white" stroke="#666666" points="87.25,-19.25 0,-19.25 0,0 87.25,0 87.25,-19.25"/>
<text text-anchor="middle" x="43.62" y="-5.75" font-family="Helvetica,sans-Serif" font-size="10.00">dShopSystem_c</text>
</a>
</g>
</g>
<!-- Node1&#45;&gt;Node4 -->
<g id="edge3_Node000001_Node000004" class="edge">
<title>Node1&#45;&gt;Node4</title>
<g id="a_edge3_Node000001_Node000004"><a xlink:title=" ">
<path fill="none" stroke="#63b8ff" d="M161.68,-51.18C133.46,-41.49 95.25,-28.36 70.05,-19.7"/>
<polygon fill="#63b8ff" stroke="#63b8ff" points="160.31,-54.41 170.9,-54.35 162.58,-47.79 160.31,-54.41"/>
</a>
</g>
</g>
<!-- Node5 -->
<g id="Node000005" class="node">
<title>Node5</title>
<g id="a_Node000005"><a xlink:href="classdaNpc__Hanjo__c.html" target="_top" xlink:title="Hanch.">
<polygon fill="white" stroke="#666666" points="191.5,-19.25 105.75,-19.25 105.75,0 191.5,0 191.5,-19.25"/>
<text text-anchor="middle" x="148.62" y="-5.75" font-family="Helvetica,sans-Serif" font-size="10.00">daNpc_Hanjo_c</text>
</a>
</g>
</g>
<!-- Node1&#45;&gt;Node5 -->
<g id="edge4_Node000001_Node000005" class="edge">
<title>Node1&#45;&gt;Node5</title>
<g id="a_edge4_Node000001_Node000005"><a xlink:title=" ">
<path fill="none" stroke="#63b8ff" d="M182.58,-46.79C174.1,-37.75 164.02,-27.02 157.06,-19.61"/>
<polygon fill="#63b8ff" stroke="#63b8ff" points="179.94,-49.08 189.33,-53.98 185.04,-44.29 179.94,-49.08"/>
</a>
</g>
</g>
<!-- Node6 -->
<g id="Node000006" class="node">
<title>Node6</title>
<g id="a_Node000006"><a xlink:href="classdaNpc__Hoz__c.html" target="_top" xlink:title="Iza.">
<polygon fill="white" stroke="#666666" points="287.38,-19.25 209.88,-19.25 209.88,0 287.38,0 287.38,-19.25"/>
<text text-anchor="middle" x="248.62" y="-5.75" font-family="Helvetica,sans-Serif" font-size="10.00">daNpc_Hoz_c</text>
</a>
</g>
</g>
<!-- Node1&#45;&gt;Node6 -->
<g id="edge5_Node000001_Node000006" class="edge">
<title>Node1&#45;&gt;Node6</title>
<g id="a_edge5_Node000001_Node000006"><a xlink:title=" ">
<path fill="none" stroke="#63b8ff" d="M214.67,-46.79C223.15,-37.75 233.23,-27.02 240.19,-19.61"/>
<polygon fill="#63b8ff" stroke="#63b8ff" points="212.21,-44.29 207.92,-53.98 217.31,-49.08 212.21,-44.29"/>
</a>
</g>
</g>
<!-- Node7 -->
<g id="Node000007" class="node">
<title>Node7</title>
<g id="a_Node000007"><a xlink:href="structdaObj__Sekizoa__c.html" target="_top" xlink:title="Stone Guardian Statue(s)">
<polygon fill="white" stroke="#666666" points="397.5,-19.25 305.75,-19.25 305.75,0 397.5,0 397.5,-19.25"/>
<text text-anchor="middle" x="351.62" y="-5.75" font-family="Helvetica,sans-Serif" font-size="10.00">daObj_Sekizoa_c</text>
</a>
</g>
</g>
<!-- Node1&#45;&gt;Node7 -->
<g id="edge6_Node000001_Node000007" class="edge">
<title>Node1&#45;&gt;Node7</title>
<g id="a_edge6_Node000001_Node000007"><a xlink:title=" ">
<path fill="none" stroke="#63b8ff" d="M235.1,-51.18C262.95,-41.49 300.66,-28.36 325.54,-19.7"/>
<polygon fill="#63b8ff" stroke="#63b8ff" points="234.3,-47.75 226.01,-54.34 236.6,-54.36 234.3,-47.75"/>
</a>
</g>
</g>
<!-- Node2 -->
<g id="Node000002" class="node">
<title>Node2</title>
<g id="a_Node000002"><a xlink:href="structfopAc__ac__c.html" target="_top" xlink:title=" ">
<polygon fill="white" stroke="#666666" points="232.5,-129.75 164.75,-129.75 164.75,-110.5 232.5,-110.5 232.5,-129.75"/>
<text text-anchor="middle" x="198.62" y="-116.25" font-family="Helvetica,sans-Serif" font-size="10.00">fopAc_ac_c</text>
</a>
</g>
</g>
<!-- Node2&#45;&gt;Node1 -->
<g id="edge1_Node000001_Node000002" class="edge">
<title>Node2&#45;&gt;Node1</title>
<g id="a_edge1_Node000001_Node000002"><a xlink:title=" ">
<path fill="none" stroke="#63b8ff" d="M198.62,-98.88C198.62,-90.59 198.62,-81.42 198.62,-74.86"/>
<polygon fill="#63b8ff" stroke="#63b8ff" points="195.13,-98.82 198.63,-108.82 202.13,-98.82 195.13,-98.82"/>
</a>
</g>
</g>
<!-- Node3 -->
<g id="Node000003" class="node">
<title>Node3</title>
<g id="a_Node000003"><a xlink:href="structleafdraw__class.html" target="_top" xlink:title=" ">
<polygon fill="white" stroke="#666666" points="239.25,-185 158,-185 158,-165.75 239.25,-165.75 239.25,-185"/>
<text text-anchor="middle" x="198.62" y="-171.5" font-family="Helvetica,sans-Serif" font-size="10.00">leafdraw_class</text>
</a>
</g>
</g>
<!-- Node3&#45;&gt;Node2 -->
<g id="edge2_Node000002_Node000003" class="edge">
<title>Node3&#45;&gt;Node2</title>
<g id="a_edge2_Node000002_Node000003"><a xlink:title=" ">
<path fill="none" stroke="#63b8ff" d="M198.62,-154.13C198.62,-145.84 198.62,-136.67 198.62,-130.11"/>
<polygon fill="#63b8ff" stroke="#63b8ff" points="195.13,-154.07 198.63,-164.07 202.13,-154.07 195.13,-154.07"/>
</a>
</g>
</g>
</g>
</svg>
