<?xml version="1.0" encoding="UTF-8" standalone="no"?>
<!DOCTYPE svg PUBLIC "-//W3C//DTD SVG 1.1//EN"
 "http://www.w3.org/Graphics/SVG/1.1/DTD/svg11.dtd">
<!-- Generated by graphviz version 9.0.0 (20230911.1827)
 -->
<!-- Title: camSphChkdata Pages: 1 -->
<svg width="131pt" height="243pt"
 viewBox="0.00 0.00 130.50 243.25" xmlns="http://www.w3.org/2000/svg" xmlns:xlink="http://www.w3.org/1999/xlink">
<g id="graph0" class="graph" transform="scale(1 1) rotate(0) translate(4 239.25)">
<title>camSphChkdata</title>
<!-- Node1 -->
<g id="Node000001" class="node">
<title>Node1</title>
<g id="a_Node000001"><a xlink:title=" ">
<polygon fill="#999999" stroke="#666666" points="88,-19.25 0,-19.25 0,0 88,0 88,-19.25"/>
<text text-anchor="middle" x="44" y="-5.75" font-family="Helvetica,sans-Serif" font-size="10.00">camSphChkdata</text>
</a>
</g>
</g>
<!-- Node2 -->
<g id="Node000002" class="node">
<title>Node2</title>
<g id="a_Node000002"><a xlink:href="structcXyz.html" target="_top" xlink:title=" ">
<polygon fill="white" stroke="#666666" points="62.5,-143.62 25.5,-143.62 25.5,-124.38 62.5,-124.38 62.5,-143.62"/>
<text text-anchor="middle" x="44" y="-130.12" font-family="Helvetica,sans-Serif" font-size="10.00">cXyz</text>
</a>
</g>
</g>
<!-- Node2&#45;&gt;Node1 -->
<g id="edge1_Node000001_Node000002" class="edge">
<title>Node2&#45;&gt;Node1</title>
<g id="a_edge1_Node000001_Node000002"><a xlink:title=" ">
<path fill="none" stroke="#9a32cd" stroke-dasharray="5,2" d="M44,-112.74C44,-85.77 44,-39.22 44,-19.68"/>
<polygon fill="#9a32cd" stroke="#9a32cd" points="40.5,-112.69 44,-122.69 47.5,-112.69 40.5,-112.69"/>
</a>
</g>
<text text-anchor="middle" x="63.88" y="-61.5" font-family="Helvetica,sans-Serif" font-size="10.00" fill="grey"> field_0x0</text>
<text text-anchor="middle" x="63.88" y="-50.25" font-family="Helvetica,sans-Serif" font-size="10.00" fill="grey">field_0x8</text>
<text text-anchor="middle" x="63.88" y="-39" font-family="Helvetica,sans-Serif" font-size="10.00" fill="grey">field_0xc</text>
</g>
<!-- Node2&#45;&gt;Node2 -->
<g id="edge3_Node000002_Node000002" class="edge">
<title>Node2&#45;&gt;Node2</title>
<g id="a_edge3_Node000002_Node000002"><a xlink:title=" ">
<path fill="none" stroke="#9a32cd" stroke-dasharray="5,2" d="M68.77,-145.82C75.43,-145.18 80.5,-141.24 80.5,-134 80.5,-122.96 68.74,-119.6 57.48,-123.91"/>
<polygon fill="#9a32cd" stroke="#9a32cd" points="69.39,-142.37 58.97,-144.32 68.33,-149.29 69.39,-142.37"/>
</a>
</g>
<text text-anchor="middle" x="101.5" y="-169.5" font-family="Helvetica,sans-Serif" font-size="10.00" fill="grey"> BaseX</text>
<text text-anchor="middle" x="101.5" y="-158.25" font-family="Helvetica,sans-Serif" font-size="10.00" fill="grey">BaseXY</text>
<text text-anchor="middle" x="101.5" y="-147" font-family="Helvetica,sans-Serif" font-size="10.00" fill="grey">BaseXYZ</text>
<text text-anchor="middle" x="101.5" y="-135.75" font-family="Helvetica,sans-Serif" font-size="10.00" fill="grey">BaseXZ</text>
<text text-anchor="middle" x="101.5" y="-124.5" font-family="Helvetica,sans-Serif" font-size="10.00" fill="grey">BaseY</text>
<text text-anchor="middle" x="101.5" y="-113.25" font-family="Helvetica,sans-Serif" font-size="10.00" fill="grey">BaseYZ</text>
<text text-anchor="middle" x="101.5" y="-102" font-family="Helvetica,sans-Serif" font-size="10.00" fill="grey">BaseZ</text>
<text text-anchor="middle" x="101.5" y="-90.75" font-family="Helvetica,sans-Serif" font-size="10.00" fill="grey">Zero</text>
</g>
<!-- Node3 -->
<g id="Node000003" class="node">
<title>Node3</title>
<g id="a_Node000003"><a xlink:href="structVec.html" target="_top" xlink:title=" ">
<polygon fill="white" stroke="#666666" points="60.62,-235.25 27.38,-235.25 27.38,-216 60.62,-216 60.62,-235.25"/>
<text text-anchor="middle" x="44" y="-221.75" font-family="Helvetica,sans-Serif" font-size="10.00">Vec</text>
</a>
</g>
</g>
<!-- Node3&#45;&gt;Node2 -->
<g id="edge2_Node000002_Node000003" class="edge">
<title>Node3&#45;&gt;Node2</title>
<g id="a_edge2_Node000002_Node000003"><a xlink:title=" ">
<path fill="none" stroke="#63b8ff" d="M44,-204.44C44,-185.44 44,-157.89 44,-143.89"/>
<polygon fill="#63b8ff" stroke="#63b8ff" points="40.5,-204.19 44,-214.19 47.5,-204.19 40.5,-204.19"/>
</a>
</g>
</g>
</g>
</svg>
